<?xml version="1.0" encoding="UTF-8"?>
<svg version="1.1" xmlns="http://www.w3.org/2000/svg" width="500" height="500">
<path d="M0 0 C1.02233598 -0.00297112 2.04467197 -0.00594224 3.09798783 -0.0090034 C6.51676485 -0.01766072 9.93550672 -0.01919616 13.35429382 -0.02069092 C15.80884882 -0.02532134 18.2634031 -0.03034631 20.71795654 -0.03573608 C27.38382862 -0.04884407 34.04968702 -0.05533973 40.71556878 -0.05974674 C44.88556752 -0.06251604 49.05556396 -0.06675476 53.22556114 -0.07125092 C64.79200882 -0.08344192 76.35845467 -0.09373989 87.92490864 -0.09712601 C88.66447271 -0.09734557 89.40403678 -0.09756514 90.16601188 -0.09779136 C91.27788977 -0.09811878 91.27788977 -0.09811878 92.41222984 -0.09845281 C93.91407669 -0.09889626 95.41592354 -0.09934282 96.91777039 -0.09979248 C98.03520262 -0.10012463 98.03520262 -0.10012463 99.17520925 -0.10046348 C111.22270395 -0.10440416 123.27013789 -0.12183659 135.31760917 -0.145152 C147.71415613 -0.16894729 160.11067272 -0.18133165 172.50724286 -0.18249393 C179.45615937 -0.18340638 186.40499682 -0.18904909 193.35389137 -0.20731354 C199.89975994 -0.22445892 206.44550601 -0.22590646 212.99139977 -0.21717453 C215.38172177 -0.21640882 217.77205209 -0.22068465 220.16235352 -0.23063278 C236.45325025 -0.29440548 253.01831875 -0.05171933 268.46244812 5.82794189 C269.15233826 6.0835791 269.84222839 6.33921631 270.55302429 6.6026001 C283.22148913 11.48740639 293.11391391 18.65686019 302.71244812 28.14044189 C303.69471375 29.01442627 303.69471375 29.01442627 304.69682312 29.90606689 C320.61232945 44.36143503 327.564238 67.36789801 329.71244812 88.14044189 C329.85618212 91.5699018 329.8560275 94.9958769 329.85289001 98.42799377 C329.8573467 99.96149775 329.8573467 99.96149775 329.86189342 101.52598161 C329.87055073 104.94475862 329.87208618 108.3635005 329.87358093 111.7822876 C329.87821136 114.23684259 329.88323632 116.69139687 329.8886261 119.14595032 C329.90173408 125.81182239 329.90822975 132.47768079 329.91263676 139.14356256 C329.91540605 143.31356129 329.91964477 147.48355773 329.92414093 151.65355492 C329.93633193 163.2200026 329.9466299 174.78644845 329.95001602 186.35290241 C329.95023559 187.09246648 329.95045515 187.83203055 329.95068137 188.59400566 C329.95089965 189.33525758 329.95111793 190.07650951 329.95134282 190.84022361 C329.95178627 192.34207046 329.95223284 193.84391731 329.9526825 195.34576416 C329.95290392 196.09071898 329.95312535 196.83567381 329.95335349 197.60320302 C329.95729418 209.65069772 329.9747266 221.69813167 329.99804202 233.74560294 C330.0218373 246.1421499 330.03422166 258.53866649 330.03538394 270.93523663 C330.0362964 277.88415315 330.04193911 284.83299059 330.06020355 291.78188515 C330.07734894 298.32775372 330.07879647 304.87349979 330.07006454 311.41939354 C330.06929883 313.80971554 330.07357466 316.20004586 330.0835228 318.59034729 C330.19312454 346.588388 326.48858845 374.70476532 306.71244812 396.14044189 C305.4208075 397.58677002 305.4208075 397.58677002 304.10307312 399.06231689 C294.30228191 409.68252129 282.80582306 416.92052279 269.33744812 422.07794189 C268.29802063 422.48363403 268.29802063 422.48363403 267.2375946 422.89752197 C251.34933078 428.52792435 234.70824458 428.56016575 218.07963562 428.43341064 C216.11227169 428.42898537 214.1449042 428.42593375 212.17753601 428.42425537 C204.98078526 428.40869377 197.78411073 428.36681116 190.58744812 428.32794189 C174.45869812 428.26606689 158.32994812 428.20419189 141.71244812 428.14044189 C141.71244812 378.97044189 141.71244812 329.80044189 141.71244812 279.14044189 C160.85244812 279.14044189 179.99244812 279.14044189 199.71244812 279.14044189 C200.04244812 275.51044189 200.37244812 271.88044189 200.71244812 268.14044189 C201.01988581 266.06611728 201.35719664 263.99564283 201.74394226 261.93463135 C201.94684875 260.83961304 202.14975525 259.74459473 202.35881042 258.61639404 C202.56961243 257.50671265 202.78041443 256.39703125 202.99760437 255.25372314 C203.2909668 253.67802551 203.2909668 253.67802551 203.59025574 252.07049561 C204.3129516 248.19694095 205.04444939 244.32503262 205.77494812 240.45294189 C207.40432312 231.76981689 209.03369812 223.08669189 210.71244812 214.14044189 C187.94244812 214.14044189 165.17244812 214.14044189 141.71244812 214.14044189 C141.62994812 208.13856689 141.54744812 202.13669189 141.46244812 195.95294189 C141.4260321 194.08742676 141.38961609 192.22191162 141.35209656 190.29986572 C141.20101381 177.00127711 142.59445018 164.6155372 151.71244812 154.14044189 C159.46880608 146.38408393 171.00937828 143.16503105 181.79008484 143.0269165 C183.32411087 143.02716353 184.85814359 143.03256976 186.39213562 143.04278564 C187.47410217 143.04429626 187.47410217 143.04429626 188.57792664 143.0458374 C191.24778353 143.05103168 193.91761758 143.06499268 196.58744812 143.07794189 C202.56869812 143.09856689 208.54994812 143.11919189 214.71244812 143.14044189 C214.71244812 124.00044189 214.71244812 104.86044189 214.71244812 85.14044189 C176.64859431 79.47512412 132.05559863 74.71493486 98.64213562 98.30841064 C78.50067504 114.25144688 69.23437238 137.40677843 66.1516571 162.48126221 C65.1288968 172.12960508 65.22830128 181.88621762 65.08744812 191.57794189 C65.04917542 193.77391934 65.01011866 195.96988327 64.97026062 198.16583252 C64.87384796 203.49062356 64.79348742 208.81530713 64.71244812 214.14044189 C50.19244812 214.14044189 35.67244812 214.14044189 20.71244812 214.14044189 C20.71244812 235.59044189 20.71244812 257.04044189 20.71244812 279.14044189 C35.23244812 279.14044189 49.75244812 279.14044189 64.71244812 279.14044189 C64.71244812 328.31044189 64.71244812 377.48044189 64.71244812 428.14044189 C46.70682312 428.23325439 46.70682312 428.23325439 28.33744812 428.32794189 C24.58579285 428.35525391 20.83413757 428.38256592 16.96879578 428.41070557 C12.28935242 428.42425537 12.28935242 428.42425537 10.07972717 428.42677307 C8.57799082 428.43129731 7.0762634 428.44166997 5.57460022 428.45716858 C-9.22436258 428.60190242 -24.1981399 427.43865576 -38.10005188 421.95294189 C-39.27748962 421.50120605 -39.27748962 421.50120605 -40.47871399 421.04034424 C-52.02061727 416.44341559 -61.38302904 409.7839701 -70.28755188 401.14044189 C-70.97333313 400.52813721 -71.65911438 399.91583252 -72.36567688 399.28497314 C-88.78661871 384.12469417 -97.45901496 359.90914037 -98.38299513 337.86318815 C-98.42191065 335.19267365 -98.4304353 332.52369073 -98.42799377 329.85289001 C-98.4309649 328.83055403 -98.43393602 327.80821805 -98.43699718 326.75490218 C-98.44565449 323.33612517 -98.44718994 319.91738329 -98.44868469 316.49859619 C-98.45331512 314.0440412 -98.45834008 311.58948692 -98.46372986 309.13493347 C-98.47683784 302.46906139 -98.48333351 295.803203 -98.48774052 289.13732123 C-98.49050981 284.9673225 -98.49474853 280.79732606 -98.49924469 276.62732887 C-98.51143569 265.06088119 -98.52173366 253.49443534 -98.52511978 241.92798138 C-98.52533935 241.18841731 -98.52555891 240.44885324 -98.52578513 239.68687813 C-98.52600341 238.94562621 -98.52622169 238.20437428 -98.52644658 237.44066018 C-98.52689003 235.93881333 -98.5273366 234.43696648 -98.52778625 232.93511963 C-98.52800768 232.1901648 -98.52822911 231.44520998 -98.52845725 230.67768077 C-98.53239794 218.63018607 -98.54983036 206.58275212 -98.57314578 194.53528085 C-98.59694106 182.13873389 -98.60932542 169.7422173 -98.6104877 157.34564716 C-98.61140016 150.39673064 -98.61704287 143.4478932 -98.63530731 136.49899864 C-98.6524527 129.95313007 -98.65390023 123.407384 -98.6451683 116.86149025 C-98.64440259 114.47116825 -98.64867842 112.08083792 -98.65862656 109.6905365 C-98.77016818 81.1969497 -94.73306421 54.2413288 -75.28755188 32.14044189 C-74.65204407 31.31544189 -74.01653625 30.49044189 -73.36177063 29.64044189 C-59.57745362 13.02657581 -37.99012535 4.67131025 -17.28755188 1.14044189 C-16.27907102 0.96713978 -15.27059015 0.79383766 -14.23154926 0.61528397 C-9.46272824 0.04113631 -4.79817869 -0.00438628 0 0 Z " fill="#0866ff" transform="translate(134.2875518798828,35.85955810546875)"/>
</svg>
