<?xml version="1.0" encoding="UTF-8"?>
<svg version="1.1" xmlns="http://www.w3.org/2000/svg" width="500" height="500">
<path d="M0 0 C3.22948673 2.49117789 6.44504674 4.98373644 9.40478516 7.79199219 C9.40478516 8.45199219 9.40478516 9.11199219 9.40478516 9.79199219 C9.98873047 10.03433594 10.57267578 10.27667969 11.17431641 10.52636719 C31.2918072 21.94154585 42.27817686 59.36579563 47.97998047 79.859375 C51.41002494 92.56435584 53.44649638 105.61090641 53.40478516 118.79199219 C54.02009063 118.78922681 54.6353961 118.78646143 55.26934719 118.78361225 C70.26880965 118.71724349 85.26822679 118.66765877 100.26779842 118.63655567 C107.52160364 118.6211131 114.7753106 118.60007381 122.02905273 118.56567383 C128.35436957 118.53569119 134.6796152 118.51639823 141.00500113 118.5097267 C144.35163656 118.50582932 147.69790775 118.49513101 151.04450798 118.47480202 C154.78833881 118.4529682 158.53175032 118.45002784 162.27563477 118.45141602 C163.37471664 118.44063019 164.47379852 118.42984436 165.60618591 118.41873169 C175.07768478 118.45663657 182.57786074 119.96506777 189.40478516 126.79199219 C197.70923708 139.04826195 193.90461415 156.14560816 192.71728516 169.97949219 C192.52278608 172.3747384 192.32951847 174.77008491 192.13745117 177.16552734 C191.58104614 184.04287204 190.99795634 190.91773104 190.40478516 197.79199219 C190.32812622 198.68335876 190.25146729 199.57472534 190.17248535 200.49310303 C189.62303239 206.86906656 189.06302174 213.24398134 188.48242188 219.6171875 C187.35211964 232.06435248 186.40465923 244.52376438 185.49438477 256.98876953 C184.92919094 264.62835308 184.27483004 272.24373413 183.43603516 279.85839844 C182.26964896 290.51183078 181.49260405 301.18948379 180.71575928 311.87728882 C180.28981585 317.73089824 179.85369655 323.58374481 179.41650391 329.43652344 C179.33031799 330.59090408 179.24413208 331.74528473 179.15533447 332.93464661 C178.32270138 344.01401785 177.38596655 355.08283203 176.41333008 366.15063477 C175.55119817 375.9720231 174.76540164 385.7973472 174.05078125 395.63061523 C173.74227716 399.79959885 173.41404514 403.94732715 172.86962891 408.09277344 C172.44040068 411.50856443 172.238286 414.85471528 172.09228516 418.29199219 C170.70621592 437.41159428 164.01515929 455.82907864 149.40478516 468.79199219 C142.67994078 473.99643696 135.54151633 477.39750087 127.40478516 479.79199219 C126.32039689 480.13347605 125.23600863 480.47495991 124.11876011 480.82679176 C117.89679906 482.35700877 111.54705724 482.07502551 105.18040466 482.05941772 C103.73225848 482.06315779 102.28411431 482.06776072 100.83597332 482.07314837 C96.86963003 482.08535025 92.90337127 482.08512122 88.93701351 482.08275962 C84.65392381 482.08235073 80.37086094 482.09339762 76.08778381 482.10287476 C67.70039758 482.1194713 59.31303947 482.12498373 50.92563819 482.12609951 C44.10434761 482.12705081 37.28306629 482.13116522 30.46177864 482.13750076 C11.10621408 482.15511105 -8.24932833 482.1643402 -27.60490096 482.16283982 C-29.16933851 482.16271995 -29.16933851 482.16271995 -30.76538086 482.16259766 C-31.80961859 482.16251589 -32.85385632 482.16243413 -33.92973762 482.16234989 C-50.84203359 482.1615375 -67.7542404 482.18066399 -84.66651059 482.20887439 C-102.04756337 482.237637 -119.42857271 482.25141276 -136.80964988 482.24968684 C-146.56141198 482.24902401 -156.31308064 482.25446913 -166.06482124 482.27604294 C-174.37011103 482.29429941 -182.67526505 482.29856566 -190.98056627 482.28502409 C-195.21335716 482.27851635 -199.44588794 482.2782972 -203.67865372 482.29573059 C-207.56331539 482.31156476 -211.44751297 482.30849361 -215.33216404 482.29116233 C-216.72787783 482.28811494 -218.12362716 482.29163821 -219.51929898 482.30288248 C-236.66690902 482.43174024 -252.53904427 478.33670678 -265.20849609 466.30371094 C-278.32913468 452.49590307 -282.41859979 437.13586657 -284.03271484 418.66699219 C-284.16077865 417.24826637 -284.28912256 415.8295658 -284.41772461 414.41088867 C-285.57343571 401.53093711 -286.58519317 388.63917592 -287.5843811 375.74630737 C-288.57481927 362.96706911 -289.61253968 350.19185916 -290.65771484 337.41699219 C-290.73980194 336.41193634 -290.82188904 335.40688049 -290.90646362 334.37136841 C-292.36981794 316.45468917 -293.84509076 298.53893773 -295.37646484 280.62792969 C-296.57203244 266.60528202 -297.71217628 252.58837913 -298.59521484 238.54199219 C-299.2239579 228.56127341 -300.05228616 218.61912637 -301.03271484 208.66699219 C-302.34492172 195.26512085 -303.36165597 181.85121643 -304.28271484 168.41699219 C-304.38264236 166.98344391 -304.38264236 166.98344391 -304.48458862 165.52093506 C-304.67532847 162.77040304 -304.86085518 160.01957307 -305.04443359 157.26855469 C-305.10052795 156.45932556 -305.15662231 155.65009644 -305.2144165 154.81634521 C-306.58363323 133.71773672 -306.58363323 133.71773672 -300.96630859 126.78027344 C-292.95040374 119.05585603 -283.2304412 118.3442944 -272.53613281 118.45141602 C-271.37399765 118.45097794 -270.21186249 118.45053986 -269.01451111 118.4500885 C-265.20529894 118.45216453 -261.39653684 118.4754401 -257.58740234 118.49902344 C-254.93367773 118.50462361 -252.27997746 118.50903944 -249.62625122 118.5118866 C-243.37558962 118.52117233 -237.12508738 118.54573845 -230.87449563 118.57593507 C-223.75229364 118.60958793 -216.63008363 118.62599231 -209.5078218 118.64102137 C-194.87020434 118.6722916 -180.23271182 118.72498371 -165.59521484 118.79199219 C-165.56909496 118.21747189 -165.54297508 117.64295158 -165.51606369 117.05102158 C-165.39504991 114.42255568 -165.27006679 111.7942926 -165.14501953 109.16601562 C-165.10400116 108.26225189 -165.06298279 107.35848816 -165.02072144 106.42733765 C-164.72040123 100.19453826 -164.13779878 94.15511632 -162.84521484 88.04199219 C-162.67111084 87.17695068 -162.49700684 86.31190918 -162.31762695 85.4206543 C-160.62730608 77.34715783 -158.27537259 69.58430266 -155.59521484 61.79199219 C-155.06154297 60.09429687 -155.06154297 60.09429687 -154.51708984 58.36230469 C-146.26391983 33.19594823 -130.73029882 10.53866257 -108.59521484 -4.20800781 C-107.66966797 -4.82804688 -106.74412109 -5.44808594 -105.79052734 -6.08691406 C-73.78083513 -26.16887544 -29.5055306 -22.34364332 0 0 Z M-77.59521484 11.79199219 C-78.44083984 12.05882812 -79.28646484 12.32566406 -80.15771484 12.60058594 C-99.30066741 19.3305302 -111.95667542 36.23480832 -120.58056641 53.79882812 C-122.52306773 58.0407955 -124.10563514 62.37382523 -125.59521484 66.79199219 C-125.81371094 67.4392627 -126.03220703 68.0865332 -126.25732422 68.75341797 C-129.04729422 77.17855466 -131.12715984 85.712708 -132.84521484 94.41699219 C-133.00844238 95.22668457 -133.17166992 96.03637695 -133.33984375 96.87060547 C-134.77827507 104.58972732 -135.06172944 111.78971114 -135.59521484 119.79199219 C-83.45521484 119.79199219 -31.31521484 119.79199219 22.40478516 119.79199219 C18.92688453 83.27403559 10.83079035 45.52306287 -18.34521484 20.54199219 C-35.06884394 7.71361831 -57.79159566 4.98449809 -77.59521484 11.79199219 Z " fill="#F0572B" transform="translate(305.59521484375,18.2080078125)"/>
<path d="M0 0 C1.74023438 -0.01836914 1.74023438 -0.01836914 3.515625 -0.03710938 C15.55899857 -0.05731638 26.30350607 1.95634558 37.6875 5.8125 C39.24247192 6.33493286 39.24247192 6.33493286 40.82885742 6.86791992 C62.63955019 14.4332337 62.63955019 14.4332337 67.875 21.1875 C68.55003797 25.65962654 68.16280358 27.69283759 65.875 31.625 C62.80255119 34.24938336 61.15799987 35.08537992 57.10546875 34.78125 C53.46078431 33.81103628 50.56871491 31.80599965 47.42578125 29.76953125 C43.44851443 27.30277311 39.2732209 25.74621015 34.875 24.1875 C33.6478125 23.75179687 32.420625 23.31609375 31.15625 22.8671875 C11.42363615 16.03732054 -11.14432351 15.1816178 -30.3125 24.3125 C-40.6958922 29.82181933 -49.95257475 37.57170172 -53.75390625 49.09375 C-55.15661509 57.00798093 -55.02547325 64.1940459 -50.70703125 71.08984375 C-46.64496718 76.47583981 -42.95367746 80.4432252 -37.3125 84.125 C-36.33506836 84.76731567 -36.33506836 84.76731567 -35.33789062 85.42260742 C-21.96453037 93.9502002 -6.78653441 98.72213457 8.36572266 103.05737305 C16.12282213 105.28243125 23.53979709 107.77556151 30.875 111.1875 C31.48166504 111.46964355 32.08833008 111.75178711 32.71337891 112.04248047 C49.22910685 119.80516026 65.43963228 128.7322032 75.875 144.1875 C76.32746094 144.80109375 76.77992188 145.4146875 77.24609375 146.046875 C85.02490671 157.21882002 85.43595691 172.11932796 83.40625 185.2109375 C79.96360647 198.20281844 70.69624942 209.42099532 59.5 216.5 C49.9172959 222.02034987 40.73057329 225.97286064 29.875 228.1875 C29.09455322 228.35813965 28.31410645 228.5287793 27.51000977 228.70458984 C20.23339963 230.18853553 13.22591141 230.49908377 5.8125 230.4375 C4.62946289 230.43073242 3.44642578 230.42396484 2.22753906 230.41699219 C-27.82920018 230.06549918 -62.10539833 222.20710167 -84.125 200.1875 C-84.625 196.875 -84.625 196.875 -84.125 193.1875 C-80.88234823 189.47031382 -79.70743474 188.34961206 -74.76953125 187.84375 C-70.60181115 188.23684686 -68.78937401 189.25800829 -65.375 191.625 C-52.07805059 200.3572955 -37.58981985 206.51956196 -22.125 210.1875 C-21.39474609 210.37296387 -20.66449219 210.55842773 -19.91210938 210.74951172 C-12.53381647 212.4550999 -5.29573729 212.48436793 2.25 212.4375 C3.4875 212.44523438 4.725 212.45296875 6 212.4609375 C23.49057903 212.42411523 40.65002778 208.99038959 54.1875 197.16796875 C62.29122011 188.31325733 64.29993844 179.64980095 64.08203125 167.8828125 C63.54532826 158.30317051 58.56783877 151.68985454 51.7578125 145.15625 C41.75224129 136.66667443 27.65576419 128.05767146 14.875 124.625 C11.25369083 123.64015072 7.79503586 122.40069719 4.2890625 121.06420898 C1.46393523 120.03821464 -1.38634445 119.11999565 -4.25 118.20703125 C-17.1270383 114.08929222 -29.32750767 109.81161402 -41.125 103.1875 C-42.19492188 102.62546875 -43.26484375 102.0634375 -44.3671875 101.484375 C-55.05141389 95.66650109 -64.26860071 87.97758615 -70.125 77.1875 C-70.53621094 76.50042969 -70.94742188 75.81335938 -71.37109375 75.10546875 C-75.59252158 66.76486221 -74.92586149 56.31732099 -74.125 47.1875 C-73.795 46.1975 -73.465 45.2075 -73.125 44.1875 C-72.465 44.1875 -71.805 44.1875 -71.125 44.1875 C-70.980625 42.95 -70.83625 41.7125 -70.6875 40.4375 C-67.76815537 27.61251702 -55.52255721 17.96975921 -45.03125 11.1875 C-30.81723083 3.02499394 -16.25321803 0.00885252 0 0 Z " fill="#FEFBFA" transform="translate(252.125,199.8125)"/>
<path d="M0 0 C0.33 0.66 0.66 1.32 1 2 C-9.37357631 4.48063781 -9.37357631 4.48063781 -15 3 C-15 2.67 -15 2.34 -15 2 C-13.43883181 1.66048381 -11.87598662 1.32867456 -10.3125 1 C-9.44238281 0.814375 -8.57226562 0.62875 -7.67578125 0.4375 C-5.06287036 0.01027953 -2.64186962 -0.07616201 0 0 Z " fill="#F2663D" transform="translate(290,426)"/>
<path d="M0 0 C-9 6 -9 6 -12 6 C-12 5.34 -12 4.68 -12 4 C-7.9090934 0.68831371 -5.26371362 -0.50130606 0 0 Z " fill="#F05121" transform="translate(224,225)"/>
<path d="M0 0 C3.40312738 1.05875074 6.01353231 2.00902154 9 4 C9 4.66 9 5.32 9 6 C5.06326356 4.68775452 2.77280706 3.08089673 0 0 Z " fill="#F0501E" transform="translate(203,299)"/>
<path d="M0 0 C0.33 1.32 0.66 2.64 1 4 C-0.4375 6.25 -0.4375 6.25 -2 8 C-2.99 7.67 -3.98 7.34 -5 7 C-3.35 4.69 -1.7 2.38 0 0 Z " fill="#F26338" transform="translate(330,396)"/>
<path d="M0 0 C0.33 0 0.66 0 1 0 C1.25 6.625 1.25 6.625 -1 10 C-1.66 10 -2.32 10 -3 10 C-2.01 6.7 -1.02 3.4 0 0 Z " fill="#F2673E" transform="translate(334,386)"/>
<path d="M0 0 C2.97 0.99 5.94 1.98 9 3 C8.34 3.66 7.68 4.32 7 5 C1.125 2.25 1.125 2.25 0 0 Z " fill="#F0511F" transform="translate(281,309)"/>
</svg>
