<?xml version="1.0" encoding="UTF-8"?>
<svg version="1.1" xmlns="http://www.w3.org/2000/svg" width="500" height="500">
<path d="M0 0 C20.46 0 40.92 0 62 0 C63.25363229 5.01452917 63.57066157 9.84793878 64 15 C69.61 15.33 75.22 15.66 81 16 C81.11214844 17.8871875 81.11214844 17.8871875 81.2265625 19.8125 C82.32597386 35.1096375 85.90587882 47.35815337 93.703125 60.66796875 C95.02919658 63.05250108 96.03940411 65.44898356 97 68 C97.66 68 98.32 68 99 68 C99.61875 68.804375 100.2375 69.60875 100.875 70.4375 C103.02540985 73.03064129 103.75394458 73.65220835 107 74 C107 74.66 107 75.32 107 76 C107.57105469 76.12503906 108.14210938 76.25007813 108.73046875 76.37890625 C111.07789741 77.02131788 113.11228699 77.90187576 115.3125 78.9375 C121.4953052 81.72127526 127.34427539 83.18566178 134.08203125 83.75390625 C136 84 136 84 138 85 C139.70363822 85.22622081 141.41328701 85.40888473 143.125 85.5625 C144.03507812 85.64628906 144.94515625 85.73007813 145.8828125 85.81640625 C146.58148438 85.87699219 147.28015625 85.93757813 148 86 C148.19532961 87.7699868 148.38098882 89.54104279 148.5625 91.3125 C148.66691406 92.29863281 148.77132813 93.28476563 148.87890625 94.30078125 C149 97 149 97 148 100 C153.94 100.33 159.88 100.66 166 101 C166 121.79 166 142.58 166 164 C149.73940611 164 149.73940611 164 143.0625 162.75 C141.93074341 162.5475769 141.93074341 162.5475769 140.77612305 162.34106445 C123.84704593 159.20077847 108.53416125 153.2987951 93 146 C93 145.34 93 144.68 93 144 C92.43796875 143.88785156 91.8759375 143.77570313 91.296875 143.66015625 C88.68486892 142.90942661 86.60528678 141.78832624 84.25 140.4375 C83.45078125 139.98246094 82.6515625 139.52742187 81.828125 139.05859375 C81.22484375 138.70925781 80.6215625 138.35992187 80 138 C80.16200394 139.086297 80.32400787 140.17259399 80.49092102 141.29180908 C81.15456047 146.63828602 81.14762246 151.94996074 81.14526367 157.33105469 C81.14862228 158.4412648 81.1519809 159.55147491 81.15544128 160.69532776 C81.1649132 164.35418835 81.16689308 168.01300292 81.16796875 171.671875 C81.17118593 174.23569761 81.17455035 176.79952005 81.17805481 179.36334229 C81.18403814 184.7397919 81.18593876 190.1162235 81.18530273 195.49267578 C81.18470527 201.65454958 81.19519503 207.81633489 81.2110464 213.97818637 C81.22585926 219.95502244 81.22928631 225.93181172 81.22869301 231.90866852 C81.22986166 234.42644866 81.23421962 236.94422967 81.24202538 239.46199799 C81.35067511 278.1549343 81.35067511 278.1549343 76.375 293.25 C76.11775146 294.065896 75.86050293 294.88179199 75.59545898 295.72241211 C71.54309357 308.02804319 65.34968903 319.35690601 58 330 C57.48050781 330.75796875 56.96101562 331.5159375 56.42578125 332.296875 C55.95527344 332.85890625 55.48476563 333.4209375 55 334 C54.34 334 53.68 334 53 334 C52.68675781 334.80244141 52.68675781 334.80244141 52.3671875 335.62109375 C50.46325321 338.93393941 47.83550189 341.41374815 45.125 344.0625 C44.33029297 344.85624023 44.33029297 344.85624023 43.51953125 345.66601562 C40.81284816 348.3424752 38.11669435 350.79798769 35 353 C34.05125 353.7425 33.1025 354.485 32.125 355.25 C8.06551023 372.35439102 -23.34233095 378.40759767 -52.25 374.1875 C-54.17245934 373.82083226 -56.08986751 373.42624993 -58 373 C-59.49466797 372.690625 -59.49466797 372.690625 -61.01953125 372.375 C-77.11343738 368.73889284 -93.52542586 360.87462876 -106 350 C-106 349.34 -106 348.68 -106 348 C-106.556875 347.773125 -107.11375 347.54625 -107.6875 347.3125 C-110.62841043 345.64333462 -112.6135675 343.3864325 -115 341 C-115.928125 340.443125 -116.85625 339.88625 -117.8125 339.3125 C-118.534375 338.879375 -119.25625 338.44625 -120 338 C-120 337.34 -120 336.68 -120 336 C-121.65 335.34 -123.3 334.68 -125 334 C-125 333.34 -125 332.68 -125 332 C-125.66 332 -126.32 332 -127 332 C-127 331.34 -127 330.68 -127 330 C-127.66 330 -128.32 330 -129 330 C-129 329.34 -129 328.68 -129 328 C-129.66 328 -130.32 328 -131 328 C-131 327.34 -131 326.68 -131 326 C-131.66 326 -132.32 326 -133 326 C-133 325.34 -133 324.68 -133 324 C-133.66 324 -134.32 324 -135 324 C-135 323.34 -135 322.68 -135 322 C-135.66 322 -136.32 322 -137 322 C-137 321.34 -137 320.68 -137 320 C-137.66 320 -138.32 320 -139 320 C-139 319.34 -139 318.68 -139 318 C-139.66 318 -140.32 318 -141 318 C-141.66 316.02 -142.32 314.04 -143 312 C-143.66 312 -144.32 312 -145 312 C-145 311.34 -145 310.68 -145 310 C-145.66 310 -146.32 310 -147 310 C-152.859375 298.28125 -152.859375 298.28125 -153.93041992 296.12231445 C-154.6235138 294.74704281 -155.33368362 293.38019244 -156.0637207 292.02416992 C-158.7583105 286.94230718 -160.31919085 281.8869299 -161.6875 276.3125 C-161.89955078 275.48427734 -162.11160156 274.65605469 -162.33007812 273.80273438 C-162.90473032 271.53856848 -163.46994991 269.27502076 -164 267 C-164.18030762 266.23252441 -164.36061523 265.46504883 -164.54638672 264.67431641 C-165.58348019 258.56004198 -165.38668311 252.25421563 -165.4375 246.0625 C-165.44400574 245.3034436 -165.45051147 244.54438721 -165.45721436 243.7623291 C-165.50978463 230.39677795 -163.56708219 218.61618139 -159 206 C-158.33202372 204.00043701 -157.66473025 202.00064443 -157 200 C-156.34 200 -155.68 200 -155 200 C-154.87625 199.44570313 -154.7525 198.89140625 -154.625 198.3203125 C-153.93077522 195.743003 -153.00386653 193.34775947 -152 190.875 C-151.649375 190.00617188 -151.29875 189.13734375 -150.9375 188.2421875 C-150.33781649 186.80794445 -149.69522276 185.39044553 -149 184 C-148.34 184 -147.68 184 -147 184 C-146.71125 183.4225 -146.4225 182.845 -146.125 182.25 C-145.08333333 180.16666667 -144.04166667 178.08333333 -143 176 C-142.34 176 -141.68 176 -141 176 C-140.690625 175.38125 -140.38125 174.7625 -140.0625 174.125 C-139.375 172.75 -138.6875 171.375 -138 170 C-137.34 170 -136.68 170 -136 170 C-136 169.34 -136 168.68 -136 168 C-135.34 168 -134.68 168 -134 168 C-134 167.34 -134 166.68 -134 166 C-133.34 166 -132.68 166 -132 166 C-132 165.34 -132 164.68 -132 164 C-131.34 164 -130.68 164 -130 164 C-130 163.34 -130 162.68 -130 162 C-128.1875 159.875 -128.1875 159.875 -126 158 C-125.01 158 -124.02 158 -123 158 C-123 157.34 -123 156.68 -123 156 C-122.34 156 -121.68 156 -121 156 C-121 155.34 -121 154.68 -121 154 C-120.01 154 -119.02 154 -118 154 C-118 153.34 -118 152.68 -118 152 C-117.01 152 -116.02 152 -115 152 C-115 151.34 -115 150.68 -115 150 C-112 148 -112 148 -109 148 C-109 147.34 -109 146.68 -109 146 C-107.68 146 -106.36 146 -105 146 C-105 145.34 -105 144.68 -105 144 C-104.01 144 -103.02 144 -102 144 C-102 143.34 -102 142.68 -102 142 C-101.12988281 141.72736328 -101.12988281 141.72736328 -100.2421875 141.44921875 C-96.62197574 140.28429912 -93.25824386 139.13428681 -89.875 137.375 C-86.57241066 135.79550075 -83.61527753 135.42532677 -80 135 C-79.67 134.67 -79.34 134.34 -79 134 C-76.9427083 133.68076508 -74.88386479 133.48838648 -72.8125 133.28125 C-70.9832467 133.18001957 -70.9832467 133.18001957 -70 132 C-67.47905924 131.91152257 -64.98569107 131.88472699 -62.46484375 131.90234375 C-61.33496788 131.90446617 -61.33496788 131.90446617 -60.18226624 131.90663147 C-57.7673044 131.91224624 -55.35243399 131.92480117 -52.9375 131.9375 C-51.30403779 131.9425131 -49.67057414 131.94707634 -48.03710938 131.95117188 C-44.02470415 131.96222046 -40.01236759 131.97949494 -36 132 C-34.63876565 137.03044389 -34.93804943 141.79615233 -35 147 C-26.585 147.495 -26.585 147.495 -18 148 C-17.37397226 153.00822189 -16.87790834 157.14218536 -16.97827148 162.04882812 C-16.99836777 163.16938599 -17.01846405 164.28994385 -17.03916931 165.44445801 C-17.07972191 167.21992004 -17.07972191 167.21992004 -17.12109375 169.03125 C-17.14470474 170.26290894 -17.16831573 171.49456787 -17.19264221 172.7635498 C-17.26887298 176.67582911 -17.35307116 180.58788989 -17.4375 184.5 C-17.49140865 187.16143627 -17.54350138 189.82290425 -17.59570312 192.484375 C-17.72443291 198.98971689 -17.85969482 205.49489802 -18 212 C-19.07362793 211.83991455 -20.14725586 211.6798291 -21.25341797 211.51489258 C-35.48380895 209.55921067 -49.46725971 210.48421889 -61.51171875 219.046875 C-63 220 -63 220 -65 220 C-65 220.66 -65 221.32 -65 222 C-66.49609375 223.4375 -66.49609375 223.4375 -68.4375 225 C-71.15188238 227.14525044 -71.15188238 227.14525044 -73 230 C-73.66 230 -74.32 230 -75 230 C-75.37125 230.99 -75.37125 230.99 -75.75 232 C-76.71775287 234.32260688 -77.75257391 236.4185859 -78.9375 238.625 C-84.78867706 250.39309769 -85.95355786 263.20530274 -82.3125 275.875 C-79.59665894 283.94989851 -79.59665894 283.94989851 -75 291 C-72.41852514 291.78693694 -72.41852514 291.78693694 -70 292 C-70 292.66 -70 293.32 -70 294 C-63.88331765 295.12244623 -57.95415606 295.25782177 -51.75 295.3125 C-50.12771484 295.35600586 -50.12771484 295.35600586 -48.47265625 295.40039062 C-38.94458643 295.47509805 -32.02572517 293.01607823 -24 288 C-23.34 288 -22.68 288 -22 288 C-22 287.34 -22 286.68 -22 286 C-21.01 286 -20.02 286 -19 286 C-19 285.34 -19 284.68 -19 284 C-17.125 281.875 -17.125 281.875 -15 280 C-14.34 280 -13.68 280 -13 280 C-13 279.34 -13 278.68 -13 278 C-12.34 278 -11.68 278 -11 278 C-9.43370292 274.98029212 -8.12374836 271.91349586 -6.875 268.75 C-6.52179688 267.85796875 -6.16859375 266.9659375 -5.8046875 266.046875 C-5.53914062 265.37140625 -5.27359375 264.6959375 -5 264 C-4.34 264 -3.68 264 -3 264 C-0.81054221 250.46240923 -0.69317204 237.10380212 -0.68115234 223.41796875 C-0.67183764 220.97228673 -0.66166672 218.52660784 -0.65071106 216.08093262 C-0.62916914 210.84720327 -0.61349039 205.61349263 -0.60334396 200.37973022 C-0.58866409 192.81289667 -0.56310226 185.24612948 -0.53501268 177.67933524 C-0.48971226 165.39822036 -0.45302884 153.11709582 -0.421875 140.8359375 C-0.39162042 128.91664948 -0.35723881 116.99738495 -0.31738281 105.078125 C-0.31492126 104.34155367 -0.31245972 103.60498235 -0.30992357 102.84609067 C-0.29754763 99.15037093 -0.28509136 95.45465146 -0.27259517 91.75893211 C-0.16927861 61.17264967 -0.08160075 30.5863503 0 0 Z " fill="#020101" transform="translate(233,82)"/>
<path d="M0 0 C5.94 0.33 11.88 0.66 18 1 C18 21.79 18 42.58 18 64 C1.73940611 64 1.73940611 64 -4.9375 62.75 C-6.06925659 62.5475769 -6.06925659 62.5475769 -7.22387695 62.34106445 C-24.15295407 59.20077847 -39.46583875 53.2987951 -55 46 C-55 45.34 -55 44.68 -55 44 C-55.56203125 43.88785156 -56.1240625 43.77570313 -56.703125 43.66015625 C-59.31513108 42.90942661 -61.39471322 41.78832624 -63.75 40.4375 C-64.94882812 39.75494141 -64.94882812 39.75494141 -66.171875 39.05859375 C-66.77515625 38.70925781 -67.3784375 38.35992187 -68 38 C-67.75699409 39.6294455 -67.75699409 39.6294455 -67.50907898 41.29180908 C-66.84543953 46.63828602 -66.85237754 51.94996074 -66.85473633 57.33105469 C-66.85137772 58.4412648 -66.8480191 59.55147491 -66.84455872 60.69532776 C-66.8350868 64.35418835 -66.83310692 68.01300292 -66.83203125 71.671875 C-66.82881407 74.23569761 -66.82544965 76.79952005 -66.82194519 79.36334229 C-66.81596186 84.7397919 -66.81406124 90.1162235 -66.81469727 95.49267578 C-66.81529473 101.65454958 -66.80480497 107.81633489 -66.7889536 113.97818637 C-66.77414074 119.95502244 -66.77071369 125.93181172 -66.77130699 131.90866852 C-66.77013834 134.42644866 -66.76578038 136.94422967 -66.75797462 139.46199799 C-66.64932489 178.1549343 -66.64932489 178.1549343 -71.625 193.25 C-71.88224854 194.065896 -72.13949707 194.88179199 -72.40454102 195.72241211 C-76.45690643 208.02804319 -82.65031097 219.35690601 -90 230 C-90.51949219 230.75796875 -91.03898438 231.5159375 -91.57421875 232.296875 C-92.04472656 232.85890625 -92.51523437 233.4209375 -93 234 C-93.66 234 -94.32 234 -95 234 C-95.20882812 234.53496094 -95.41765625 235.06992187 -95.6328125 235.62109375 C-97.53674679 238.93393941 -100.16449811 241.41374815 -102.875 244.0625 C-103.66970703 244.85624023 -103.66970703 244.85624023 -104.48046875 245.66601562 C-107.18715184 248.3424752 -109.88330565 250.79798769 -113 253 C-113.94875 253.7425 -114.8975 254.485 -115.875 255.25 C-139.93448977 272.35439102 -171.34233095 278.40759767 -200.25 274.1875 C-202.17245934 273.82083226 -204.08986751 273.42624993 -206 273 C-207.49466797 272.690625 -207.49466797 272.690625 -209.01953125 272.375 C-225.11343738 268.73889284 -241.52542586 260.87462876 -254 250 C-254 249.34 -254 248.68 -254 248 C-254.8353125 247.6596875 -254.8353125 247.6596875 -255.6875 247.3125 C-258.63246684 245.64103234 -260.68156544 243.44723648 -263 241 C-259.6929383 241 -258.76891124 241.53327913 -256 243.1875 C-230.13672975 258.00238296 -200.99715617 262.334031 -172 255 C-171.30567871 254.82887695 -170.61135742 254.65775391 -169.89599609 254.48144531 C-162.37025928 253.23255243 -162.37025928 253.23255243 -156 250 C-154.33382885 249.95936168 -152.66611905 249.957279 -151 250 C-151 249.34 -151 248.68 -151 248 C-148 246 -148 246 -144 246 C-144 245.34 -144 244.68 -144 244 C-141.09432866 241.98217268 -138.48330216 240.64505596 -135 240 C-135 239.34 -135 238.68 -135 238 C-133.16980616 236.54591396 -131.28383752 235.16169051 -129.375 233.8125 C-124.51237323 230.31200747 -120.76025114 226.65083694 -117 222 C-116.34 222 -115.68 222 -115 222 C-115 221.34 -115 220.68 -115 220 C-114.34 220 -113.68 220 -113 220 C-113 219.34 -113 218.68 -113 218 C-112.34 218 -111.68 218 -111 218 C-110.731875 217.26910156 -110.46375 216.53820312 -110.1875 215.78515625 C-109.02585603 213.0606426 -107.6875054 210.86328902 -106 208.4375 C-104.09937057 205.69584204 -102.42409849 203.01936265 -101 200 C-100.34 200 -99.68 200 -99 200 C-98.89300781 199.49210938 -98.78601563 198.98421875 -98.67578125 198.4609375 C-97.75041897 195.09112109 -96.45040068 191.87878533 -95.1875 188.625 C-89.56916195 173.86819755 -86.86786761 160.41336045 -86.79467773 144.60742188 C-86.78508283 143.26635447 -86.77507185 141.92528998 -86.76467896 140.58422852 C-86.73779829 136.96500178 -86.71669832 133.34576223 -86.69667697 129.72649193 C-86.67471271 125.9361682 -86.64737541 122.14588321 -86.62062073 118.35559082 C-86.57083429 111.18768672 -86.52584373 104.01976097 -86.48259836 96.85181475 C-86.43310542 88.68730917 -86.37823225 80.52284249 -86.32291877 72.3583746 C-86.20931458 55.57228564 -86.10242914 38.78616094 -86 22 C-85.01 22 -84.02 22 -83 22 C-83 22.66 -83 23.32 -83 24 C-82.46375 24.103125 -81.9275 24.20625 -81.375 24.3125 C-78.37497956 25.18092697 -75.7620465 26.55620296 -73 28 C-73 28.66 -73 29.32 -73 30 C-72.01 30.12375 -72.01 30.12375 -71 30.25 C-67.64600706 31.08849823 -64.98508512 32.48506914 -61.9375 34.078125 C-59.66300176 35.16034593 -57.49543826 35.68807022 -55 36 C-55 36.66 -55 37.32 -55 38 C-47.14854783 40.89264027 -39.20754201 42.44634239 -31 44 C-27.7 44.66 -24.4 45.32 -21 46 C-14.07 46.66 -7.14 47.32 0 48 C0 32.16 0 16.32 0 0 Z " fill="#F70651" transform="translate(381,182)"/>
<path d="M0 0 C20.46 0 40.92 0 62 0 C63.30358981 5.21435926 63.55364396 10.64372749 64 16 C48.82 16 33.64 16 18 16 C18.02618408 23.58033203 18.05236816 31.16066406 18.0793457 38.97070312 C18.1597298 63.27212697 18.21526971 87.57354732 18.25532665 111.87506911 C18.26157959 115.65483157 18.26805126 119.43459362 18.2746582 123.21435547 C18.27596976 123.96678404 18.27728131 124.71921261 18.2786326 125.49444205 C18.30034231 137.65046576 18.33973913 149.80637029 18.38576398 161.96232349 C18.43265253 174.45129036 18.46032148 186.94019515 18.47044247 199.42924643 C18.47727607 207.1251389 18.49879626 214.82069441 18.53958233 222.51648307 C18.56933425 228.4345903 18.57224306 234.35252803 18.56553841 240.2707119 C18.56690615 242.68607332 18.57674689 245.10144832 18.59602737 247.51673317 C18.73662388 266.04925543 17.65683509 281.37322948 5 296 C4.50242187 296.64195312 4.00484375 297.28390625 3.4921875 297.9453125 C-2.85802066 305.35942988 -15.06525158 311.30483977 -24.67578125 312.82421875 C-40.84975423 314.0474604 -53.66241203 311.2933936 -67 302 C-70.2267095 299.00900792 -73.02476741 295.95046518 -75 292 C-73.35 292 -71.7 292 -70 292 C-70 292.66 -70 293.32 -70 294 C-63.88331765 295.12244623 -57.95415606 295.25782177 -51.75 295.3125 C-50.12771484 295.35600586 -50.12771484 295.35600586 -48.47265625 295.40039062 C-38.94458643 295.47509805 -32.02572517 293.01607823 -24 288 C-23.34 288 -22.68 288 -22 288 C-22 287.34 -22 286.68 -22 286 C-21.01 286 -20.02 286 -19 286 C-19 285.34 -19 284.68 -19 284 C-17.125 281.875 -17.125 281.875 -15 280 C-14.34 280 -13.68 280 -13 280 C-13 279.34 -13 278.68 -13 278 C-12.34 278 -11.68 278 -11 278 C-9.43370292 274.98029212 -8.12374836 271.91349586 -6.875 268.75 C-6.52179688 267.85796875 -6.16859375 266.9659375 -5.8046875 266.046875 C-5.40636719 265.03367187 -5.40636719 265.03367187 -5 264 C-4.34 264 -3.68 264 -3 264 C-0.81054221 250.46240923 -0.69317204 237.10380212 -0.68115234 223.41796875 C-0.67183764 220.97228673 -0.66166672 218.52660784 -0.65071106 216.08093262 C-0.62916914 210.84720327 -0.61349039 205.61349263 -0.60334396 200.37973022 C-0.58866409 192.81289667 -0.56310226 185.24612948 -0.53501268 177.67933524 C-0.48971226 165.39822036 -0.45302884 153.11709582 -0.421875 140.8359375 C-0.39162042 128.91664948 -0.35723881 116.99738495 -0.31738281 105.078125 C-0.31492126 104.34155367 -0.31245972 103.60498235 -0.30992357 102.84609067 C-0.29754763 99.15037093 -0.28509136 95.45465146 -0.27259517 91.75893211 C-0.16927861 61.17264967 -0.08160075 30.5863503 0 0 Z " fill="#02F6F3" transform="translate(233,82)"/>
<path d="M0 0 C1.43352212 0.00015908 2.86704998 0.00585132 4.30053711 0.01586914 C5.43041298 0.01799156 5.43041298 0.01799156 6.58311462 0.02015686 C8.99807646 0.02577163 11.41294687 0.03832656 13.82788086 0.05102539 C15.46134307 0.05603849 17.09480672 0.06060173 18.72827148 0.06469727 C22.74067671 0.07574585 26.75301326 0.09302033 30.76538086 0.11352539 C31.60058793 3.24451517 31.90008006 5.98929168 31.89038086 9.23852539 C31.89295898 10.10735352 31.89553711 10.97618164 31.89819336 11.87133789 C31.76538086 14.11352539 31.76538086 14.11352539 30.76538086 16.11352539 C28.79443359 16.53662109 28.79443359 16.53662109 26.19897461 16.78930664 C25.24643799 16.89202881 24.29390137 16.99475098 23.3125 17.10058594 C22.28632568 17.20798096 21.26015137 17.31537598 20.20288086 17.42602539 C-4.78842621 20.40727565 -26.96277153 30.59336771 -45.23461914 48.11352539 C-46.06993164 48.87407227 -46.90524414 49.63461914 -47.76586914 50.41821289 C-66.60866538 68.15603034 -78.30076165 95.84747725 -79.55883789 121.47680664 C-80.04606765 138.38918962 -78.45902341 156.58778701 -71.23461914 172.11352539 C-70.95070313 172.72389648 -70.66678711 173.33426758 -70.37426758 173.96313477 C-66.56512509 182.06192194 -62.55689788 189.88838892 -57.23461914 197.11352539 C-56.67258789 197.87793945 -56.11055664 198.64235352 -55.53149414 199.42993164 C-54.11302461 201.3355858 -52.68204245 203.22982201 -51.23461914 205.11352539 C-51.89461914 205.44352539 -52.55461914 205.77352539 -53.23461914 206.11352539 C-53.23461914 205.45352539 -53.23461914 204.79352539 -53.23461914 204.11352539 C-54.88461914 203.45352539 -56.53461914 202.79352539 -58.23461914 202.11352539 C-58.23461914 201.45352539 -58.23461914 200.79352539 -58.23461914 200.11352539 C-58.89461914 200.11352539 -59.55461914 200.11352539 -60.23461914 200.11352539 C-60.23461914 199.45352539 -60.23461914 198.79352539 -60.23461914 198.11352539 C-60.89461914 198.11352539 -61.55461914 198.11352539 -62.23461914 198.11352539 C-62.23461914 197.45352539 -62.23461914 196.79352539 -62.23461914 196.11352539 C-62.89461914 196.11352539 -63.55461914 196.11352539 -64.23461914 196.11352539 C-64.23461914 195.45352539 -64.23461914 194.79352539 -64.23461914 194.11352539 C-64.89461914 194.11352539 -65.55461914 194.11352539 -66.23461914 194.11352539 C-66.23461914 193.45352539 -66.23461914 192.79352539 -66.23461914 192.11352539 C-66.89461914 192.11352539 -67.55461914 192.11352539 -68.23461914 192.11352539 C-68.23461914 191.45352539 -68.23461914 190.79352539 -68.23461914 190.11352539 C-68.89461914 190.11352539 -69.55461914 190.11352539 -70.23461914 190.11352539 C-70.23461914 189.45352539 -70.23461914 188.79352539 -70.23461914 188.11352539 C-70.89461914 188.11352539 -71.55461914 188.11352539 -72.23461914 188.11352539 C-72.23461914 187.45352539 -72.23461914 186.79352539 -72.23461914 186.11352539 C-72.89461914 186.11352539 -73.55461914 186.11352539 -74.23461914 186.11352539 C-74.89461914 184.13352539 -75.55461914 182.15352539 -76.23461914 180.11352539 C-76.89461914 180.11352539 -77.55461914 180.11352539 -78.23461914 180.11352539 C-78.23461914 179.45352539 -78.23461914 178.79352539 -78.23461914 178.11352539 C-78.89461914 178.11352539 -79.55461914 178.11352539 -80.23461914 178.11352539 C-86.09399414 166.39477539 -86.09399414 166.39477539 -87.16503906 164.23583984 C-87.85813294 162.8605682 -88.56830276 161.49371783 -89.29833984 160.13769531 C-91.99292964 155.05583257 -93.55380999 150.00045529 -94.92211914 144.42602539 C-95.13416992 143.59780273 -95.3462207 142.76958008 -95.56469727 141.91625977 C-96.13934946 139.65209387 -96.70456905 137.38854615 -97.23461914 135.11352539 C-97.41492676 134.3460498 -97.59523438 133.57857422 -97.78100586 132.7878418 C-98.81809933 126.67356737 -98.62130225 120.36774102 -98.67211914 114.17602539 C-98.67862488 113.41696899 -98.68513062 112.6579126 -98.6918335 111.87585449 C-98.74440377 98.51030334 -96.80170133 86.72970678 -92.23461914 74.11352539 C-91.56664286 72.11396241 -90.89934939 70.11416982 -90.23461914 68.11352539 C-89.57461914 68.11352539 -88.91461914 68.11352539 -88.23461914 68.11352539 C-88.11086914 67.55922852 -87.98711914 67.00493164 -87.85961914 66.43383789 C-87.16539436 63.85652839 -86.23848567 61.46128486 -85.23461914 58.98852539 C-84.88399414 58.11969727 -84.53336914 57.25086914 -84.17211914 56.35571289 C-83.57243563 54.92146984 -82.9298419 53.50397092 -82.23461914 52.11352539 C-81.57461914 52.11352539 -80.91461914 52.11352539 -80.23461914 52.11352539 C-79.94586914 51.53602539 -79.65711914 50.95852539 -79.35961914 50.36352539 C-78.31795247 48.28019206 -77.27628581 46.19685872 -76.23461914 44.11352539 C-75.57461914 44.11352539 -74.91461914 44.11352539 -74.23461914 44.11352539 C-73.92524414 43.49477539 -73.61586914 42.87602539 -73.29711914 42.23852539 C-72.60961914 40.86352539 -71.92211914 39.48852539 -71.23461914 38.11352539 C-70.57461914 38.11352539 -69.91461914 38.11352539 -69.23461914 38.11352539 C-69.23461914 37.45352539 -69.23461914 36.79352539 -69.23461914 36.11352539 C-68.57461914 36.11352539 -67.91461914 36.11352539 -67.23461914 36.11352539 C-67.23461914 35.45352539 -67.23461914 34.79352539 -67.23461914 34.11352539 C-66.57461914 34.11352539 -65.91461914 34.11352539 -65.23461914 34.11352539 C-65.23461914 33.45352539 -65.23461914 32.79352539 -65.23461914 32.11352539 C-64.57461914 32.11352539 -63.91461914 32.11352539 -63.23461914 32.11352539 C-63.23461914 31.45352539 -63.23461914 30.79352539 -63.23461914 30.11352539 C-61.42211914 27.98852539 -61.42211914 27.98852539 -59.23461914 26.11352539 C-58.24461914 26.11352539 -57.25461914 26.11352539 -56.23461914 26.11352539 C-56.23461914 25.45352539 -56.23461914 24.79352539 -56.23461914 24.11352539 C-55.57461914 24.11352539 -54.91461914 24.11352539 -54.23461914 24.11352539 C-54.23461914 23.45352539 -54.23461914 22.79352539 -54.23461914 22.11352539 C-53.24461914 22.11352539 -52.25461914 22.11352539 -51.23461914 22.11352539 C-51.23461914 21.45352539 -51.23461914 20.79352539 -51.23461914 20.11352539 C-50.24461914 20.11352539 -49.25461914 20.11352539 -48.23461914 20.11352539 C-48.23461914 19.45352539 -48.23461914 18.79352539 -48.23461914 18.11352539 C-45.23461914 16.11352539 -45.23461914 16.11352539 -42.23461914 16.11352539 C-42.23461914 15.45352539 -42.23461914 14.79352539 -42.23461914 14.11352539 C-40.91461914 14.11352539 -39.59461914 14.11352539 -38.23461914 14.11352539 C-38.23461914 13.45352539 -38.23461914 12.79352539 -38.23461914 12.11352539 C-37.24461914 12.11352539 -36.25461914 12.11352539 -35.23461914 12.11352539 C-35.23461914 11.45352539 -35.23461914 10.79352539 -35.23461914 10.11352539 C-34.65454102 9.93176758 -34.07446289 9.75000977 -33.47680664 9.56274414 C-29.85659488 8.39782451 -26.492863 7.2478122 -23.10961914 5.48852539 C-19.8070298 3.90902614 -16.84989667 3.53885216 -13.23461914 3.11352539 C-12.90461914 2.78352539 -12.57461914 2.45352539 -12.23461914 2.11352539 C-10.17732744 1.79429047 -8.11848393 1.60191187 -6.04711914 1.39477539 C-3.11763878 0.94020085 -3.51418393 0.12333727 0 0 Z " fill="#06F5EE" transform="translate(166.234619140625,213.886474609375)"/>
<path d="M0 0 C20.46 0 40.92 0 62 0 C63.30358981 5.21435926 63.55364396 10.64372749 64 16 C48.82 16 33.64 16 18 16 C18.02618408 23.58033203 18.05236816 31.16066406 18.0793457 38.97070312 C18.1597298 63.27212697 18.21526971 87.57354732 18.25532665 111.87506911 C18.26157959 115.65483157 18.26805126 119.43459362 18.2746582 123.21435547 C18.27596976 123.96678404 18.27728131 124.71921261 18.2786326 125.49444205 C18.30034231 137.65046576 18.33973913 149.80637029 18.38576398 161.96232349 C18.43265253 174.45129036 18.46032148 186.94019515 18.47044247 199.42924643 C18.47727607 207.1251389 18.49879626 214.82069441 18.53958233 222.51648307 C18.56933425 228.4345903 18.57224306 234.35252803 18.56553841 240.2707119 C18.56690615 242.68607332 18.57674689 245.10144832 18.59602737 247.51673317 C18.73662388 266.04925543 17.65683509 281.37322948 5 296 C4.50242187 296.64195312 4.00484375 297.28390625 3.4921875 297.9453125 C-2.85802066 305.35942988 -15.06525158 311.30483977 -24.67578125 312.82421875 C-40.84975423 314.0474604 -53.66241203 311.2933936 -67 302 C-70.2267095 299.00900792 -73.02476741 295.95046518 -75 292 C-73.35 292 -71.7 292 -70 292 C-70 292.66 -70 293.32 -70 294 C-63.88331765 295.12244623 -57.95415606 295.25782177 -51.75 295.3125 C-50.12771484 295.35600586 -50.12771484 295.35600586 -48.47265625 295.40039062 C-38.94458643 295.47509805 -32.02572517 293.01607823 -24 288 C-23.34 288 -22.68 288 -22 288 C-22 287.34 -22 286.68 -22 286 C-21.01 286 -20.02 286 -19 286 C-19 285.34 -19 284.68 -19 284 C-17.125 281.875 -17.125 281.875 -15 280 C-14.34 280 -13.68 280 -13 280 C-13 279.34 -13 278.68 -13 278 C-12.34 278 -11.68 278 -11 278 C-9.43370292 274.98029212 -8.12374836 271.91349586 -6.875 268.75 C-6.52179688 267.85796875 -6.16859375 266.9659375 -5.8046875 266.046875 C-5.40636719 265.03367187 -5.40636719 265.03367187 -5 264 C-4.34 264 -3.68 264 -3 264 C-0.81054221 250.46240923 -0.69317204 237.10380212 -0.68115234 223.41796875 C-0.67183764 220.97228673 -0.66166672 218.52660784 -0.65071106 216.08093262 C-0.62916914 210.84720327 -0.61349039 205.61349263 -0.60334396 200.37973022 C-0.58866409 192.81289667 -0.56310226 185.24612948 -0.53501268 177.67933524 C-0.48971226 165.39822036 -0.45302884 153.11709582 -0.421875 140.8359375 C-0.39162042 128.91664948 -0.35723881 116.99738495 -0.31738281 105.078125 C-0.31492126 104.34155367 -0.31245972 103.60498235 -0.30992357 102.84609067 C-0.29754763 99.15037093 -0.28509136 95.45465146 -0.27259517 91.75893211 C-0.16927861 61.17264967 -0.08160075 30.5863503 0 0 Z M2 2 C1.18856551 4.84997214 0.87544526 7.3744988 0.87695217 10.33406448 C0.87496112 11.19894399 0.87297007 12.06382349 0.87091869 12.95491147 C0.87383153 13.90043339 0.87674437 14.8459553 0.87974548 15.82012939 C0.87889106 16.82810097 0.87803663 17.83607255 0.87715632 18.87458873 C0.87550545 22.26178801 0.88101652 25.64893807 0.88647461 29.03613281 C0.88675659 31.46033731 0.88659853 33.88454189 0.8860321 36.30874634 C0.88580417 41.53287484 0.88864588 46.75699216 0.89426994 51.98111725 C0.90239611 59.53433008 0.90500131 67.08753687 0.90625793 74.6407536 C0.90844669 86.89527145 0.91510202 99.14978264 0.92456055 111.40429688 C0.93373921 123.30859341 0.94081782 135.21288814 0.94506836 147.1171875 C0.94533108 147.85093752 0.94559381 148.58468754 0.94586449 149.3406724 C0.94716953 153.02167138 0.94843323 156.70267038 0.94967639 160.38366938 C0.96004353 190.92245102 0.9777314 221.46122458 1 252 C1.66 252 2.32 252 3 252 C3 253.32 3 254.64 3 256 C3.66 256 4.32 256 5 256 C7.56780471 252.1584024 7.22688882 248.1860825 7.125 243.75 C7.11597656 243.00492188 7.10695313 242.25984375 7.09765625 241.4921875 C7.07418358 239.66131941 7.03831525 237.83061762 7 236 C7.66 236 8.32 236 9 236 C9 241.28 9 246.56 9 252 C9.66 252 10.32 252 11 252 C11 246.72 11 241.44 11 236 C11.66 236 12.32 236 13 236 C13 165.05 13 94.1 13 21 C13.66 20.67 14.32 20.34 15 20 C15 101.84 15 183.68 15 268 C15.66 268 16.32 268 17 268 C17.00423194 266.70218125 17.00846388 265.40436251 17.01282406 264.06721592 C17.11339837 233.29183433 17.21908808 202.51647508 17.33111694 171.74113322 C17.34488729 167.95706095 17.35861427 164.17298853 17.37231445 160.38891602 C17.37504276 159.6355434 17.37777106 158.88217079 17.38058204 158.10596871 C17.42471307 145.89138434 17.46532736 133.67679066 17.50465261 121.46218998 C17.5450517 108.93824342 17.58920535 96.4143142 17.63687855 83.8903932 C17.66619985 76.15622431 17.69255726 68.4220568 17.71517897 60.68786537 C17.73280889 54.76731635 17.75565072 48.84679484 17.78049088 42.92627144 C17.7898827 40.49012351 17.79755024 38.05396826 17.80341911 35.6178093 C17.81164423 32.30755233 17.82591049 28.99737684 17.84178162 25.68714905 C17.84275972 24.70954292 17.84373783 23.73193679 17.84474558 22.72470623 C17.85022002 21.8448995 17.85569446 20.96509277 17.8613348 20.05862522 C17.86532186 18.91092052 17.86532186 18.91092052 17.86938947 17.74002987 C18 16 18 16 19 15 C22.10085221 14.83958807 25.18187579 14.74036598 28.28515625 14.68359375 C29.21597519 14.66281265 30.14679413 14.64203156 31.1058197 14.62062073 C34.09130182 14.55502069 37.07687484 14.49619198 40.0625 14.4375 C42.08138976 14.3943247 44.1002702 14.35071075 46.11914062 14.30664062 C51.07933297 14.19932871 56.03961709 14.09809112 61 14 C61 11.36 61 8.72 61 6 C43.18 6 25.36 6 7 6 C7.33 4.68 7.66 3.36 8 2 C6.02 2 4.04 2 2 2 Z " fill="#11F1E9" transform="translate(233,82)"/>
<path d="M0 0 C2.86688248 0.09096556 5.70300515 0.23767988 8.5625 0.4375 C9.36880859 0.48970703 10.17511719 0.54191406 11.00585938 0.59570312 C13.00421738 0.72577376 15.00215386 0.86229056 17 1 C18.12328925 8.04986922 18.04164543 14.90625056 17.87890625 22.03125 C17.84348976 23.8787384 17.84348976 23.8787384 17.80735779 25.7635498 C17.73112702 29.67582911 17.64692884 33.58788989 17.5625 37.5 C17.50859135 40.16143627 17.45649862 42.82290425 17.40429688 45.484375 C17.27556709 51.98971689 17.14030518 58.49489802 17 65 C15.92637207 64.83991455 14.85274414 64.6798291 13.74658203 64.51489258 C-0.48380895 62.55921067 -14.46725971 63.48421889 -26.51171875 72.046875 C-28 73 -28 73 -30 73 C-30 73.66 -30 74.32 -30 75 C-31.49609375 76.4375 -31.49609375 76.4375 -33.4375 78 C-36.15188238 80.14525044 -36.15188238 80.14525044 -38 83 C-38.66 83 -39.32 83 -40 83 C-40.2475 83.66 -40.495 84.32 -40.75 85 C-41.71775287 87.32260688 -42.75257391 89.4185859 -43.9375 91.625 C-49.81798783 103.45204855 -50.94818711 116.2829139 -47.25 129 C-45.63237149 133.71373469 -43.55379744 137.74367094 -41 142 C-41.33 142.66 -41.66 143.32 -42 144 C-42.66 143.67 -43.32 143.34 -44 143 C-44 142.34 -44 141.68 -44 141 C-44.86625 140.8453125 -44.86625 140.8453125 -45.75 140.6875 C-48.35661158 139.89103535 -49.9735311 138.80934723 -52 137 C-52 136.34 -52 135.68 -52 135 C-52.66 135 -53.32 135 -54 135 C-54 134.34 -54 133.68 -54 133 C-54.66 133 -55.32 133 -56 133 C-56 132.34 -56 131.68 -56 131 C-56.66 131 -57.32 131 -58 131 C-58.67154933 129.71086513 -59.33708859 128.41859796 -60 127.125 C-60.37125 126.40570313 -60.7425 125.68640625 -61.125 124.9453125 C-62 123 -62 123 -62 121 C-62.66 121 -63.32 121 -64 121 C-68.90994963 107.36612201 -70.60059532 92.72398133 -65 79 C-64.43713717 77.45846577 -63.87461691 75.91680639 -63.3125 74.375 C-62.879375 73.26125 -62.44625 72.1475 -62 71 C-61.34 71 -60.68 71 -60 71 C-60 70.34 -60 69.68 -60 69 C-59.34 69 -58.68 69 -58 69 C-58 68.34 -58 67.68 -58 67 C-57.34 67 -56.68 67 -56 67 C-56 66.34 -56 65.68 -56 65 C-55.34 65 -54.68 65 -54 65 C-54 64.34 -54 63.68 -54 63 C-53.34 63 -52.68 63 -52 63 C-51.7525 62.38125 -51.505 61.7625 -51.25 61.125 C-49.79371361 58.64931313 -48.62187494 58.04874998 -46 57 C-46 56.34 -46 55.68 -46 55 C-44.14985947 54.03391677 -42.29466527 53.0775093 -40.4375 52.125 C-39.40496094 51.59132813 -38.37242187 51.05765625 -37.30859375 50.5078125 C-30.5962662 47.4488297 -24.75943857 46.68119016 -17.5 46.75 C-16.27603516 46.73839844 -16.27603516 46.73839844 -15.02734375 46.7265625 C-14.22425781 46.72914063 -13.42117187 46.73171875 -12.59375 46.734375 C-11.87896484 46.73663086 -11.16417969 46.73888672 -10.42773438 46.74121094 C-7.15432034 47.09014687 -4.14092583 48.03862848 -1 49 C-1.00222061 48.40087296 -1.00444122 47.80174591 -1.00672913 47.1844635 C-1.02878165 40.97202142 -1.04390646 34.75959038 -1.05493164 28.54711914 C-1.05997333 26.22582549 -1.06680651 23.90453503 -1.07543945 21.58325195 C-1.08751225 18.25471205 -1.09322979 14.92621398 -1.09765625 11.59765625 C-1.10281754 10.55287613 -1.10797882 9.50809601 -1.11329651 8.43165588 C-1.11337204 7.47073532 -1.11344757 6.50981476 -1.11352539 5.51977539 C-1.115746 4.66928116 -1.11796661 3.81878693 -1.12025452 2.94252014 C-1 1 -1 1 0 0 Z " fill="#F80451" transform="translate(198,229)"/>
<path d="M0 0 C5.61 0 11.22 0 17 0 C17.07476562 1.258125 17.14953125 2.51625 17.2265625 3.8125 C18.32597386 19.1096375 21.90587882 31.35815337 29.703125 44.66796875 C31.02919658 47.05250108 32.03940411 49.44898356 33 52 C33.66 52 34.32 52 35 52 C35.33 52.99 35.66 53.98 36 55 C35.01 55.495 35.01 55.495 34 56 C33.29875 55.278125 32.5975 54.55625 31.875 53.8125 C29.91006927 51.83067874 27.86821544 50.05292847 25.6875 48.3125 C24.800625 47.549375 23.91375 46.78625 23 46 C23 45.34 23 44.68 23 44 C22.34 44 21.68 44 21 44 C19.4921875 42.3203125 19.4921875 42.3203125 17.875 40.125 C17.33617187 39.40570313 16.79734375 38.68640625 16.2421875 37.9453125 C15 36 15 36 15 34 C14.34 34 13.68 34 13 34 C12.34 32.02 11.68 30.04 11 28 C10.34 28 9.68 28 9 28 C4.2225159 19.50234386 0 9.87634368 0 0 Z " fill="#ED1E60" transform="translate(297,98)"/>
<path d="M0 0 C1.32 0 2.64 0 4 0 C4.66 2.64 5.32 5.28 6 8 C6.66 8 7.32 8 8 8 C8 9.98 8 11.96 8 14 C8.66 14 9.32 14 10 14 C10 15.98 10 17.96 10 20 C10.66 20 11.32 20 12 20 C12 18.02 12 16.04 12 14 C12.66 14 13.32 14 14 14 C14 14.66 14 15.32 14 16 C15.65 16 17.3 16 19 16 C19.29390625 17.43666016 19.29390625 17.43666016 19.59375 18.90234375 C23.74513797 37.8591455 32.80414752 53.98686852 45 69 C44.01 69.495 44.01 69.495 43 70 C43 69.34 43 68.68 43 68 C41.35 67.34 39.7 66.68 38 66 C38 65.34 38 64.68 38 64 C37.34 64 36.68 64 36 64 C36 63.34 36 62.68 36 62 C35.34 62 34.68 62 34 62 C34 61.34 34 60.68 34 60 C33.34 60 32.68 60 32 60 C32 59.34 32 58.68 32 58 C31.34 58 30.68 58 30 58 C30 57.34 30 56.68 30 56 C29.34 56 28.68 56 28 56 C28 55.34 28 54.68 28 54 C27.34 54 26.68 54 26 54 C26 53.34 26 52.68 26 52 C25.34 52 24.68 52 24 52 C24 51.34 24 50.68 24 50 C23.34 50 22.68 50 22 50 C21.34 48.02 20.68 46.04 20 44 C19.34 44 18.68 44 18 44 C18 43.34 18 42.68 18 42 C17.34 42 16.68 42 16 42 C10.140625 30.28125 10.140625 30.28125 9.07128906 28.13183594 C8.36595096 26.7282324 7.64939481 25.33020131 6.92089844 23.93847656 C4.68683818 19.63097476 3.05395827 15.44838931 1.75 10.75 C1.41484375 9.56921875 1.0796875 8.3884375 0.734375 7.171875 C0 4 0 4 0 0 Z " fill="#06F4EF" transform="translate(70,350)"/>
<path d="M0 0 C3.3 0 6.6 0 10 0 C10 0.66 10 1.32 10 2 C9.01 2 8.02 2 7 2 C6.67 76.58 6.34 151.16 6 228 C5.34 228 4.68 228 4 228 C4 154.08 4 80.16 4 4 C3.34 4 2.68 4 2 4 C2 3.34 2 2.68 2 2 C1.34 2 0.68 2 0 2 C0 1.34 0 0.68 0 0 Z " fill="#00FAE1" transform="translate(236,90)"/>
<path d="M0 0 C0.99 0 1.98 0 3 0 C3 0.66 3 1.32 3 2 C3.57105469 2.12503906 4.14210938 2.25007812 4.73046875 2.37890625 C7.07789741 3.02131788 9.11228699 3.90187576 11.3125 4.9375 C17.4953052 7.72127526 23.34427539 9.18566178 30.08203125 9.75390625 C32 10 32 10 34 11 C35.70363822 11.22622081 37.41328701 11.40888473 39.125 11.5625 C40.03507812 11.64628906 40.94515625 11.73007813 41.8828125 11.81640625 C42.93082031 11.90728516 42.93082031 11.90728516 44 12 C44.19532961 13.7699868 44.38098882 15.54104279 44.5625 17.3125 C44.71912109 18.79169922 44.71912109 18.79169922 44.87890625 20.30078125 C45 23 45 23 44 26 C27.47857291 23.902041 11.09090017 14.32907668 0 2 C0 1.34 0 0.68 0 0 Z " fill="#12E1D5" transform="translate(337,156)"/>
<path d="M0 0 C1.051875 0.474375 2.10375 0.94875 3.1875 1.4375 C6.10175851 2.69323741 8.84746914 3.52234381 12 4 C12 4.66 12 5.32 12 6 C19.85183796 8.89278241 27.79072625 10.44760528 36 12 C37.81294881 12.37282415 39.62551825 12.7475038 41.4375 13.125 C45.61031119 13.96375602 49.770329 14.53003656 54 15 C54 15.33 54 15.66 54 16 C53.0821875 15.98839844 52.164375 15.97679687 51.21875 15.96484375 C43.27383919 15.85341736 43.27383919 15.85341736 35.375 16.5625 C32.43061012 16.94418017 30.73635027 17.02613135 28 16 C28 16.66 28 17.32 28 18 C28.66 18.33 29.32 18.66 30 19 C30.66 19.99 31.32 20.98 32 22 C25.06001352 19.83836487 18.56882431 17.1063786 12 14 C12 13.34 12 12.68 12 12 C11.46375 11.9175 10.9275 11.835 10.375 11.75 C7.17831198 10.74051957 4.78002397 8.85334931 2 7 C-0.22602615 6.23060319 -0.22602615 6.23060319 -2 6 C-2 5.34 -2 4.68 -2 4 C-1.01 4 -0.02 4 1 4 C1 3.34 1 2.68 1 2 C0.34 1.67 -0.32 1.34 -1 1 C-0.67 0.67 -0.34 0.34 0 0 Z " fill="#E5084D" transform="translate(314,214)"/>
<path d="M0 0 C5.28 0 10.56 0 16 0 C16 9 16 9 14 12 C13.01 12 12.02 12 11 12 C11 12.66 11 13.32 11 14 C9.70766393 15.37310707 8.37562854 16.71034824 7 18 C7.66 18 8.32 18 9 18 C9.66 19.65 10.32 21.3 11 23 C11.33 23 11.66 23 12 23 C12.33 21.35 12.66 19.7 13 18 C13.66 18 14.32 18 15 18 C15.25328119 23.06562383 14.33583899 27.15758367 13 32 C12.34 30.68 11.68 29.36 11 28 C10.34 28 9.68 28 9 28 C4.2225159 19.50234386 0 9.87634368 0 0 Z " fill="#F6024E" transform="translate(297,98)"/>
<path d="M0 0 C0.66 0 1.32 0 2 0 C2.0234296 15.56918884 2.04102838 31.13837445 2.05181217 46.70757675 C2.05695384 53.93770693 2.06395567 61.16782611 2.07543945 68.39794922 C2.08545166 74.70461639 2.09186889 81.01127559 2.09408849 87.31795049 C2.09538457 90.65282611 2.0989362 93.987661 2.10573006 97.32253265 C2.11303523 101.05845975 2.11398696 104.7943403 2.11352539 108.53027344 C2.11712067 109.61856949 2.12071594 110.70686554 2.12442017 111.82814026 C2.11498265 118.93106477 1.69423552 125.9314998 1 133 C0.67 133 0.34 133 0 133 C-0.15404347 116.54493349 -0.30207249 100.08982553 -0.4429636 83.63464165 C-0.50852324 75.99402934 -0.57604258 68.35344377 -0.64819336 60.71289062 C-0.71108305 54.05253009 -0.77027748 47.39214865 -0.82505554 40.73171628 C-0.85418204 37.20586678 -0.88514464 33.6800552 -0.92053413 30.15426254 C-0.95999442 26.21600086 -0.99120382 22.27769704 -1.02172852 18.33935547 C-1.03467453 17.17338333 -1.04762054 16.00741119 -1.06095886 14.80610657 C-1.06799835 13.72926102 -1.07503784 12.65241547 -1.08229065 11.54293823 C-1.09058679 10.61192732 -1.09888292 9.6809164 -1.10743046 8.72169304 C-0.99003074 5.74743417 -0.54522014 2.92362904 0 0 Z " fill="#EC739D" transform="translate(312,224)"/>
<path d="M0 0 C3.54768183 1.29006612 6.6736956 2.96747644 9.9296875 4.86328125 C20.60006953 10.72192497 31.990122 15.0200635 44 17 C44 17.33 44 17.66 44 18 C42.02 18 40.04 18 38 18 C37.505 20.475 37.505 20.475 37 23 C35.68 22.67 34.36 22.34 33 22 C33 22.66 33 23.32 33 24 C26.54839396 22.07683403 21.54901537 18.72072707 16 15 C15.25234375 14.505 14.5046875 14.01 13.734375 13.5 C12.11370199 12.39319892 10.5491406 11.20488714 9 10 C9 9.34 9 8.68 9 8 C8.443125 7.773125 7.88625 7.54625 7.3125 7.3125 C4.35437642 5.633565 2.29781283 3.48929723 0 1 C0 0.67 0 0.34 0 0 Z " fill="#E81256" transform="translate(118,422)"/>
<path d="M0 0 C1.65 0 3.3 0 5 0 C5 0.66 5 1.32 5 2 C10.9172559 3.21825857 16.85751516 3.33647378 22.875 3.5625 C23.94492188 3.60568359 25.01484375 3.64886719 26.1171875 3.69335938 C28.74467754 3.79892817 31.37225422 3.90103791 34 4 C33.67 4.66 33.34 5.32 33 6 C31.02 6 29.04 6 27 6 C27 6.66 27 7.32 27 8 C26.01 8 25.02 8 24 8 C23.896875 8.763125 23.79375 9.52625 23.6875 10.3125 C22.95635961 13.17059424 22.23048087 14.15742885 20 16 C11.49836554 12.90849656 4.17208006 8.34416013 0 0 Z " fill="#0AECE2" transform="translate(158,374)"/>
<path d="M0 0 C0.33 0 0.66 0 1 0 C1.08302368 0.83809204 1.08302368 0.83809204 1.16772461 1.69311523 C1.42377135 4.27463121 1.6806318 6.85606564 1.9375 9.4375 C2.02451172 10.31599609 2.11152344 11.19449219 2.20117188 12.09960938 C2.46358679 14.7334776 2.73150167 17.36674578 3 20 C3.0839502 20.8573877 3.16790039 21.71477539 3.25439453 22.59814453 C3.60192116 26.93449633 3.60192116 26.93449633 5 31 C4.34 31.66 3.68 32.32 3 33 C2.34 32.67 1.68 32.34 1 32 C1 31.34 1 30.68 1 30 C0.34 30 -0.32 30 -1 30 C-1 30.66 -1 31.32 -1 32 C-1.66 32 -2.32 32 -3 32 C-3.25328119 26.93437617 -2.33583899 22.84241633 -1 18 C-1.66 18 -2.32 18 -3 18 C-3 19.98 -3 21.96 -3 24 C-3.99 24 -4.98 24 -6 24 C-6.33 22.02 -6.66 20.04 -7 18 C-7.66 18 -8.32 18 -9 18 C-8.34 16.68 -7.68 15.36 -7 14 C-6.34 14 -5.68 14 -5 14 C-5 13.34 -5 12.68 -5 12 C-4.01 11.67 -3.02 11.34 -2 11 C-1.34 7.37 -0.68 3.74 0 0 Z " fill="#F80E58" transform="translate(313,98)"/>
<path d="M0 0 C1.98 0 3.96 0 6 0 C6 2.64 6 5.28 6 8 C6.33 8 6.66 8 7 8 C7.33 5.69 7.66 3.38 8 1 C9.78582287 4.38148868 11.14488935 7.8638088 12.5 11.4375 C13.96980215 15.30469286 15.45114455 19.16371451 17 23 C16.01 22.67 15.02 22.34 14 22 C14 21.34 14 20.68 14 20 C13.4225 19.896875 12.845 19.79375 12.25 19.6875 C9.64338842 18.89103535 8.0264689 17.80934723 6 16 C6 15.34 6 14.68 6 14 C5.34 14 4.68 14 4 14 C4 13.34 4 12.68 4 12 C3.34 12 2.68 12 2 12 C2 11.34 2 10.68 2 10 C1.34 10 0.68 10 0 10 C-1.2380014 6.42355152 -0.74926071 3.66305234 0 0 Z " fill="#EB1154" transform="translate(140,350)"/>
<path d="M0 0 C0.99 0 1.98 0 3 0 C3 15.84 3 31.68 3 48 C2.01 48 1.02 48 0 48 C0 32.16 0 16.32 0 0 Z " fill="#220905" transform="translate(194,230)"/>
<path d="M0 0 C4.95 0 9.9 0 15 0 C15 2.64 15 5.28 15 8 C15.66 8 16.32 8 17 8 C17 9.32 17 10.64 17 12 C1.29466441 8.05969338 1.29466441 8.05969338 -1.375 3.8125 C-1.58125 3.214375 -1.7875 2.61625 -2 2 C-1.34 2 -0.68 2 0 2 C0 1.34 0 0.68 0 0 Z " fill="#0BF2EE" transform="translate(363,170)"/>
<path d="M0 0 C1.43352212 0.00015908 2.86704998 0.00585132 4.30053711 0.01586914 C5.43041298 0.01799156 5.43041298 0.01799156 6.58311462 0.02015686 C8.99807646 0.02577163 11.41294687 0.03832656 13.82788086 0.05102539 C15.46134307 0.05603849 17.09480672 0.06060173 18.72827148 0.06469727 C22.74067671 0.07574585 26.75301326 0.09302033 30.76538086 0.11352539 C31.5933761 3.23141269 31.9287407 6.00374375 31.95288086 9.23852539 C31.96706055 10.10735352 31.98124023 10.97618164 31.99584961 11.87133789 C31.76538086 14.11352539 31.76538086 14.11352539 29.76538086 16.11352539 C29.76538086 11.49352539 29.76538086 6.87352539 29.76538086 2.11352539 C29.10538086 2.11352539 28.44538086 2.11352539 27.76538086 2.11352539 C27.76538086 4.09352539 27.76538086 6.07352539 27.76538086 8.11352539 C27.10538086 8.11352539 26.44538086 8.11352539 25.76538086 8.11352539 C25.76538086 6.13352539 25.76538086 4.15352539 25.76538086 2.11352539 C22.24429456 2.2536121 18.72358374 2.40163521 15.20288086 2.55102539 C14.21223633 2.5903418 13.2215918 2.6296582 12.20092773 2.67016602 C6.98655397 2.89537153 1.93168807 3.33857931 -3.23461914 4.11352539 C-5.04619124 4.17514349 -6.85966946 4.20085347 -8.67211914 4.17602539 C-9.96956055 4.16249023 -9.96956055 4.16249023 -11.29321289 4.14868164 C-11.93387695 4.13708008 -12.57454102 4.12547852 -13.23461914 4.11352539 C-12.90461914 3.45352539 -12.57461914 2.79352539 -12.23461914 2.11352539 C-10.42211914 1.73461914 -10.42211914 1.73461914 -8.23461914 1.55102539 C-4.97294898 1.26562925 -3.21329123 0.11277685 0 0 Z " fill="#42EBE8" transform="translate(166.234619140625,213.886474609375)"/>
<path d="M0 0 C0.66 0.66 1.32 1.32 2 2 C1.625 4.125 1.625 4.125 1 6 C-0.98 6 -2.96 6 -5 6 C-5 8.64 -5 11.28 -5 14 C-5.99 14 -6.98 14 -8 14 C-8.33 15.32 -8.66 16.64 -9 18 C-10.65 18 -12.3 18 -14 18 C-14 17.34 -14 16.68 -14 16 C-13.01 16 -12.02 16 -11 16 C-11 15.34 -11 14.68 -11 14 C-14.96 14 -18.92 14 -23 14 C-22 12 -22 12 -20.109375 11.25390625 C-19.33078125 11.02574219 -18.5521875 10.79757812 -17.75 10.5625 C-14.13858271 9.4371617 -11.20330314 8.03846563 -8 6 C-7.34 6 -6.68 6 -6 6 C-6 5.34 -6 4.68 -6 4 C-5.01 4 -4.02 4 -3 4 C-3 3.34 -3 2.68 -3 2 C-2.01 1.34 -1.02 0.68 0 0 Z " fill="#2FF2EC" transform="translate(217,364)"/>
<path d="M0 0 C2 4 2 4 3 16 C-12.18 16 -27.36 16 -43 16 C-42.67 15.34 -42.34 14.68 -42 14 C-28.14 14 -14.28 14 0 14 C0 9.38 0 4.76 0 0 Z " fill="#18EBD4" transform="translate(294,82)"/>
<path d="M0 0 C3.63858143 1.32312052 6.89684151 3.02052164 10.22265625 5 C12.22013891 6.16660921 12.22013891 6.16660921 15.375 7.4375 C18 9 18 9 18.875 11.6875 C18.91625 12.450625 18.9575 13.21375 19 14 C21.31 14 23.62 14 26 14 C26 14.66 26 15.32 26 16 C26.99 16 27.98 16 29 16 C29 16.66 29 17.32 29 18 C28.01 18 27.02 18 26 18 C26 18.66 26 19.32 26 20 C21.77471416 19.40385819 18.65457051 16.95318193 15.25 14.5625 C14.64800781 14.15451172 14.04601562 13.74652344 13.42578125 13.32617188 C11.91039188 12.27295908 10.4497966 11.14181957 9 10 C9 9.34 9 8.68 9 8 C8.443125 7.773125 7.88625 7.54625 7.3125 7.3125 C4.35437642 5.633565 2.29781283 3.48929723 0 1 C0 0.67 0 0.34 0 0 Z " fill="#F32264" transform="translate(118,422)"/>
<path d="M0 0 C0.66 0 1.32 0 2 0 C2 1.98 2 3.96 2 6 C3.98 5.67 5.96 5.34 8 5 C8.42410156 5.68964844 8.84820312 6.37929688 9.28515625 7.08984375 C13.19651207 13.35660945 17.34239394 19.26647278 22 25 C21.34 25.33 20.68 25.66 20 26 C20 25.34 20 24.68 20 24 C18.35 23.34 16.7 22.68 15 22 C15 21.34 15 20.68 15 20 C14.34 20 13.68 20 13 20 C13 19.34 13 18.68 13 18 C12.34 18 11.68 18 11 18 C11 17.34 11 16.68 11 16 C10.34 16 9.68 16 9 16 C9 15.34 9 14.68 9 14 C8.34 14 7.68 14 7 14 C7 13.34 7 12.68 7 12 C6.34 12 5.68 12 5 12 C5 11.34 5 10.68 5 10 C4.34 10 3.68 10 3 10 C3 9.34 3 8.68 3 8 C2.34 8 1.68 8 1 8 C1 7.34 1 6.68 1 6 C0.34 6 -0.32 6 -1 6 C-1.33 4.68 -1.66 3.36 -2 2 C-1.34 2 -0.68 2 0 2 C0 1.34 0 0.68 0 0 Z " fill="#28EEE5" transform="translate(93,394)"/>
<path d="M0 0 C0.61875 0.639375 1.2375 1.27875 1.875 1.9375 C7.78429776 7.82996216 13.83710874 13.66456582 21 18 C20.34 18.66 19.68 19.32 19 20 C19 19.34 19 18.68 19 18 C18.443125 18.144375 17.88625 18.28875 17.3125 18.4375 C14.88615805 19.02769128 12.45093655 19.523429 10 20 C9.67 19.01 9.34 18.02 9 17 C9.66 17 10.32 17 11 17 C11 15.68 11 14.36 11 13 C7.7 13 4.4 13 1 13 C1.020625 11.783125 1.04125 10.56625 1.0625 9.3125 C1.06824116 6.08022678 0.78766315 3.15065259 0 0 Z " fill="#0E0D12" transform="translate(333,153)"/>
<path d="M0 0 C2.2922454 0.30822621 4.58378455 0.62170874 6.875 0.9375 C8.15117187 1.11152344 9.42734375 1.28554687 10.7421875 1.46484375 C14 2 14 2 16 3 C17.70363822 3.22622081 19.41328701 3.40888473 21.125 3.5625 C22.03507812 3.64628906 22.94515625 3.73007813 23.8828125 3.81640625 C24.58148438 3.87699219 25.28015625 3.93757812 26 4 C26.22226864 5.76913824 26.42733873 7.54044371 26.625 9.3125 C26.79902344 10.79169922 26.79902344 10.79169922 26.9765625 12.30078125 C27 15 27 15 25 18 C25 16.68 25 15.36 25 14 C24.34 14 23.68 14 23 14 C23 11.36 23 8.72 23 6 C22.05898438 6.09539062 21.11796875 6.19078125 20.1484375 6.2890625 C18.28058594 6.45535156 18.28058594 6.45535156 16.375 6.625 C14.53035156 6.79902344 14.53035156 6.79902344 12.6484375 6.9765625 C8.94681886 7.00034163 6.40982003 6.37441976 3 5 C3 4.01 3 3.02 3 2 C2.01 2 1.02 2 0 2 C0 1.34 0 0.68 0 0 Z " fill="#27F6E6" transform="translate(355,164)"/>
<path d="M0 0 C14.85 0 29.7 0 45 0 C47 8 47 8 46 12 C46 11.34 46 10.68 46 10 C45.34 10 44.68 10 44 10 C43.855625 9.05125 43.71125 8.1025 43.5625 7.125 C43.17064601 4.1065506 43.17064601 4.1065506 42 2 C28.14 2 14.28 2 0 2 C0 1.34 0 0.68 0 0 Z " fill="#00010E" transform="translate(252,98)"/>
<path d="M0 0 C0.33 0 0.66 0 1 0 C1 15.84 1 31.68 1 48 C-13.625 48 -13.625 48 -20 47 C-20 46.67 -20 46.34 -20 46 C-17.03 45.505 -17.03 45.505 -14 45 C-14 44.67 -14 44.34 -14 44 C-10.04 44 -6.08 44 -2 44 C-2 44.66 -2 45.32 -2 46 C-1.34 46 -0.68 46 0 46 C0 30.82 0 15.64 0 0 Z " fill="#400211" transform="translate(380,182)"/>
<path d="M0 0 C2.4291373 3.01327002 4.09184125 6.0405505 5.6875 9.5625 C6.34298828 10.98755859 6.34298828 10.98755859 7.01171875 12.44140625 C8 15 8 15 8 18 C6.35 18 4.7 18 3 18 C1.875 14.25 1.875 14.25 3 12 C2.34 12 1.68 12 1 12 C1 12.66 1 13.32 1 14 C0.01 14 -0.98 14 -2 14 C-2 13.34 -2 12.68 -2 12 C-2.66 12 -3.32 12 -4 12 C-4 11.34 -4 10.68 -4 10 C-3.34 10 -2.68 10 -2 10 C-2 8.02 -2 6.04 -2 4 C-1.34 4 -0.68 4 0 4 C0 2.68 0 1.36 0 0 Z " fill="#19EDE6" transform="translate(92,382)"/>
<path d="M0 0 C0 1.98 0 3.96 0 6 C-0.66 6 -1.32 6 -2 6 C-2 4.68 -2 3.36 -2 2 C-2.66 2 -3.32 2 -4 2 C-4 3.32 -4 4.64 -4 6 C-4.66 6 -5.32 6 -6 6 C-6 4.68 -6 3.36 -6 2 C-9.27116732 2.13888506 -12.541834 2.28730492 -15.8125 2.4375 C-17.2056543 2.49647461 -17.2056543 2.49647461 -18.62695312 2.55664062 C-19.51962891 2.59853516 -20.41230469 2.64042969 -21.33203125 2.68359375 C-22.15421143 2.72025146 -22.9763916 2.75690918 -23.82348633 2.79467773 C-26.17905178 2.93427772 -26.17905178 2.93427772 -29 4 C-30.89470816 4.0685495 -32.7916834 4.08480372 -34.6875 4.0625 C-35.68136719 4.05347656 -36.67523438 4.04445312 -37.69921875 4.03515625 C-38.83810547 4.01775391 -38.83810547 4.01775391 -40 4 C-40 3.34 -40 2.68 -40 2 C-26.61634858 0.14942104 -13.50227528 -0.24715514 0 0 Z " fill="#01FAEE" transform="translate(192,216)"/>
<path d="M0 0 C0.33 0 0.66 0 1 0 C1.33765809 3.70795276 1.66935514 7.41641581 2 11.125 C2.09539062 12.17171875 2.19078125 13.2184375 2.2890625 14.296875 C2.7245607 19.2117833 3.13675514 24.05972054 3 29 C1.68 29 0.36 29 -1 29 C-1 28.34 -1 27.68 -1 27 C-1.66 27 -2.32 27 -3 27 C-3 28.98 -3 30.96 -3 33 C-3.66 33 -4.32 33 -5 33 C-5.37971698 26.54481132 -5.37971698 26.54481132 -3.5625 23.9375 C-1.22076169 19.53503197 -1.17252176 15.10559548 -0.8125 10.1875 C-0.73064453 9.20845703 -0.64878906 8.22941406 -0.56445312 7.22070312 C-0.3649132 4.81448633 -0.17715345 2.40795112 0 0 Z " fill="#03E8DF" transform="translate(85,337)"/>
<path d="M0 0 C1.98 0.66 3.96 1.32 6 2 C6 2.66 6 3.32 6 4 C7.32 4 8.64 4 10 4 C10 4.66 10 5.32 10 6 C8.68 6 7.36 6 6 6 C6 7.32 6 8.64 6 10 C6 10.66 6 11.32 6 12 C6.66 12 7.32 12 8 12 C8 12.66 8 13.32 8 14 C7.34 14 6.68 14 6 14 C6 14.66 6 15.32 6 16 C5.34 16 4.68 16 4 16 C4 16.66 4 17.32 4 18 C3.34 18 2.68 18 2 18 C2.33 16.68 2.66 15.36 3 14 C2.01 14 1.02 14 0 14 C0 13.34 0 12.68 0 12 C0.66 12 1.32 12 2 12 C2 11.34 2 10.68 2 10 C1.34 10 0.68 10 0 10 C0 9.34 0 8.68 0 8 C1.32 8 2.64 8 4 8 C4 6.68 4 5.36 4 4 C2.35 4 0.7 4 -1 4 C-1.33 4.99 -1.66 5.98 -2 7 C-2.99 6.34 -3.98 5.68 -5 5 C-4.34 4.01 -3.68 3.02 -3 2 C-2.01 2 -1.02 2 0 2 C0 1.34 0 0.68 0 0 Z " fill="#0BF1EC" transform="translate(110,238)"/>
<path d="M0 0 C1.051875 0.474375 2.10375 0.94875 3.1875 1.4375 C6.10175851 2.69323741 8.84746914 3.52234381 12 4 C12 4.66 12 5.32 12 6 C13.65 6.33 15.3 6.66 17 7 C17 7.33 17 7.66 17 8 C15.35 8.33 13.7 8.66 12 9 C12 9.99 12 10.98 12 12 C7.99273754 11.38349808 5.32135444 9.21423629 2 7 C-0.22602615 6.23060319 -0.22602615 6.23060319 -2 6 C-2 5.34 -2 4.68 -2 4 C-1.01 4 -0.02 4 1 4 C1 3.34 1 2.68 1 2 C0.34 1.67 -0.32 1.34 -1 1 C-0.67 0.67 -0.34 0.34 0 0 Z " fill="#CD0C47" transform="translate(314,214)"/>
<path d="M0 0 C0.66 0 1.32 0 2 0 C2.33 3.3 2.66 6.6 3 10 C1.68 10 0.36 10 -1 10 C-1 10.66 -1 11.32 -1 12 C-0.34 12 0.32 12 1 12 C1 12.66 1 13.32 1 14 C-0.32 14 -1.64 14 -3 14 C-3 13.34 -3 12.68 -3 12 C-4.423125 12.7115625 -4.423125 12.7115625 -5.875 13.4375 C-7.58333333 14.29166667 -9.29166667 15.14583333 -11 16 C-9.66666667 13.33333333 -8.33333333 10.66666667 -7 8 C-6.34 8 -5.68 8 -5 8 C-4.690625 7.38125 -4.38125 6.7625 -4.0625 6.125 C-3.375 4.75 -2.6875 3.375 -2 2 C-1.34 2 -0.68 2 0 2 C0 1.34 0 0.68 0 0 Z " fill="#1EF4EB" transform="translate(97,250)"/>
<path d="M0 0 C0.90492188 0.02320313 1.80984375 0.04640625 2.7421875 0.0703125 C4.10730469 0.09738281 4.10730469 0.09738281 5.5 0.125 C6.19867188 0.14820313 6.89734375 0.17140625 7.6171875 0.1953125 C7.6171875 0.8553125 7.6171875 1.5153125 7.6171875 2.1953125 C10.9171875 2.1953125 14.2171875 2.1953125 17.6171875 2.1953125 C17.6171875 1.5353125 17.6171875 0.8753125 17.6171875 0.1953125 C19.2671875 0.1953125 20.9171875 0.1953125 22.6171875 0.1953125 C21.6171875 2.1953125 21.6171875 2.1953125 19.38671875 3.046875 C11.35088857 5.14871698 3.90048368 5.52615421 -4.3828125 5.1953125 C-4.3828125 1.47090816 -3.81099956 0.31237701 0 0 Z " fill="#1AE4DD" transform="translate(196.3828125,389.8046875)"/>
<path d="M0 0 C1.65 0 3.3 0 5 0 C5 0.66 5 1.32 5 2 C10.9172559 3.21825857 16.85751516 3.33647378 22.875 3.5625 C23.94492188 3.60568359 25.01484375 3.64886719 26.1171875 3.69335938 C28.74467754 3.79892817 31.37225422 3.90103791 34 4 C33.67 4.66 33.34 5.32 33 6 C24.75 6 16.5 6 8 6 C7.67 6.66 7.34 7.32 7 8 C5.83035398 6.8572081 4.66435444 5.71068285 3.5 4.5625 C2.8503125 3.92441406 2.200625 3.28632813 1.53125 2.62890625 C0 1 0 1 0 0 Z " fill="#4FF0E6" transform="translate(158,374)"/>
<path d="M0 0 C4 0 4 0 7 2 C2.38 6.62 -2.24 11.24 -7 16 C-7.33 15.34 -7.66 14.68 -8 14 C-7.67 13.34 -7.34 12.68 -7 12 C-6.34 12 -5.68 12 -5 12 C-4.67 10.68 -4.34 9.36 -4 8 C-4.66 8 -5.32 8 -6 8 C-6 6.68 -6 5.36 -6 4 C-4.68 4 -3.36 4 -2 4 C-1.34 2.68 -0.68 1.36 0 0 Z " fill="#0FEADB" transform="translate(120,254)"/>
<path d="M0 0 C1.65 0 3.3 0 5 0 C5 1.32 5 2.64 5 4 C3.68 4 2.36 4 1 4 C1 4.66 1 5.32 1 6 C1.66 6 2.32 6 3 6 C3 6.66 3 7.32 3 8 C2.34 8 1.68 8 1 8 C1 8.66 1 9.32 1 10 C0.34 10 -0.32 10 -1 10 C-1 10.66 -1 11.32 -1 12 C-2.32 12 -3.64 12 -5 12 C-5 11.34 -5 10.68 -5 10 C-4.34 10 -3.68 10 -3 10 C-3 9.34 -3 8.68 -3 8 C-4.32 8 -5.64 8 -7 8 C-7 7.34 -7 6.68 -7 6 C-5.68 6 -4.36 6 -3 6 C-3.33 4.68 -3.66 3.36 -4 2 C-3.01 2 -2.02 2 -1 2 C-0.67 1.34 -0.34 0.68 0 0 Z " fill="#01F8EC" transform="translate(109,242)"/>
<path d="M0 0 C0 0.66 0 1.32 0 2 C1.32 2 2.64 2 4 2 C4 3.32 4 4.64 4 6 C4.66 6.66 5.32 7.32 6 8 C1.68068613 7.38388165 -2.25208775 6.35761422 -6.375 4.9375 C-7.43460938 4.57527344 -8.49421875 4.21304687 -9.5859375 3.83984375 C-10.38257813 3.56269531 -11.17921875 3.28554688 -12 3 C-7.82744729 -0.58050131 -5.33135955 -0.26656798 0 0 Z " fill="#0F0404" transform="translate(150,430)"/>
<path d="M0 0 C1.32 0 2.64 0 4 0 C4.66 2.64 5.32 5.28 6 8 C6.66 8 7.32 8 8 8 C8 9.98 8 11.96 8 14 C7.34 14 6.68 14 6 14 C6 15.98 6 17.96 6 20 C3.30434515 17.30434515 2.9017293 14.78319847 1.875 11.125 C1.52179688 9.89007813 1.16859375 8.65515625 0.8046875 7.3828125 C0 4 0 4 0 0 Z " fill="#2DF4E9" transform="translate(70,350)"/>
<path d="M0 0 C0.33 0 0.66 0 1 0 C1.4238015 4.66181654 -0.09036915 7.79881214 -2 12 C-2.37308631 13.32276056 -2.73046415 14.65232077 -3 16 C-2.34 16 -1.68 16 -1 16 C-1 17.32 -1 18.64 -1 20 C-3.89234315 20.82638376 -5.88742431 21 -9 21 C-6.76686274 13.55620912 -3.59727921 6.88023305 0 0 Z " fill="#090B10" transform="translate(101,286)"/>
<path d="M0 0 C2.64 0.33 5.28 0.66 8 1 C6.37660195 2.70884005 4.70680947 4.37446717 3 6 C2.34 6 1.68 6 1 6 C1 19.86 1 33.72 1 48 C0.67 48 0.34 48 0 48 C0 32.16 0 16.32 0 0 Z " fill="#D31551" transform="translate(381,182)"/>
<path d="M0 0 C-1.65356922 3.58273331 -3.67980703 6.80973467 -6 10 C-6.66 10 -7.32 10 -8 10 C-8.226875 10.5775 -8.45375 11.155 -8.6875 11.75 C-10.33038023 14.5663661 -12.39533227 16.08077114 -15 18 C-15.33 17.01 -15.66 16.02 -16 15 C-14.68 14.67 -13.36 14.34 -12 14 C-12 13.34 -12 12.68 -12 12 C-11.34 12 -10.68 12 -10 12 C-10.66 10.68 -11.32 9.36 -12 8 C-10.33333333 6.33333333 -8.66666667 4.66666667 -7 3 C-6.484375 2.401875 -5.96875 1.80375 -5.4375 1.1875 C-4 0 -4 0 0 0 Z " fill="#F12163" transform="translate(294,406)"/>
<path d="M0 0 C0.99 0.33 1.98 0.66 3 1 C3 1.33 3 1.66 3 2 C3.66 2 4.32 2 5 2 C5 1.34 5 0.68 5 0 C5.66 0.33 6.32 0.66 7 1 C5.73549459 2.79613832 4.46316512 4.58677034 3.1875 6.375 C2.47980469 7.37273437 1.77210938 8.37046875 1.04296875 9.3984375 C-1 12 -1 12 -4 14 C-4 12.68 -4 11.36 -4 10 C-3.34 10 -2.68 10 -2 10 C-2.33 8.68 -2.66 7.36 -3 6 C-3.66 6 -4.32 6 -5 6 C-5 5.34 -5 4.68 -5 4 C-4.34 4 -3.68 4 -3 4 C-3 3.34 -3 2.68 -3 2 C-2.01 1.34 -1.02 0.68 0 0 Z " fill="#0DEAE0" transform="translate(239,366)"/>
<path d="M0 0 C0.66 0 1.32 0 2 0 C2 1.32 2 2.64 2 4 C2.66 4 3.32 4 4 4 C4 2.68 4 1.36 4 0 C5.98 0 7.96 0 10 0 C8.66666667 4 7.33333333 8 6 12 C5.67 11.34 5.34 10.68 5 10 C4.01 10 3.02 10 2 10 C0.68373308 6.38026598 0 3.90432869 0 0 Z " fill="#0D0402" transform="translate(126,302)"/>
<path d="M0 0 C0.66 0 1.32 0 2 0 C2.33 1.32 2.66 2.64 3 4 C1.68 4 0.36 4 -1 4 C-1 4.66 -1 5.32 -1 6 C0.32 6 1.64 6 3 6 C3 6.66 3 7.32 3 8 C2.34 8 1.68 8 1 8 C1 9.32 1 10.64 1 12 C0.34 12 -0.32 12 -1 12 C-1 13.32 -1 14.64 -1 16 C-1.66 16 -2.32 16 -3 16 C-4.26237731 13.47524538 -4.09856404 11.68799534 -4.0625 8.875 C-4.05347656 7.96492187 -4.04445313 7.05484375 -4.03515625 6.1171875 C-4.02355469 5.41851562 -4.01195313 4.71984375 -4 4 C-3.34 4 -2.68 4 -2 4 C-2 3.34 -2 2.68 -2 2 C-1.34 2 -0.68 2 0 2 C0 1.34 0 0.68 0 0 Z " fill="#03F8EC" transform="translate(103,244)"/>
<path d="M0 0 C5.28 0 10.56 0 16 0 C16 2.64 16 5.28 16 8 C15.67 8 15.34 8 15 8 C15 6.02 15 4.04 15 2 C11.7 2 8.4 2 5 2 C5 3.32 5 4.64 5 6 C4.34 6 3.68 6 3 6 C3 7.98 3 9.96 3 12 C0.60926555 8.17482487 0.44033448 4.40334476 0 0 Z " fill="#E70B4E" transform="translate(297,98)"/>
<path d="M0 0 C0.99 0 1.98 0 3 0 C3 0.66 3 1.32 3 2 C3.84304688 2.18369141 3.84304688 2.18369141 4.703125 2.37109375 C7.18986519 3.0519869 9.40514776 3.99352325 11.75 5.0625 C12.54921875 5.42472656 13.3484375 5.78695312 14.171875 6.16015625 C14.77515625 6.43730469 15.3784375 6.71445313 16 7 C15.01 7.66 14.02 8.32 13 9 C13 9.99 13 10.98 13 12 C9.57143381 10.49017269 7.04321784 8.48286031 4.25 6 C3.45078125 5.29875 2.6515625 4.5975 1.828125 3.875 C0 2 0 2 0 0 Z " fill="#44E4DA" transform="translate(337,156)"/>
<path d="M0 0 C0.66 0 1.32 0 2 0 C2.061875 0.61875 2.12375 1.2375 2.1875 1.875 C2.455625 2.57625 2.72375 3.2775 3 4 C3.763125 4.28875 4.52625 4.5775 5.3125 4.875 C8.97742249 6.4091536 10.08700879 8.59912674 12 12 C12 12.66 12 13.32 12 14 C12.66 14 13.32 14 14 14 C14.33 14.99 14.66 15.98 15 17 C14.34 17.33 13.68 17.66 13 18 C11.948125 16.9171875 11.948125 16.9171875 10.875 15.8125 C8.91006927 13.83067874 6.86821544 12.05292847 4.6875 10.3125 C3.3571875 9.1678125 3.3571875 9.1678125 2 8 C2 7.34 2 6.68 2 6 C1.34 6 0.68 6 0 6 C-0.66 4.68 -1.32 3.36 -2 2 C-1.34 2 -0.68 2 0 2 C0 1.34 0 0.68 0 0 Z " fill="#D5275E" transform="translate(318,136)"/>
<path d="M0 0 C1.98 0 3.96 0 6 0 C6 0.66 6 1.32 6 2 C5.34 2 4.68 2 4 2 C4 3.98 4 5.96 4 8 C4.99 7.34 5.98 6.68 7 6 C7.99 6 8.98 6 10 6 C10 6.66 10 7.32 10 8 C9.34 8 8.68 8 8 8 C8.2165625 8.86625 8.2165625 8.86625 8.4375 9.75 C8.95833333 11.83333333 9.47916667 13.91666667 10 16 C8.30541393 14.35525469 6.64385754 12.69469849 5 11 C4.43796875 10.4225 3.8759375 9.845 3.296875 9.25 C2.74515625 8.651875 2.1934375 8.05375 1.625 7.4375 C0.83996094 6.60025391 0.83996094 6.60025391 0.0390625 5.74609375 C-1 4 -1 4 -0.6640625 1.78515625 C-0.44492188 1.19605469 -0.22578125 0.60695313 0 0 Z " fill="#020E12" transform="translate(108,406)"/>
<path d="M0 0 C0.66 0 1.32 0 2 0 C2 3.3 2 6.6 2 10 C1.34 10 0.68 10 0 10 C0 10.66 0 11.32 0 12 C-0.66 12 -1.32 12 -2 12 C-2.33 13.32 -2.66 14.64 -3 16 C-3.99 16 -4.98 16 -6 16 C-5.28911991 12.81584958 -4.2264695 9.89608297 -3 6.875 C-2.649375 6.00617188 -2.29875 5.13734375 -1.9375 4.2421875 C-1.33781649 2.80794445 -0.69522276 1.39044553 0 0 Z " fill="#42F2EB" transform="translate(84,266)"/>
<path d="M0 0 C0.33 0 0.66 0 1 0 C1 4.62 1 9.24 1 14 C0.34 14 -0.32 14 -1 14 C-1.33 14.99 -1.66 15.98 -2 17 C-2.99 17 -3.98 17 -5 17 C-5.33 18.32 -5.66 19.64 -6 21 C-6.33 20.01 -6.66 19.02 -7 18 C-7.66 18 -8.32 18 -9 18 C-8.34 16.68 -7.68 15.36 -7 14 C-6.34 14 -5.68 14 -5 14 C-5 13.34 -5 12.68 -5 12 C-4.01 11.67 -3.02 11.34 -2 11 C-1.34 7.37 -0.68 3.74 0 0 Z " fill="#F52668" transform="translate(313,98)"/>
<path d="M0 0 C0 0.66 0 1.32 0 2 C-1.24716797 2.09087891 -1.24716797 2.09087891 -2.51953125 2.18359375 C-4.14955078 2.30927734 -4.14955078 2.30927734 -5.8125 2.4375 C-7.43091797 2.55931641 -7.43091797 2.55931641 -9.08203125 2.68359375 C-12.05989905 2.90212461 -12.05989905 2.90212461 -15 4 C-15 4.66 -15 5.32 -15 6 C-19.29 6 -23.58 6 -28 6 C-22.22630352 0.22630352 -7.94575287 -0.24830478 0 0 Z " fill="#0B1C22" transform="translate(192,230)"/>
<path d="M0 0 C0.66 0 1.32 0 2 0 C2.70703125 1.64453125 2.70703125 1.64453125 3 4 C1.63671875 6.76171875 1.63671875 6.76171875 -0.3125 9.6875 C-0.94800781 10.66074219 -1.58351563 11.63398438 -2.23828125 12.63671875 C-4 15 -4 15 -6 16 C-6 13.36 -6 10.72 -6 8 C-5.01 7.67 -4.02 7.34 -3 7 C-2.67 5.35 -2.34 3.7 -2 2 C-1.34 2 -0.68 2 0 2 C0 1.34 0 0.68 0 0 Z " fill="#130403" transform="translate(276,382)"/>
<path d="M0 0 C0.33 1.32 0.66 2.64 1 4 C1.66 4 2.32 4 3 4 C3 3.34 3 2.68 3 2 C3.66 2 4.32 2 5 2 C4.67 4.64 4.34 7.28 4 10 C2.35 10 0.7 10 -1 10 C-1.33 14.29 -1.66 18.58 -2 23 C-2.33 23 -2.66 23 -3 23 C-3.433422 14.84524526 -2.29370226 7.82316305 0 0 Z " fill="#38F2EE" transform="translate(71,298)"/>
<path d="M0 0 C0 0.99 0 1.98 0 3 C-1.32 3 -2.64 3 -4 3 C-4 3.66 -4 4.32 -4 5 C-3.34 5 -2.68 5 -2 5 C-2 5.66 -2 6.32 -2 7 C-2.66 7 -3.32 7 -4 7 C-4 7.66 -4 8.32 -4 9 C-3.01 9 -2.02 9 -1 9 C-1 9.66 -1 10.32 -1 11 C-6.75 9.25 -6.75 9.25 -9 7 C-8.01 7 -7.02 7 -6 7 C-6.33 5.68 -6.66 4.36 -7 3 C-8.32 3 -9.64 3 -11 3 C-11 2.34 -11 1.68 -11 1 C-3.57142857 -1.42857143 -3.57142857 -1.42857143 0 0 Z " fill="#0A0000" transform="translate(324,207)"/>
<path d="M0 0 C0.66 0.33 1.32 0.66 2 1 C2 1.99 2 2.98 2 4 C2.66 4 3.32 4 4 4 C4.66 5.98 5.32 7.96 6 10 C6.66 10 7.32 10 8 10 C8 10.66 8 11.32 8 12 C5.69 12 3.38 12 1 12 C-2.2 5.72307692 -2.2 5.72307692 -1.1875 2.0625 C-0.795625 1.381875 -0.40375 0.70125 0 0 Z " fill="#160608" transform="translate(304,122)"/>
<path d="M0 0 C0.70125 0.39832031 1.4025 0.79664063 2.125 1.20703125 C7.65233247 4.29362587 13.00456853 6.96381573 19 9 C19 9.33 19 9.66 19 10 C17.14375 9.938125 17.14375 9.938125 15.25 9.875 C11.98362038 9.86341709 9.7853053 10.1431298 7 12 C7 10.02 7 8.04 7 6 C6.01 6 5.02 6 4 6 C4 5.34 4 4.68 4 4 C3.01 4 2.02 4 1 4 C0.67 2.68 0.34 1.36 0 0 Z " fill="#0A0D14" transform="translate(167,384)"/>
<path d="M0 0 C2.60597856 0.95362622 5.20973651 1.91267128 7.8125 2.875 C8.55048828 3.14441406 9.28847656 3.41382813 10.04882812 3.69140625 C11.11713867 4.08779297 11.11713867 4.08779297 12.20703125 4.4921875 C12.8616333 4.73308105 13.51623535 4.97397461 14.19067383 5.22216797 C16 6 16 6 19 8 C12.84765625 8.09765625 12.84765625 8.09765625 11 8 C10.67 7.67 10.34 7.34 10 7 C7.70418219 6.92811529 5.42482931 7.00353568 3.12890625 7.0625 C1 7 1 7 -1 6 C-0.67 4.02 -0.34 2.04 0 0 Z " fill="#060507" transform="translate(359,174)"/>
<path d="M0 0 C2.93200474 2.85276137 5.64315404 5.65079784 8 9 C7.34 10.32 6.68 11.64 6 13 C4.35 13 2.7 13 1 13 C1.020625 11.783125 1.04125 10.56625 1.0625 9.3125 C1.06824116 6.08022678 0.78766315 3.15065259 0 0 Z " fill="#121B1E" transform="translate(333,153)"/>
<path d="M0 0 C0.33 0.99 0.66 1.98 1 3 C-1.64 4.98 -4.28 6.96 -7 9 C-7.99 8.34 -8.98 7.68 -10 7 C-9.34 6.34 -8.68 5.68 -8 5 C-8 4.01 -8 3.02 -8 2 C-7.34 2 -6.68 2 -6 2 C-6 1.34 -6 0.68 -6 0 C-3 -1 -3 -1 0 0 Z " fill="#0E0300" transform="translate(258,408)"/>
<path d="M0 0 C0.33 1.32 0.66 2.64 1 4 C0.01 4 -0.98 4 -2 4 C-2 5.32 -2 6.64 -2 8 C-2.639375 8.2475 -3.27875 8.495 -3.9375 8.75 C-6.18741541 9.81562433 -6.18741541 9.81562433 -6.75 12.125 C-6.8325 12.74375 -6.915 13.3625 -7 14 C-7.66 14 -8.32 14 -9 14 C-9 13.34 -9 12.68 -9 12 C-10.98 12 -12.96 12 -15 12 C-12.38346023 9.84520255 -9.7779633 7.85499644 -6.9375 6 C-4.27857117 4.18966548 -2.18090727 2.34866937 0 0 Z " fill="#0D2129" transform="translate(237,378)"/>
<path d="M0 0 C1.98 0 3.96 0 6 0 C6 0.66 6 1.32 6 2 C5.01 2.33 4.02 2.66 3 3 C3.99 3.66 4.98 4.32 6 5 C6 6.32 6 7.64 6 9 C2.59687262 7.94124926 -0.01353231 6.99097846 -3 5 C-2.67 4.01 -2.34 3.02 -2 2 C-1.34 2 -0.68 2 0 2 C0 1.34 0 0.68 0 0 Z " fill="#110403" transform="translate(126,420)"/>
<path d="M0 0 C3.96 0 7.92 0 12 0 C12 0.66 12 1.32 12 2 C13.32 2 14.64 2 16 2 C16 3.32 16 4.64 16 6 C14.26982492 5.54548816 12.54090123 5.08621143 10.8125 4.625 C9.84957031 4.36976563 8.88664062 4.11453125 7.89453125 3.8515625 C5.17789793 3.05233704 2.60862825 2.0968638 0 1 C0 0.67 0 0.34 0 0 Z " fill="#10E5D3" transform="translate(364,176)"/>
<path d="M0 0 C0.66 0 1.32 0 2 0 C2.33 0.66 2.66 1.32 3 2 C3.99 2 4.98 2 6 2 C4.84414715 5.91211733 3.64465038 8.8745041 1 12 C0.67 11.01 0.34 10.02 0 9 C-0.66 9 -1.32 9 -2 9 C-1.34 6.03 -0.68 3.06 0 0 Z " fill="#170406" transform="translate(280,370)"/>
<path d="M0 0 C1.98 0 3.96 0 6 0 C6 0.66 6 1.32 6 2 C4.50390625 3.4375 4.50390625 3.4375 2.5625 5 C-0.15188238 7.14525044 -0.15188238 7.14525044 -2 10 C-2.66 10 -3.32 10 -4 10 C-4.33 10.99 -4.66 11.98 -5 13 C-5.33 13 -5.66 13 -6 13 C-6 11.35 -6 9.7 -6 8 C-5.34 8 -4.68 8 -4 8 C-2.68 5.36 -1.36 2.72 0 0 Z " fill="#F14681" transform="translate(162,302)"/>
<path d="M0 0 C0.66 0 1.32 0 2 0 C2.25328119 5.06562383 1.33583899 9.15758367 0 14 C-0.66 12.68 -1.32 11.36 -2 10 C-2.66 10 -3.32 10 -4 10 C-4.66 8.02 -5.32 6.04 -6 4 C-5.01 3.67 -4.02 3.34 -3 3 C-2.34 3.66 -1.68 4.32 -1 5 C-0.67 3.35 -0.34 1.7 0 0 Z " fill="#E7084D" transform="translate(310,116)"/>
<path d="M0 0 C-3.1596061 2.80251781 -5.1567029 3.37672864 -9.3515625 3.36328125 C-10.36734375 3.36263672 -11.383125 3.36199219 -12.4296875 3.36132812 C-14.01136719 3.3371582 -14.01136719 3.3371582 -15.625 3.3125 C-17.21828125 3.31733398 -17.21828125 3.31733398 -18.84375 3.32226562 C-26.73293862 3.26706138 -26.73293862 3.26706138 -29 1 C-27.87722656 1.02320313 -26.75445312 1.04640625 -25.59765625 1.0703125 C-18.18894256 1.17534785 -6.36538139 -2.1217938 0 0 Z " fill="#042027" transform="translate(218,393)"/>
<path d="M0 0 C0 0.66 0 1.32 0 2 C-0.99 2 -1.98 2 -3 2 C-3 2.66 -3 3.32 -3 4 C-3.66 4 -4.32 4 -5 4 C-5 4.66 -5 5.32 -5 6 C-7.1875 8.1875 -7.1875 8.1875 -10 10 C-12.8125 9.75 -12.8125 9.75 -15 9 C-11.6214602 5.03388806 -5.46055995 0 0 0 Z " fill="#0B1921" transform="translate(149,242)"/>
<path d="M0 0 C2.29295236 0.28138058 4.58435456 0.5754186 6.875 0.875 C8.78925781 1.11863281 8.78925781 1.11863281 10.7421875 1.3671875 C14 2 14 2 16 4 C11.20862412 5.6290678 7.94367454 6.20577428 3 5 C3 4.01 3 3.02 3 2 C2.01 2 1.02 2 0 2 C0 1.34 0 0.68 0 0 Z " fill="#3FF0E7" transform="translate(355,164)"/>
<path d="M0 0 C7.10526316 4.57894737 7.10526316 4.57894737 9 7 C9 7.99 9 8.98 9 10 C6.36 10 3.72 10 1 10 C1.20625 9.278125 1.4125 8.55625 1.625 7.8125 C2.05952211 4.55358415 1.41680669 2.91695496 0 0 Z " fill="#150508" transform="translate(325,148)"/>
<path d="M0 0 C1.7074998 1.28062485 3.37373596 2.61767557 5 4 C5 4.66 5 5.32 5 6 C5.66 6 6.32 6 7 6 C7 6.66 7 7.32 7 8 C6.34 8 5.68 8 5 8 C5 8.66 5 9.32 5 10 C4.34 10 3.68 10 3 10 C3 9.34 3 8.68 3 8 C1.02 8 -0.96 8 -3 8 C-2.505 7.05125 -2.01 6.1025 -1.5 5.125 C0.14424369 2.27721834 0.14424369 2.27721834 0 0 Z " fill="#080301" transform="translate(313,136)"/>
<path d="M0 0 C0.96164063 0.08894531 1.92328125 0.17789062 2.9140625 0.26953125 C3.87054688 0.34558594 4.82703125 0.42164063 5.8125 0.5 C8.77362889 1.13210345 10.28705982 2.10219003 12.5390625 4.08203125 C11.5390625 5.08203125 11.5390625 5.08203125 8.9765625 5.14453125 C7.77 5.11359375 7.77 5.11359375 6.5390625 5.08203125 C6.5390625 4.75203125 6.5390625 4.42203125 6.5390625 4.08203125 C4.8890625 3.75203125 3.2390625 3.42203125 1.5390625 3.08203125 C1.5390625 3.74203125 1.5390625 4.40203125 1.5390625 5.08203125 C0.8790625 5.08203125 0.2190625 5.08203125 -0.4609375 5.08203125 C-0.4609375 4.42203125 -0.4609375 3.76203125 -0.4609375 3.08203125 C-1.7809375 2.75203125 -3.1009375 2.42203125 -4.4609375 2.08203125 C-2.4609375 0.08203125 -2.4609375 0.08203125 0 0 Z " fill="#0F0108" transform="translate(180.4609375,392.91796875)"/>
<path d="M0 0 C1.14109582 3.42328747 0.84733551 4.06602175 -0.375 7.3125 C-1.64759778 10.86880066 -2.5176786 14.2378931 -3 18 C-3.33 18 -3.66 18 -4 18 C-4 13.38 -4 8.76 -4 4 C-3.34 4 -2.68 4 -2 4 C-2.33 3.01 -2.66 2.02 -3 1 C-2.01 0.67 -1.02 0.34 0 0 Z M-5 2 C-3 3 -3 3 -3 3 Z " fill="#0FE7D6" transform="translate(92,302)"/>
<path d="M0 0 C3.63 0 7.26 0 11 0 C11 0.66 11 1.32 11 2 C10.01 2 9.02 2 8 2 C8 2.66 8 3.32 8 4 C5.03 4 2.06 4 -1 4 C-0.67 2.68 -0.34 1.36 0 0 Z " fill="#01F7F3" transform="translate(366,172)"/>
<path d="M0 0 C0 0.99 0 1.98 0 3 C1.093125 3.103125 2.18625 3.20625 3.3125 3.3125 C6.85559629 3.97307727 7.93243723 4.2027092 10 7 C-3.81818182 5.18181818 -3.81818182 5.18181818 -8 1 C-2.25 0 -2.25 0 0 0 Z " fill="#EA3A75" transform="translate(164,447)"/>
<path d="M0 0 C1.51400391 0.01740234 1.51400391 0.01740234 3.05859375 0.03515625 C4.07050781 0.04417969 5.08242187 0.05320313 6.125 0.0625 C7.29869141 0.07990234 7.29869141 0.07990234 8.49609375 0.09765625 C2.33873228 5.06885934 -4.93331305 4.23474949 -12.50390625 4.09765625 C-12.17390625 3.43765625 -11.84390625 2.77765625 -11.50390625 2.09765625 C-9.69140625 1.71875 -9.69140625 1.71875 -7.50390625 1.53515625 C-4.54460521 1.27621741 -2.79473653 0.10899908 0 0 Z " fill="#52F6EC" transform="translate(165.50390625,213.90234375)"/>
<path d="M0 0 C0.66 0 1.32 0 2 0 C2 3.63 2 7.26 2 11 C1.34 11 0.68 11 0 11 C0 8.69 0 6.38 0 4 C-0.66 4 -1.32 4 -2 4 C-2 5.98 -2 7.96 -2 10 C-2.99 10 -3.98 10 -5 10 C-4.67 7.69 -4.34 5.38 -4 3 C-3.01 2.67 -2.02 2.34 -1 2 C-0.67 1.34 -0.34 0.68 0 0 Z " fill="#FB014E" transform="translate(312,112)"/>
<path d="M0 0 C4 4 4 4 4.25 7.25 C4.1675 8.1575 4.085 9.065 4 10 C3.34 10 2.68 10 2 10 C2 11.98 2 13.96 2 16 C1.34 16 0.68 16 0 16 C0 10.72 0 5.44 0 0 Z " fill="#01FAF2" transform="translate(88,376)"/>
<path d="M0 0 C0.99 0 1.98 0 3 0 C3 1.32 3 2.64 3 4 C3.66 4.33 4.32 4.66 5 5 C5.99 6.485 5.99 6.485 7 8 C-2.59453303 5.10933941 -2.59453303 5.10933941 -6 2 C-4.02 2 -2.04 2 0 2 C0 1.34 0 0.68 0 0 Z " fill="#E83069" transform="translate(339,228)"/>
<path d="M0 0 C1.32 0.33 2.64 0.66 4 1 C2.25 8.75 2.25 8.75 0 11 C-1.76462683 7.91190305 -2 6.76687864 -2 3 C-1.34 3 -0.68 3 0 3 C0 2.01 0 1.02 0 0 Z " fill="#130503" transform="translate(286,359)"/>
<path d="M0 0 C0.33 0 0.66 0 1 0 C1.11044961 6.73742646 0.70132913 13.29980211 0 20 C0.99 20 1.98 20 3 20 C3 20.66 3 21.32 3 22 C2.34 22 1.68 22 1 22 C0.67 23.32 0.34 24.64 0 26 C-0.79091257 23.20392377 -1.12818608 20.71524759 -1.1328125 17.8125 C-1.13410156 17.03132813 -1.13539063 16.25015625 -1.13671875 15.4453125 C-1.13285156 14.63835937 -1.12898437 13.83140625 -1.125 13 C-1.12886719 12.19304687 -1.13273438 11.38609375 -1.13671875 10.5546875 C-1.13542969 9.77351563 -1.13414062 8.99234375 -1.1328125 8.1875 C-1.13168457 7.47980469 -1.13055664 6.77210938 -1.12939453 6.04296875 C-0.99511502 3.92287267 -0.57716498 2.04042437 0 0 Z " fill="#DD0A4B" transform="translate(131,314)"/>
<path d="M0 0 C0.66 1.32 1.32 2.64 2 4 C0.02 4.99 0.02 4.99 -2 6 C-1.814375 6.94875 -1.62875 7.8975 -1.4375 8.875 C-1 12 -1 12 -2 14 C-2.66 14 -3.32 14 -4 14 C-4.63019694 5.96498906 -4.63019694 5.96498906 -2 1.9375 C-1.34 1.298125 -0.68 0.65875 0 0 Z " fill="#120006" transform="translate(112,270)"/>
<path d="M0 0 C0.66 0 1.32 0 2 0 C2.79953138 3.28696233 3.09658936 4.71023192 2 8 C1.34 8 0.68 8 0 8 C0 11.96 0 15.92 0 20 C-0.66 20 -1.32 20 -2 20 C-2.07654536 15.48382401 -2.10228696 11.40914783 -1 7 C-0.34 7 0.32 7 1 7 C0.67 4.69 0.34 2.38 0 0 Z " fill="#140106" transform="translate(90,314)"/>
<path d="M0 0 C3.3 0 6.6 0 10 0 C10 1.32 10 2.64 10 4 C4.72 3.67 -0.56 3.34 -6 3 C-6 2.67 -6 2.34 -6 2 C-4.02 2 -2.04 2 0 2 C0 1.34 0 0.68 0 0 Z " fill="#E60A4F" transform="translate(198,288)"/>
<path d="M0 0 C1.98 0 3.96 0 6 0 C6 0.66 6 1.32 6 2 C6.99 2 7.98 2 9 2 C9 3.32 9 4.64 9 6 C8.01 6.33 7.02 6.66 6 7 C6 6.34 6 5.68 6 5 C4.35 4.67 2.7 4.34 1 4 C0.67 2.68 0.34 1.36 0 0 Z " fill="#07F5F4" transform="translate(349,164)"/>
<path d="M0 0 C0.66 0 1.32 0 2 0 C0.90301833 5.69139902 -0.54053077 10.74567937 -3 16 C-4.54046762 11.89208635 -3.75996191 8.21433421 -3 4 C-2.34 3.67 -1.68 3.34 -1 3 C-0.67 2.01 -0.34 1.02 0 0 Z " fill="#EE316E" transform="translate(306,376)"/>
<path d="M0 0 C0 0.66 0 1.32 0 2 C-0.99 2 -1.98 2 -3 2 C-3.33 2.66 -3.66 3.32 -4 4 C-6.97 4 -9.94 4 -13 4 C-13 3.34 -13 2.68 -13 2 C-8.78313245 -0.81124504 -4.85593084 -1.61864361 0 0 Z " fill="#03FAF4" transform="translate(206,378)"/>
<path d="M0 0 C0.66 0.99 1.32 1.98 2 3 C1.67 3.99 1.34 4.98 1 6 C1.99 7.485 1.99 7.485 3 9 C3 9.99 3 10.98 3 12 C2.34 12 1.68 12 1 12 C1 10.68 1 9.36 1 8 C-0.98 8 -2.96 8 -5 8 C-3.35 5.36 -1.7 2.72 0 0 Z " fill="#061419" transform="translate(243,370)"/>
<path d="M0 0 C0.33 0 0.66 0 1 0 C1.55564871 2.28831672 2.09414974 4.58080365 2.625 6.875 C2.92664063 8.15117187 3.22828125 9.42734375 3.5390625 10.7421875 C3.69117187 11.81726563 3.84328125 12.89234375 4 14 C3.34 14.66 2.68 15.32 2 16 C1.34 14.68 0.68 13.36 0 12 C-0.99 12 -1.98 12 -3 12 C-3 11.34 -3 10.68 -3 10 C-2.34 10 -1.68 10 -1 10 C-0.67 6.7 -0.34 3.4 0 0 Z " fill="#0FD9CF" transform="translate(88,366)"/>
<path d="M0 0 C0.66 0 1.32 0 2 0 C4.33046701 3.6413547 4.30891093 6.7524747 4 11 C3.01 12.485 3.01 12.485 2 14 C0.4087311 9.126739 -0.21192221 5.19209404 0 0 Z " fill="#110913" transform="translate(90,368)"/>
<path d="M0 0 C0.99 0 1.98 0 3 0 C3 0.66 3 1.32 3 2 C4.32 2.33 5.64 2.66 7 3 C6.01 3.495 6.01 3.495 5 4 C5 4.66 5 5.32 5 6 C5.66 6 6.32 6 7 6 C7 6.66 7 7.32 7 8 C6.34 8 5.68 8 5 8 C5 8.66 5 9.32 5 10 C4.34 10 3.68 10 3 10 C3 8.35 3 6.7 3 5 C2.34 5 1.68 5 1 5 C0.67 3.35 0.34 1.7 0 0 Z " fill="#E60A4E" transform="translate(295,204)"/>
<path d="M0 0 C0.33 0.66 0.66 1.32 1 2 C2.98 2 4.96 2 7 2 C4.22719294 5.08089673 1.93673644 6.68775452 -2 8 C-2.66 7.01 -3.32 6.02 -4 5 C-3.525625 4.54625 -3.05125 4.0925 -2.5625 3.625 C-0.90972192 2.06741796 -0.90972192 2.06741796 0 0 Z " fill="#11E7DD" transform="translate(130,246)"/>
<path d="M0 0 C0 1.32 0 2.64 0 4 C-0.66 4 -1.32 4 -2 4 C-2.33 4.66 -2.66 5.32 -3 6 C-5.475 5.01 -5.475 5.01 -8 4 C-8 3.01 -8 2.02 -8 1 C-5.29120665 -0.35439668 -2.99066732 -0.06501451 0 0 Z " fill="#130808" transform="translate(334,216)"/>
<path d="M0 0 C0.66 0 1.32 0 2 0 C2 0.66 2 1.32 2 2 C2.99 2 3.98 2 5 2 C5.33 1.34 5.66 0.68 6 0 C6 3.3 6 6.6 6 10 C5.34 10 4.68 10 4 10 C3.32845067 8.71086513 2.66291141 7.41859796 2 6.125 C1.62875 5.40570313 1.2575 4.68640625 0.875 3.9453125 C0 2 0 2 0 0 Z " fill="#3FF4E9" transform="translate(82,382)"/>
<path d="M0 0 C1.134375 0.020625 2.26875 0.04125 3.4375 0.0625 C3.4375 0.7225 3.4375 1.3825 3.4375 2.0625 C2.7775 2.0625 2.1175 2.0625 1.4375 2.0625 C1.4375 2.7225 1.4375 3.3825 1.4375 4.0625 C0.7775 4.0625 0.1175 4.0625 -0.5625 4.0625 C-0.5625 4.7225 -0.5625 5.3825 -0.5625 6.0625 C-1.8825 6.0625 -3.2025 6.0625 -4.5625 6.0625 C-4.605221 4.39638095 -4.60313832 2.72867115 -4.5625 1.0625 C-3.5625 0.0625 -3.5625 0.0625 0 0 Z " fill="#140807" transform="translate(138.5625,293.9375)"/>
<path d="M0 0 C1.32 0 2.64 0 4 0 C4.375 3.1875 4.375 3.1875 4 7 C2.18811972 9.1403498 0.34198833 10.38988302 -2 12 C-1.67 10.68 -1.34 9.36 -1 8 C-0.34 8 0.32 8 1 8 C1.33 6.68 1.66 5.36 2 4 C1.34 4 0.68 4 0 4 C0 2.68 0 1.36 0 0 Z " fill="#13E5E3" transform="translate(114,258)"/>
<path d="M0 0 C1.32 0 2.64 0 4 0 C4 1.32 4 2.64 4 4 C4.66 4.66 5.32 5.32 6 6 C1.80530429 5.40075776 -2.00999834 4.42500059 -6 3 C-6 2.67 -6 2.34 -6 2 C-4.02 2 -2.04 2 0 2 C0 1.34 0 0.68 0 0 Z " fill="#230207" transform="translate(150,432)"/>
<path d="M0 0 C1.32 0.33 2.64 0.66 4 1 C2.74194623 5.50802601 1.09592835 8.4912812 -2 12 C-2.33 10.02 -2.66 8.04 -3 6 C-2.01 5.67 -1.02 5.34 0 5 C0 3.35 0 1.7 0 0 Z " fill="#EF3070" transform="translate(297,393)"/>
<path d="M0 0 C0.66 0 1.32 0 2 0 C1.67 3.3 1.34 6.6 1 10 C0.01 10 -0.98 10 -2 10 C-2.33 11.98 -2.66 13.96 -3 16 C-4.49828872 12.11764181 -3.43110582 9.56550712 -2.0625 5.75 C-1.68222656 4.67234375 -1.30195312 3.5946875 -0.91015625 2.484375 C-0.45962891 1.25460937 -0.45962891 1.25460937 0 0 Z " fill="#4DF3E7" transform="translate(76,282)"/>
<path d="M0 0 C0.66 0 1.32 0 2 0 C2 1.98 2 3.96 2 6 C2.66 6.33 3.32 6.66 4 7 C3.67 7.99 3.34 8.98 3 10 C2.01 10 1.02 10 0 10 C0 9.34 0 8.68 0 8 C-1.32 7.67 -2.64 7.34 -4 7 C-2.68 6.67 -1.36 6.34 0 6 C0 4.02 0 2.04 0 0 Z " fill="#1B0408" transform="translate(308,202)"/>
<path d="M0 0 C3.22546486 2.21174733 5.07077013 5.25550422 7.1875 8.5 C6.1975 8.995 6.1975 8.995 5.1875 9.5 C5.1875 8.84 5.1875 8.18 5.1875 7.5 C2.7125 6.51 2.7125 6.51 0.1875 5.5 C0.1875 4.84 0.1875 4.18 0.1875 3.5 C-0.4725 3.5 -1.1325 3.5 -1.8125 3.5 C-1.8125 2.84 -1.8125 2.18 -1.8125 1.5 C-2.4725 1.17 -3.1325 0.84 -3.8125 0.5 C-1.8125 -0.5 -1.8125 -0.5 0 0 Z " fill="#5AE4D8" transform="translate(107.8125,410.5)"/>
<path d="M0 0 C0.66 0 1.32 0 2 0 C2 0.66 2 1.32 2 2 C2.66 2 3.32 2 4 2 C3.67 4.31 3.34 6.62 3 9 C2.67 9 2.34 9 2 9 C2 7.35 2 5.7 2 4 C1.34 4 0.68 4 0 4 C0 5.32 0 6.64 0 8 C-0.66 8 -1.32 8 -2 8 C-2 6.02 -2 4.04 -2 2 C-1.34 2 -0.68 2 0 2 C0 1.34 0 0.68 0 0 Z " fill="#140103" transform="translate(288,350)"/>
<path d="M0 0 C1.98 0.66 3.96 1.32 6 2 C6 2.66 6 3.32 6 4 C3.69 4 1.38 4 -1 4 C-1.33 4.99 -1.66 5.98 -2 7 C-2.99 6.34 -3.98 5.68 -5 5 C-4.34 4.01 -3.68 3.02 -3 2 C-2.01 2 -1.02 2 0 2 C0 1.34 0 0.68 0 0 Z " fill="#32F1EA" transform="translate(110,238)"/>
<path d="M0 0 C0.99 0 1.98 0 3 0 C3.73080266 1.97746603 4.39421747 3.98072489 5 6 C4.67 6.66 4.34 7.32 4 8 C5.32 8 6.64 8 8 8 C8 8.66 8 9.32 8 10 C6.35 10 4.7 10 3 10 C1.875 6.25 1.875 6.25 3 4 C2.34 4 1.68 4 1 4 C0.67 2.68 0.34 1.36 0 0 Z " fill="#02F8EE" transform="translate(92,390)"/>
<path d="M0 0 C1.32 0 2.64 0 4 0 C4 1.98 4 3.96 4 6 C3.34 6 2.68 6 2 6 C1.67 7.32 1.34 8.64 1 10 C-0.60725635 6.78548731 -0.05748185 3.56387464 0 0 Z " fill="#1AF2F0" transform="translate(76,364)"/>
<path d="M0 0 C1.32 0 2.64 0 4 0 C4.1953125 6.0546875 4.1953125 6.0546875 4 8 C3.34 8.66 2.68 9.32 2 10 C2 8.68 2 7.36 2 6 C1.34 6 0.68 6 0 6 C0 4.02 0 2.04 0 0 Z " fill="#00F8F5" transform="translate(84,366)"/>
<path d="M0 0 C3.99452176 1.36955032 6.92159754 3.0926199 10 6 C10.8125 8.25 10.8125 8.25 11 10 C10.34 10 9.68 10 9 10 C9 9.34 9 8.68 9 8 C8.443125 7.773125 7.88625 7.54625 7.3125 7.3125 C4.35437642 5.633565 2.29781283 3.48929723 0 1 C0 0.67 0 0.34 0 0 Z " fill="#D53C6E" transform="translate(118,422)"/>
<path d="M0 0 C5.28 0 10.56 0 16 0 C16 0.33 16 0.66 16 1 C13.93827387 1.33808686 11.8755797 1.67027361 9.8125 2 C8.08966797 2.2784375 8.08966797 2.2784375 6.33203125 2.5625 C3.49584607 2.93489477 0.85280436 3.08596021 -2 3 C-1.34 2.67 -0.68 2.34 0 2 C0 1.34 0 0.68 0 0 Z " fill="#23D9C8" transform="translate(171,230)"/>
<path d="M0 0 C0 0.66 0 1.32 0 2 C-0.66 2 -1.32 2 -2 2 C-1.855625 2.5775 -1.71125 3.155 -1.5625 3.75 C-1.04166667 5.83333333 -0.52083333 7.91666667 0 10 C-4.875 5.375 -4.875 5.375 -6 2 C-3 0 -3 0 0 0 Z " fill="#111819" transform="translate(118,412)"/>
<path d="M0 0 C1.98 0 3.96 0 6 0 C4.25 5.75 4.25 5.75 2 8 C2 6.68 2 5.36 2 4 C1.34 4 0.68 4 0 4 C0 2.68 0 1.36 0 0 Z " fill="#1B0203" transform="translate(130,302)"/>
<path d="M0 0 C1.65 0 3.3 0 5 0 C3.7260411 2.03833424 2.38938077 4.03852126 1 6 C0.34 6 -0.32 6 -1 6 C-1 6.66 -1 7.32 -1 8 C-1.66 8 -2.32 8 -3 8 C-3 7.34 -3 6.68 -3 6 C-3.66 6 -4.32 6 -5 6 C-5 5.34 -5 4.68 -5 4 C-2.525 4.495 -2.525 4.495 0 5 C0 3.35 0 1.7 0 0 Z " fill="#340710" transform="translate(145,286)"/>
<path d="M0 0 C0.99 1.32 1.98 2.64 3 4 C2.34 4.66 1.68 5.32 1 6 C-1.45098556 5.60467975 -3.63904279 4.78698574 -6 4 C-6 3.34 -6 2.68 -6 2 C-4.02 1.34 -2.04 0.68 0 0 Z " fill="#F12A6E" transform="translate(332,224)"/>
<path d="M0 0 C3.465 1.98 3.465 1.98 7 4 C7 4.66 7 5.32 7 6 C6.34 6 5.68 6 5 6 C5 6.66 5 7.32 5 8 C4.34 8 3.68 8 3 8 C3 7.34 3 6.68 3 6 C2.01 5.67 1.02 5.34 0 5 C0 3.35 0 1.7 0 0 Z " fill="#31040C" transform="translate(147,366)"/>
<path d="M0 0 C0.66 0.99 1.32 1.98 2 3 C2.33 2.34 2.66 1.68 3 1 C3 2.32 3 3.64 3 5 C2.34 5 1.68 5 1 5 C0.67 6.32 0.34 7.64 0 9 C-0.99 9 -1.98 9 -3 9 C-2.30058404 5.85262818 -1.23921302 2.97411124 0 0 Z " fill="#28F5E8" transform="translate(81,273)"/>
<path d="M0 0 C2.75 0.25 2.75 0.25 5 1 C4.67 1.99 4.34 2.98 4 4 C0.9375 5.1875 0.9375 5.1875 -2 6 C-2.66 5.34 -3.32 4.68 -4 4 C-2.3125 1.9375 -2.3125 1.9375 0 0 Z " fill="#081111" transform="translate(117,265)"/>
<path d="M0 0 C1.32 0 2.64 0 4 0 C4.33 2.64 4.66 5.28 5 8 C2.525 7.01 2.525 7.01 0 6 C0 4.02 0 2.04 0 0 Z " fill="#190907" transform="translate(298,200)"/>
<path d="M0 0 C5.75 1.75 5.75 1.75 8 4 C6.68 4 5.36 4 4 4 C4.33 4.99 4.66 5.98 5 7 C3.0625 6.3125 3.0625 6.3125 1 5 C0.25 2.375 0.25 2.375 0 0 Z " fill="#D3215A" transform="translate(128,428)"/>
<path d="M0 0 C2.64 0 5.28 0 8 0 C6.1875 2.5 6.1875 2.5 4 5 C3.01 5 2.02 5 1 5 C0.67 3.35 0.34 1.7 0 0 Z " fill="#E52460" transform="translate(271,424)"/>
<path d="M0 0 C0.99 0 1.98 0 3 0 C2.34 1.98 1.68 3.96 1 6 C-0.32 6 -1.64 6 -3 6 C-3 6.66 -3 7.32 -3 8 C-3.66 8 -4.32 8 -5 8 C-5 6.68 -5 5.36 -5 4 C-3.35 4 -1.7 4 0 4 C0 2.68 0 1.36 0 0 Z " fill="#0D0107" transform="translate(235,382)"/>
<path d="M0 0 C1.5994614 3.19892281 2.42595236 5.35462576 3.125 8.75 C3.29257813 9.54921875 3.46015625 10.3484375 3.6328125 11.171875 C3.81457031 12.07679688 3.81457031 12.07679688 4 13 C2.68 13.33 1.36 13.66 0 14 C0 9.38 0 4.76 0 0 Z " fill="#2A070D" transform="translate(130,336)"/>
<path d="M0 0 C0.33 0 0.66 0 1 0 C1.43200679 4.75207471 -0.01510917 7.78210698 -2 12 C-2.99 12 -3.98 12 -5 12 C-4.54738642 10.56068883 -4.08767021 9.12361001 -3.625 7.6875 C-3.24214844 6.48673828 -3.24214844 6.48673828 -2.8515625 5.26171875 C-2 3 -2 3 0 0 Z " fill="#040F1A" transform="translate(101,286)"/>
<path d="M0 0 C0.99 0 1.98 0 3 0 C5.27678571 8.03571429 5.27678571 8.03571429 4 12 C4 11.34 4 10.68 4 10 C3.34 10 2.68 10 2 10 C1.7834375 8.63875 1.7834375 8.63875 1.5625 7.25 C1.13590527 4.78523044 0.64925779 2.41152893 0 0 Z " fill="#25040F" transform="translate(294,98)"/>
<path d="M0 0 C3.3 0.99 6.6 1.98 10 3 C10 3.33 10 3.66 10 4 C6.7 4.33 3.4 4.66 0 5 C0 3.35 0 1.7 0 0 Z " fill="#CD114A" transform="translate(136,432)"/>
<path d="M0 0 C2.38564077 0.57584432 4.66682784 1.22227595 7 2 C9.14255793 1.61067144 9.14255793 1.61067144 11 1 C10.67 2.65 10.34 4.3 10 6 C6.00452264 5.38531118 3.22493358 3.34540624 0 1 C0 0.67 0 0.34 0 0 Z " fill="#EB3974" transform="translate(316,220)"/>
<path d="M0 0 C1.32 0 2.64 0 4 0 C4 1.32 4 2.64 4 4 C4.66 4.33 5.32 4.66 6 5 C5.01 5.99 4.02 6.98 3 8 C0 2.25 0 2.25 0 0 Z " fill="#2CF3F2" transform="translate(78,374)"/>
<path d="M0 0 C1.96301592 3.50538557 2.95902388 7.13351728 4 11 C3.34 11.66 2.68 12.32 2 13 C1 10 1 10 1 6 C0.34 6 -0.32 6 -1 6 C-0.67 4.02 -0.34 2.04 0 0 Z " fill="#011513" transform="translate(91,308)"/>
<path d="M0 0 C1.4540625 0.0309375 1.4540625 0.0309375 2.9375 0.0625 C2.6075 1.3825 2.2775 2.7025 1.9375 4.0625 C0.2875 4.0625 -1.3625 4.0625 -3.0625 4.0625 C-3.3925 3.0725 -3.7225 2.0825 -4.0625 1.0625 C-3.0625 0.0625 -3.0625 0.0625 0 0 Z " fill="#FA024E" transform="translate(329.0625,221.9375)"/>
<path d="M0 0 C3.3 0 6.6 0 10 0 C9.67 1.32 9.34 2.64 9 4 C6.03 3.01 3.06 2.02 0 1 C0 0.67 0 0.34 0 0 Z " fill="#16DCCB" transform="translate(364,176)"/>
<path d="M0 0 C-0.99 0.66 -1.98 1.32 -3 2 C-3 2.99 -3 3.98 -3 5 C-4.32 4.34 -5.64 3.68 -7 3 C-7 2.01 -7 1.02 -7 0 C-4.3333581 -1.33332095 -2.83319697 -0.67102033 0 0 Z " fill="#2AE8D9" transform="translate(353,163)"/>
<path d="M0 0 C0.99 0.33 1.98 0.66 3 1 C3.33 1.99 3.66 2.98 4 4 C2.625 5.5 2.625 5.5 1 7 C0.34 7 -0.32 7 -1 7 C-1.04254356 5.00045254 -1.04080783 2.99958364 -1 1 C-0.67 0.67 -0.34 0.34 0 0 Z " fill="#160708" transform="translate(255,407)"/>
<path d="M0 0 C2.475 0.495 2.475 0.495 5 1 C5.33 1.99 5.66 2.98 6 4 C5.01 4.99 4.02 5.98 3 7 C2.01 4.69 1.02 2.38 0 0 Z " fill="#031215" transform="translate(96,390)"/>
<path d="M0 0 C1.65 0 3.3 0 5 0 C5 0.66 5 1.32 5 2 C7.97 2.495 7.97 2.495 11 3 C11 3.33 11 3.66 11 4 C5.62694301 4.35233161 5.62694301 4.35233161 3 4 C1 2 1 2 0 0 Z " fill="#60E2D7" transform="translate(158,374)"/>
<path d="M0 0 C0.99 0.33 1.98 0.66 3 1 C0.525 4.465 0.525 4.465 -2 8 C-2.99 7.34 -3.98 6.68 -5 6 C-3.35 4.02 -1.7 2.04 0 0 Z " fill="#11E8D7" transform="translate(109,270)"/>
<path d="M0 0 C3.465 1.485 3.465 1.485 7 3 C7 3.33 7 3.66 7 4 C5.35 4 3.7 4 2 4 C2 4.66 2 5.32 2 6 C0.68 6 -0.64 6 -2 6 C-2 5.34 -2 4.68 -2 4 C-1.01 4 -0.02 4 1 4 C1 3.34 1 2.68 1 2 C0.34 1.67 -0.32 1.34 -1 1 C-0.67 0.67 -0.34 0.34 0 0 Z " fill="#D7245D" transform="translate(314,214)"/>
<path d="M0 0 C2.28459758 2.28459758 2.97129748 4.12537344 4.125 7.125 C4.47820312 8.03507812 4.83140625 8.94515625 5.1953125 9.8828125 C5.46085937 10.58148438 5.72640625 11.28015625 6 12 C4.68 12 3.36 12 2 12 C1.33333333 8 0.66666667 4 0 0 Z " fill="#17D1C6" transform="translate(94,386)"/>
<path d="M0 0 C0.33 0 0.66 0 1 0 C1.33 2.64 1.66 5.28 2 8 C1.360625 8.12375 0.72125 8.2475 0.0625 8.375 C-0.618125 8.58125 -1.29875 8.7875 -2 9 C-2.33 9.66 -2.66 10.32 -3 11 C-3 9.68 -3 8.36 -3 7 C-2.34 7 -1.68 7 -1 7 C-0.67 4.69 -0.34 2.38 0 0 Z " fill="#58F2ED" transform="translate(231,339)"/>
<path d="M0 0 C1.98 0 3.96 0 6 0 C6 0.66 6 1.32 6 2 C2.77208445 4.1519437 1.71599191 4.20086443 -2 4 C-1.34 2.68 -0.68 1.36 0 0 Z " fill="#EB2F6A" transform="translate(162,302)"/>
<path d="M0 0 C1.98 0.66 3.96 1.32 6 2 C4.8125 3.5625 4.8125 3.5625 3 5 C0.3125 4.6875 0.3125 4.6875 -2 4 C-1.34 2.68 -0.68 1.36 0 0 Z " fill="#E92360" transform="translate(168,296)"/>
<path d="M0 0 C0.66 0 1.32 0 2 0 C1.34 1.98 0.68 3.96 0 6 C-0.66 6 -1.32 6 -2 6 C-2 6.66 -2 7.32 -2 8 C-2.66 8 -3.32 8 -4 8 C-4 6.68 -4 5.36 -4 4 C-3.34 4 -2.68 4 -2 4 C-2 3.34 -2 2.68 -2 2 C-1.34 2 -0.68 2 0 2 C0 1.34 0 0.68 0 0 Z " fill="#14EDEC" transform="translate(108,258)"/>
<path d="M0 0 C0.66 0 1.32 0 2 0 C2 0.66 2 1.32 2 2 C2.66 2 3.32 2 4 2 C4 2.66 4 3.32 4 4 C1.33333333 5.33333333 -1.33333333 6.66666667 -4 8 C-2.66666667 5.33333333 -1.33333333 2.66666667 0 0 Z " fill="#4BF4F1" transform="translate(90,258)"/>
<path d="M0 0 C0.66 0.33 1.32 0.66 2 1 C2 1.99 2 2.98 2 4 C1.01 4 0.02 4 -1 4 C-1 4.66 -1 5.32 -1 6 C-2.65 6 -4.3 6 -6 6 C-6 5.34 -6 4.68 -6 4 C-5.01 4 -4.02 4 -3 4 C-3 3.34 -3 2.68 -3 2 C-2.01 2 -1.02 2 0 2 C0 1.34 0 0.68 0 0 Z " fill="#44F4EB" transform="translate(118,232)"/>
<path d="M0 0 C2.475 0.99 2.475 0.99 5 2 C5 2.66 5 3.32 5 4 C3.68 4 2.36 4 1 4 C0.67 4.66 0.34 5.32 0 6 C0 5.34 0 4.68 0 4 C-1.32 3.67 -2.64 3.34 -4 3 C-2.68 2.67 -1.36 2.34 0 2 C0 1.34 0 0.68 0 0 Z " fill="#34F6F2" transform="translate(124,228)"/>
<path d="M0 0 C1.32 0 2.64 0 4 0 C4 0.66 4 1.32 4 2 C3.34 2 2.68 2 2 2 C2 2.66 2 3.32 2 4 C2.99 4 3.98 4 5 4 C5 4.66 5 5.32 5 6 C-0.75 4.25 -0.75 4.25 -3 2 C-2.01 2 -1.02 2 0 2 C0 1.34 0 0.68 0 0 Z " fill="#2E0207" transform="translate(318,212)"/>
<path d="M0 0 C2.31 0.33 4.62 0.66 7 1 C5.37660195 2.70884005 3.70680947 4.37446717 2 6 C1.34 6 0.68 6 0 6 C0 4.02 0 2.04 0 0 Z " fill="#EA2461" transform="translate(382,182)"/>
<path d="M0 0 C1.65 0 3.3 0 5 0 C5 0.66 5 1.32 5 2 C3.68 2 2.36 2 1 2 C1 4.31 1 6.62 1 9 C0.01 8.01 -0.98 7.02 -2 6 C-1.34 4.02 -0.68 2.04 0 0 Z " fill="#0C121C" transform="translate(105,398)"/>
<path d="M0 0 C2.32472205 2.85306797 3.7508258 5.54074837 5 9 C4.01 8.67 3.02 8.34 2 8 C2 7.34 2 6.68 2 6 C0.68 5.67 -0.64 5.34 -2 5 C-1.34 4.67 -0.68 4.34 0 4 C0 2.68 0 1.36 0 0 Z " fill="#D1396B" transform="translate(152,364)"/>
<path d="M0 0 C1.65 0 3.3 0 5 0 C5 1.32 5 2.64 5 4 C3.02 4 1.04 4 -1 4 C-0.67 2.68 -0.34 1.36 0 0 Z " fill="#02F7F6" transform="translate(109,242)"/>
<path d="M0 0 C-2.3129482 2.3129482 -3.47904875 2.49580975 -6.625 3.125 C-7.44226563 3.29257812 -8.25953125 3.46015625 -9.1015625 3.6328125 C-10.04128906 3.81457031 -10.04128906 3.81457031 -11 4 C-7.65667474 -0.27945633 -5.29105716 -0.4070044 0 0 Z " fill="#E54E80" transform="translate(237,450)"/>
<path d="M0 0 C0 0.66 0 1.32 0 2 C-2.64 2.66 -5.28 3.32 -8 4 C-8.33 3.01 -8.66 2.02 -9 1 C-6.04335481 -0.4783226 -3.25770263 -0.06032783 0 0 Z " fill="#400D19" transform="translate(230,430)"/>
<path d="M0 0 C2.64 0 5.28 0 8 0 C8.66 1.32 9.32 2.64 10 4 C6.7 3.01 3.4 2.02 0 1 C0 0.67 0 0.34 0 0 Z " fill="#17C6BC" transform="translate(178,390)"/>
<path d="M0 0 C0.99 0.33 1.98 0.66 3 1 C-2.41538462 5.06153846 -2.41538462 5.06153846 -5.375 4.75 C-5.91125 4.5025 -6.4475 4.255 -7 4 C-7 3.34 -7 2.68 -7 2 C-4.69 2 -2.38 2 0 2 C0 1.34 0 0.68 0 0 Z " fill="#1EDED0" transform="translate(230,382)"/>
<path d="M0 0 C2.97 0 5.94 0 9 0 C6.53721199 2.46278801 4.29323018 2.99771255 1 4 C0.67 2.68 0.34 1.36 0 0 Z " fill="#E6376F" transform="translate(174,294)"/>
<path d="M0 0 C1.65 0 3.3 0 5 0 C4.67 1.32 4.34 2.64 4 4 C2.35 4 0.7 4 -1 4 C-0.67 2.68 -0.34 1.36 0 0 Z " fill="#11EEEE" transform="translate(126,244)"/>
<path d="M0 0 C0.66 0 1.32 0 2 0 C0.50902342 3.7952131 -1.75700849 5.61042731 -5 8 C-5.33 7.01 -5.66 6.02 -6 5 C-4.68 4.67 -3.36 4.34 -2 4 C-2 3.34 -2 2.68 -2 2 C-1.34 2 -0.68 2 0 2 C0 1.34 0 0.68 0 0 Z " fill="#E1376F" transform="translate(284,416)"/>
<path d="M0 0 C0.66 0 1.32 0 2 0 C2.33 2.64 2.66 5.28 3 8 C2.34 8 1.68 8 1 8 C1 7.34 1 6.68 1 6 C0.34 6 -0.32 6 -1 6 C-1.33 4.68 -1.66 3.36 -2 2 C-1.34 2 -0.68 2 0 2 C0 1.34 0 0.68 0 0 Z " fill="#53F1F1" transform="translate(93,394)"/>
<path d="M0 0 C0.66 0 1.32 0 2 0 C2 1.98 2 3.96 2 6 C1.01 6.495 1.01 6.495 0 7 C-0.66 6.67 -1.32 6.34 -2 6 C-2 4.68 -2 3.36 -2 2 C-1.34 2 -0.68 2 0 2 C0 1.34 0 0.68 0 0 Z " fill="#110104" transform="translate(98,382)"/>
<path d="M0 0 C1.32 0 2.64 0 4 0 C3.49396008 2.16874252 3.00016187 3.99967627 2 6 C1.34 6 0.68 6 0 6 C0 4.02 0 2.04 0 0 Z " fill="#05F5E4" transform="translate(116,252)"/>
<path d="M0 0 C0.66 0 1.32 0 2 0 C2.33 1.32 2.66 2.64 3 4 C0.69 4.66 -1.62 5.32 -4 6 C-4 5.34 -4 4.68 -4 4 C-3.34 4 -2.68 4 -2 4 C-2 3.34 -2 2.68 -2 2 C-1.34 2 -0.68 2 0 2 C0 1.34 0 0.68 0 0 Z " fill="#3DF1E8" transform="translate(103,244)"/>
<path d="M0 0 C2.31 0 4.62 0 7 0 C4.94766315 2.2477975 3.99332739 3.0022242 1 4 C0.34 3.34 -0.32 2.68 -1 2 C-0.67 1.34 -0.34 0.68 0 0 Z " fill="#0EEADC" transform="translate(136,244)"/>
<path d="M0 0 C0.99 0.33 1.98 0.66 3 1 C2.01 1.495 2.01 1.495 1 2 C1 2.66 1 3.32 1 4 C-1.31 4 -3.62 4 -6 4 C-4.03617993 2.49440461 -2.21736634 1.10868317 0 0 Z " fill="#08212A" transform="translate(155,238)"/>
<path d="M0 0 C-3.44450737 2.29633824 -5.93812283 2.54016485 -10 3 C-9 1 -9 1 -6.6875 -0.1875 C-3.88010429 -1.03624754 -2.698065 -0.99928333 0 0 Z " fill="#00FDE9" transform="translate(142,225)"/>
<path d="M0 0 C2.31 0 4.62 0 7 0 C6.67 1.32 6.34 2.64 6 4 C4.02 3.34 2.04 2.68 0 2 C0 1.34 0 0.68 0 0 Z " fill="#F5034F" transform="translate(316,218)"/>
<path d="M0 0 C0.66 0 1.32 0 2 0 C2.66666667 2.66666667 3.33333333 5.33333333 4 8 C3.34 8 2.68 8 2 8 C2 7.34 2 6.68 2 6 C1.34 6 0.68 6 0 6 C-0.66 4.68 -1.32 3.36 -2 2 C-1.34 2 -0.68 2 0 2 C0 1.34 0 0.68 0 0 Z " fill="#DA0846" transform="translate(318,136)"/>
<path d="M0 0 C0.66 0.33 1.32 0.66 2 1 C2.33 1.99 2.66 2.98 3 4 C0.36 4 -2.28 4 -5 4 C-4.67 3.34 -4.34 2.68 -4 2 C-2.68 2 -1.36 2 0 2 C0 1.34 0 0.68 0 0 Z " fill="#DF084B" transform="translate(237,426)"/>
<path d="M0 0 C0.94875 0.04125 1.8975 0.0825 2.875 0.125 C2.875 1.445 2.875 2.765 2.875 4.125 C2.215 4.125 1.555 4.125 0.875 4.125 C0.875 3.465 0.875 2.805 0.875 2.125 C-1.105 2.125 -3.085 2.125 -5.125 2.125 C-3.125 0.125 -3.125 0.125 0 0 Z " fill="#0D1417" transform="translate(227.125,387.875)"/>
<path d="M0 0 C1.65 0 3.3 0 5 0 C5 1.32 5 2.64 5 4 C4.01 4 3.02 4 2 4 C2 3.34 2 2.68 2 2 C1.34 2 0.68 2 0 2 C0 1.34 0 0.68 0 0 Z " fill="#01F9F7" transform="translate(173,384)"/>
<path d="M0 0 C1.98 1.65 3.96 3.3 6 5 C5.67 5.66 5.34 6.32 5 7 C4.34 6.67 3.68 6.34 3 6 C3 5.34 3 4.68 3 4 C1.68 3.67 0.36 3.34 -1 3 C-0.67 2.01 -0.34 1.02 0 0 Z " fill="#131D2A" transform="translate(159,376)"/>
<path d="M0 0 C0.66 0 1.32 0 2 0 C2 1.32 2 2.64 2 4 C2.66 4 3.32 4 4 4 C4 5.32 4 6.64 4 8 C3.34 8 2.68 8 2 8 C0.23537317 4.91190305 0 3.76687864 0 0 Z " fill="#140007" transform="translate(92,308)"/>
<path d="M0 0 C2.64 0 5.28 0 8 0 C8 0.66 8 1.32 8 2 C2.25 3.125 2.25 3.125 0 2 C0 1.34 0 0.68 0 0 Z " fill="#EE084C" transform="translate(170,292)"/>
<path d="M0 0 C4.455 0.99 4.455 0.99 9 2 C5.77208445 4.1519437 4.71599191 4.20086443 1 4 C0.67 2.68 0.34 1.36 0 0 Z " fill="#E7457B" transform="translate(182,290)"/>
<path d="M0 0 C1.65 1.65 3.3 3.3 5 5 C3.35 5.33 1.7 5.66 0 6 C0 4.02 0 2.04 0 0 Z " fill="#1B0507" transform="translate(313,136)"/>
<path d="M0 0 C-0.66 1.32 -1.32 2.64 -2 4 C-2.66 4 -3.32 4 -4 4 C-4 3.34 -4 2.68 -4 2 C-5.65 2 -7.3 2 -9 2 C-5.86501708 0.14223235 -3.62528568 -0.20140476 0 0 Z " fill="#D30C49" transform="translate(210,438)"/>
<path d="M0 0 C2.50037734 2.17424117 3.43628586 3.73045798 4 7 C3.01 6.67 2.02 6.34 1 6 C1 5.01 1 4.02 1 3 C0.01 3 -0.98 3 -2 3 C-2 2.34 -2 1.68 -2 1 C-1.34 0.67 -0.68 0.34 0 0 Z " fill="#18DCDB" transform="translate(100,399)"/>
<path d="M0 0 C0.66 0 1.32 0 2 0 C2.66 1.98 3.32 3.96 4 6 C2.68 6 1.36 6 0 6 C0 4.02 0 2.04 0 0 Z " fill="#0EF0E5" transform="translate(84,296)"/>
<path d="M0 0 C0.66 1.32 1.32 2.64 2 4 C1.34 4.66 0.68 5.32 0 6 C-2.125 5.625 -2.125 5.625 -4 5 C-2.68 3.35 -1.36 1.7 0 0 Z " fill="#0C272E" transform="translate(112,270)"/>
<path d="M0 0 C0.66 0 1.32 0 2 0 C2 0.66 2 1.32 2 2 C2.66 2 3.32 2 4 2 C4 3.32 4 4.64 4 6 C3.34 6 2.68 6 2 6 C2 5.34 2 4.68 2 4 C1.01 3.67 0.02 3.34 -1 3 C-0.67 2.01 -0.34 1.02 0 0 Z " fill="#0CEFF6" transform="translate(92,262)"/>
<path d="M0 0 C2.31 0 4.62 0 7 0 C4.61426621 1.89213369 2.92824652 3.02391783 0 4 C-0.33 3.34 -0.66 2.68 -1 2 C-0.67 1.34 -0.34 0.68 0 0 Z " fill="#18E1D2" transform="translate(144,240)"/>
<path d="M0 0 C5.445 1.485 5.445 1.485 11 3 C6.63101344 4.09224664 4.01058148 4.00529074 0 2 C0 1.34 0 0.68 0 0 Z " fill="#081623" transform="translate(367,178)"/>
<path d="M0 0 C3.465 1.485 3.465 1.485 7 3 C7 3.33 7 3.66 7 4 C4.69 4 2.38 4 0 4 C-0.33 3.34 -0.66 2.68 -1 2 C-0.67 1.34 -0.34 0.68 0 0 Z " fill="#04191F" transform="translate(359,174)"/>
<path d="" fill="#CBFFF4" transform="translate(0,0)"/>
<path d="" fill="#C1FDE4" transform="translate(0,0)"/>
<path d="" fill="#CAFFFF" transform="translate(0,0)"/>
<path d="" fill="#CCFFF9" transform="translate(0,0)"/>
</svg>
