<?xml version="1.0" encoding="UTF-8"?>
<svg version="1.1" xmlns="http://www.w3.org/2000/svg" width="500" height="502">
<path d="M0 0 C0.99864075 0.00304138 1.99728149 0.00608276 3.02618408 0.00921631 C19.09950412 0.08129972 34.55946972 1.00986599 50.3125 4.4375 C51.83593018 4.75895996 51.83593018 4.75895996 53.39013672 5.08691406 C88.81275567 12.73833341 122.84975677 27.87659029 151.3125 50.4375 C152.56546875 51.40236328 152.56546875 51.40236328 153.84375 52.38671875 C169.74559128 64.79116139 185.09352801 79.37386051 197.3125 95.4375 C197.92955811 96.23196533 197.92955811 96.23196533 198.55908203 97.04248047 C232.33277707 140.63716118 250.10358966 194.12536829 249.75 249.125 C249.74729095 250.1223114 249.74458191 251.1196228 249.74179077 252.14715576 C249.67587848 268.21403885 248.72399035 283.68787899 245.3125 299.4375 C245.12526367 300.32888672 244.93802734 301.22027344 244.74511719 302.13867188 C243.48921642 307.97351309 241.99330606 313.71142293 240.3125 319.4375 C240.07192871 320.2634668 239.83135742 321.08943359 239.58349609 321.94042969 C229.49533793 355.8444262 211.85545427 387.08721023 188.3125 413.4375 C187.84956543 413.95683105 187.38663086 414.47616211 186.90966797 415.01123047 C177.68430216 425.31368561 168.19597522 434.8696578 157.3125 443.4375 C155.7965625 444.6440625 155.7965625 444.6440625 154.25 445.875 C121.90743588 471.38462804 84.67547729 487.5907314 44.3125 495.4375 C43.05566406 495.68741699 43.05566406 495.68741699 41.7734375 495.94238281 C14.74415561 501.05803452 -16.74076356 500.94460938 -43.6875 495.4375 C-45.15848145 495.13948486 -45.15848145 495.13948486 -46.65917969 494.83544922 C-64.43927172 491.11384011 -83.00459686 486.70053017 -99.1171875 478.1171875 C-100.19484375 477.55080566 -101.2725 476.98442383 -102.3828125 476.40087891 C-104.42830023 475.29866508 -106.44988185 474.15021802 -108.4375 472.94677734 C-114.55141465 469.62847932 -118.91616985 469.21146574 -125.58374023 470.92626953 C-126.3588284 471.11227407 -127.13391657 471.29827862 -127.93249226 471.48991966 C-130.5228676 472.11924636 -133.10521684 472.77579173 -135.6875 473.4375 C-137.039184 473.77901344 -137.039184 473.77901344 -138.41817474 474.12742615 C-145.53405636 475.92852542 -152.63282862 477.79259909 -159.73046875 479.6640625 C-161.99718669 480.25917456 -164.26397786 480.85400776 -166.53083801 481.44857788 C-171.24350801 482.68536458 -175.9556068 483.92429462 -180.66723633 485.16503906 C-186.69627223 486.75269951 -192.7262539 488.33673015 -198.75660229 489.91939735 C-204.53985471 491.4373226 -210.3226992 492.95679885 -216.10546875 494.4765625 C-217.20005087 494.76414051 -218.29463299 495.05171852 -219.42238426 495.34801102 C-222.52294114 496.16296955 -225.62321289 496.97900326 -228.72338867 497.79541016 C-230.08790916 498.15390297 -230.08790916 498.15390297 -231.47999573 498.51963806 C-235.20957338 499.50284377 -238.92815383 500.5001309 -242.62666321 501.59481812 C-245.48696239 502.3822898 -247.74290189 502.61596049 -250.6875 502.4375 C-249.99883463 496.45967979 -248.54969775 490.83458483 -246.94140625 485.04296875 C-246.6580542 484.01078217 -246.37470215 482.97859558 -246.08276367 481.91513062 C-245.46522206 479.66654506 -244.84602556 477.41841349 -244.22537231 475.17068481 C-243.23597302 471.57400896 -242.25998103 467.97391585 -241.28686523 464.37280273 C-237.91241345 451.92732541 -234.44614528 439.52224217 -230.74598694 427.16941833 C-229.19042547 421.97178265 -227.6744734 416.7628139 -226.16729641 411.55096531 C-225.11692037 407.92921992 -224.0453008 404.31678998 -222.92214966 400.71688843 C-216.85918927 383.9793324 -216.85918927 383.9793324 -218.83787537 367.09934998 C-220.56888244 364.01277759 -222.55581209 361.26472217 -224.6875 358.4375 C-225.99829102 355.84204102 -225.99829102 355.84204102 -226.9375 353.5625 C-227.23164795 352.88082764 -227.5257959 352.19915527 -227.82885742 351.49682617 C-235.68435855 332.65657822 -241.83204373 313.49185006 -245.6875 293.4375 C-245.85121094 292.64988281 -246.01492187 291.86226563 -246.18359375 291.05078125 C-258.19053353 231.80992961 -242.88028044 165.11301894 -210.31152344 114.86962891 C-202.87600188 103.73423117 -194.88375628 93.17252685 -185.6875 83.4375 C-184.55720833 82.12955429 -183.43206689 80.81713752 -182.3125 79.5 C-174.51394668 70.58736763 -166.01046532 62.7250877 -156.6875 55.4375 C-155.43089401 54.42850443 -154.17439006 53.41938178 -152.91796875 52.41015625 C-124.7567057 30.05936037 -90.93294738 13.96637682 -55.9375 5.75 C-54.74483521 5.46443237 -54.74483521 5.46443237 -53.52807617 5.1730957 C-35.82440103 1.22843269 -18.09479375 -0.11799385 0 0 Z " fill="#40C351" transform="translate(250.6875,-0.4375)"/>
<path d="M0 0 C0.99864075 0.00304138 1.99728149 0.00608276 3.02618408 0.00921631 C19.09950412 0.08129972 34.55946972 1.00986599 50.3125 4.4375 C51.83593018 4.75895996 51.83593018 4.75895996 53.39013672 5.08691406 C88.81275567 12.73833341 122.84975677 27.87659029 151.3125 50.4375 C152.56546875 51.40236328 152.56546875 51.40236328 153.84375 52.38671875 C169.74559128 64.79116139 185.09352801 79.37386051 197.3125 95.4375 C197.92955811 96.23196533 197.92955811 96.23196533 198.55908203 97.04248047 C232.33277707 140.63716118 250.10358966 194.12536829 249.75 249.125 C249.74729095 250.1223114 249.74458191 251.1196228 249.74179077 252.14715576 C249.67587848 268.21403885 248.72399035 283.68787899 245.3125 299.4375 C245.12526367 300.32888672 244.93802734 301.22027344 244.74511719 302.13867188 C243.48921642 307.97351309 241.99330606 313.71142293 240.3125 319.4375 C240.07192871 320.2634668 239.83135742 321.08943359 239.58349609 321.94042969 C229.49533793 355.8444262 211.85545427 387.08721023 188.3125 413.4375 C187.84956543 413.95683105 187.38663086 414.47616211 186.90966797 415.01123047 C177.68430216 425.31368561 168.19597522 434.8696578 157.3125 443.4375 C155.7965625 444.6440625 155.7965625 444.6440625 154.25 445.875 C121.90743588 471.38462804 84.67547729 487.5907314 44.3125 495.4375 C43.05566406 495.68741699 43.05566406 495.68741699 41.7734375 495.94238281 C14.74415561 501.05803452 -16.74076356 500.94460938 -43.6875 495.4375 C-45.15848145 495.13948486 -45.15848145 495.13948486 -46.65917969 494.83544922 C-64.43927172 491.11384011 -83.00459686 486.70053017 -99.1171875 478.1171875 C-100.19484375 477.55080566 -101.2725 476.98442383 -102.3828125 476.40087891 C-104.42830023 475.29866508 -106.44988185 474.15021802 -108.4375 472.94677734 C-114.55141465 469.62847932 -118.91616985 469.21146574 -125.58374023 470.92626953 C-126.3588284 471.11227407 -127.13391657 471.29827862 -127.93249226 471.48991966 C-130.5228676 472.11924636 -133.10521684 472.77579173 -135.6875 473.4375 C-137.039184 473.77901344 -137.039184 473.77901344 -138.41817474 474.12742615 C-145.53405636 475.92852542 -152.63282862 477.79259909 -159.73046875 479.6640625 C-161.99718669 480.25917456 -164.26397786 480.85400776 -166.53083801 481.44857788 C-171.24350801 482.68536458 -175.9556068 483.92429462 -180.66723633 485.16503906 C-186.69627223 486.75269951 -192.7262539 488.33673015 -198.75660229 489.91939735 C-204.53985471 491.4373226 -210.3226992 492.95679885 -216.10546875 494.4765625 C-217.20005087 494.76414051 -218.29463299 495.05171852 -219.42238426 495.34801102 C-222.52294114 496.16296955 -225.62321289 496.97900326 -228.72338867 497.79541016 C-230.08790916 498.15390297 -230.08790916 498.15390297 -231.47999573 498.51963806 C-235.20957338 499.50284377 -238.92815383 500.5001309 -242.62666321 501.59481812 C-245.48696239 502.3822898 -247.74290189 502.61596049 -250.6875 502.4375 C-249.99883463 496.45967979 -248.54969775 490.83458483 -246.94140625 485.04296875 C-246.6580542 484.01078217 -246.37470215 482.97859558 -246.08276367 481.91513062 C-245.46522206 479.66654506 -244.84602556 477.41841349 -244.22537231 475.17068481 C-243.23597302 471.57400896 -242.25998103 467.97391585 -241.28686523 464.37280273 C-237.91241345 451.92732541 -234.44614528 439.52224217 -230.74598694 427.16941833 C-229.19042547 421.97178265 -227.6744734 416.7628139 -226.16729641 411.55096531 C-225.11692037 407.92921992 -224.0453008 404.31678998 -222.92214966 400.71688843 C-216.85918927 383.9793324 -216.85918927 383.9793324 -218.83787537 367.09934998 C-220.56888244 364.01277759 -222.55581209 361.26472217 -224.6875 358.4375 C-225.99829102 355.84204102 -225.99829102 355.84204102 -226.9375 353.5625 C-227.23164795 352.88082764 -227.5257959 352.19915527 -227.82885742 351.49682617 C-235.68435855 332.65657822 -241.83204373 313.49185006 -245.6875 293.4375 C-245.85121094 292.64988281 -246.01492187 291.86226563 -246.18359375 291.05078125 C-258.19053353 231.80992961 -242.88028044 165.11301894 -210.31152344 114.86962891 C-202.87600188 103.73423117 -194.88375628 93.17252685 -185.6875 83.4375 C-184.55720833 82.12955429 -183.43206689 80.81713752 -182.3125 79.5 C-174.51394668 70.58736763 -166.01046532 62.7250877 -156.6875 55.4375 C-155.43089401 54.42850443 -154.17439006 53.41938178 -152.91796875 52.41015625 C-124.7567057 30.05936037 -90.93294738 13.96637682 -55.9375 5.75 C-54.74483521 5.46443237 -54.74483521 5.46443237 -53.52807617 5.1730957 C-35.82440103 1.22843269 -18.09479375 -0.11799385 0 0 Z M-153.72900391 111.28808594 C-158.90146246 116.96476571 -163.37605298 123.09304898 -167.6875 129.4375 C-168.42709961 130.51523682 -168.42709961 130.51523682 -169.18164062 131.61474609 C-199.69208706 176.54813464 -210.90255839 232.30386098 -200.8671875 285.71875 C-200.4795123 287.62613727 -200.08661638 289.53247392 -199.6875 291.4375 C-199.4385498 292.68660156 -199.4385498 292.68660156 -199.18457031 293.9609375 C-194.77825387 315.42084195 -185.20405695 341.1570734 -170.875 358 C-168.84431606 360.95321072 -168.66148906 362.16165555 -169.00390625 365.79296875 C-169.75966685 369.31138365 -170.82778663 372.71787128 -171.94482422 376.13623047 C-172.96521241 379.29802505 -173.86745633 382.48934326 -174.77319336 385.68554688 C-175.26221703 387.4110103 -175.75662095 389.13495697 -176.25610352 390.85742188 C-178.7715542 399.56070867 -181.02249872 408.32905876 -183.23950195 417.11254883 C-184.66428774 422.70792724 -186.17865259 428.19365113 -188.14770508 433.62402344 C-188.83014373 435.60136953 -188.83014373 435.60136953 -188.6875 438.4375 C-187.74277832 438.20095703 -186.79805664 437.96441406 -185.82470703 437.72070312 C-179.21344766 436.06621917 -172.60152607 434.41455985 -165.98651123 432.77514648 C-162.94687663 432.02158229 -159.90774663 431.26599385 -156.86865234 430.51025391 C-155.32784453 430.12758027 -153.78682754 429.74574788 -152.24560547 429.36474609 C-143.31803116 427.15689192 -134.43885373 424.86083096 -125.60986328 422.2824707 C-111.84379424 418.30215617 -111.84379424 418.30215617 -104.70703125 421.96875 C-103.64871094 422.6184375 -102.59039062 423.268125 -101.5 423.9375 C-89.66118561 430.98545346 -76.89393845 437.42169795 -63.6875 441.4375 C-62.94226074 441.6653418 -62.19702148 441.89318359 -61.42919922 442.12792969 C-58.72971523 442.94102107 -56.02291059 443.72414526 -53.3125 444.5 C-52.48194092 444.74580811 -51.65138184 444.99161621 -50.7956543 445.24487305 C-33.60375798 449.99939971 -15.93643412 451.05189529 1.8125 451 C3.30737946 450.99977341 3.30737946 450.99977341 4.8324585 450.99954224 C29.23876271 450.92719586 51.62129421 446.62687895 74.3125 437.4375 C75.01084961 437.15793457 75.70919922 436.87836914 76.42871094 436.59033203 C128.48747793 415.48842293 168.55020155 374.88040509 190.40649414 323.31762695 C193.64277083 315.45415664 196.34854361 307.50513802 198.625 299.3125 C198.85525879 298.49185059 199.08551758 297.67120117 199.32275391 296.82568359 C203.57351222 280.72394833 204.77764023 265.24452519 204.64868164 248.63891602 C204.62480574 245.3482256 204.62818265 242.05833496 204.63476562 238.76757812 C204.62919542 236.64582856 204.6220897 234.52408234 204.61328125 232.40234375 C204.61464836 230.94899879 204.61464836 230.94899879 204.61604309 229.46629333 C204.56172712 224.21113015 204.07499973 219.41515923 202.78062439 214.31564331 C202.14742313 211.77520162 201.86772113 209.22301318 201.5625 206.625 C196.10916873 170.5491162 176.86820757 136.23477045 152.390625 109.703125 C150.49431669 107.6357212 148.68220394 105.51999907 146.875 103.375 C134.88080712 89.72174643 119.08755029 78.34219468 103.3125 69.4375 C102.33700195 68.87216553 102.33700195 68.87216553 101.34179688 68.29541016 C91.33189154 62.53206105 81.07476938 57.96823441 70.25 53.9375 C68.55593018 53.30545654 68.55593018 53.30545654 66.82763672 52.66064453 C61.09912914 50.59180491 55.51979376 48.87756108 49.5090332 47.86328125 C47.11678348 47.39956184 44.8757408 46.69879772 42.5625 45.9375 C-28.76206132 26.47636623 -105.1058585 59.9199937 -153.72900391 111.28808594 Z " fill="#FEFEFE" transform="translate(250.6875,-0.4375)"/>
<path d="M0 0 C1.16499023 -0.01740234 1.16499023 -0.01740234 2.35351562 -0.03515625 C8.59137401 -0.00346518 12.80683418 1.35086747 17.4375 5.75 C24.11489135 14.38122611 27.62874854 26.09660492 31.375 36.26953125 C31.89572119 37.67972891 32.41655636 39.0898845 32.9375 40.5 C33.19426514 41.19923584 33.45103027 41.89847168 33.71557617 42.61889648 C35.02581101 46.13557849 36.41922901 49.47458427 38.25 52.75 C40.73508437 58.08832938 41.83805425 62.90641364 40.33203125 68.70703125 C36.45830467 77.65667542 28.7848969 85.5276031 21.9375 92.375 C21.34660453 98.92468473 22.49583836 102.48603734 26.125 107.875 C26.79450684 108.90149658 26.79450684 108.90149658 27.47753906 109.94873047 C45.7459728 137.35138107 69.50826679 157.04165265 98.9375 171.4375 C99.72672852 171.83211426 100.51595703 172.22672852 101.32910156 172.63330078 C106.024235 174.86104274 109.62966335 176.01537333 114.9375 175.375 C121.90785145 170.81746251 126.59669726 163.67100722 131.59619141 157.12158203 C133.55174196 154.57516618 135.5546649 152.06778797 137.5625 149.5625 C138.19414062 148.77230469 138.82578125 147.98210937 139.4765625 147.16796875 C141.73069579 144.40153243 141.73069579 144.40153243 145.1953125 143.95703125 C151.6504749 144.05587861 157.12600352 147.28742999 162.8125 150.0625 C164.03849443 150.64864276 165.26498402 151.23375085 166.49194336 151.81787109 C169.67681531 153.34052769 172.85068857 154.88471973 176.02105713 156.43731689 C177.92295862 157.36788515 179.82713513 158.2936399 181.73193359 159.21826172 C185.32778476 160.96584257 188.915192 162.72986503 192.5 164.5 C193.60520996 165.04358154 194.71041992 165.58716309 195.84912109 166.1472168 C197.37980225 166.91352417 197.37980225 166.91352417 198.94140625 167.6953125 C199.83674072 168.14148926 200.7320752 168.58766602 201.65454102 169.04736328 C203.84154953 170.31920077 205.36074742 171.40477094 206.9375 173.375 C208.73778506 184.94183152 206.04857143 197.57592033 200.0078125 207.56640625 C191.10987437 219.6373827 176.65930943 229.28131107 161.72265625 231.94921875 C118.60600629 236.79928567 73.02100785 214.53002453 39.9375 188.375 C39.38384766 187.93994141 38.83019531 187.50488281 38.25976562 187.05664062 C24.09874459 175.82188224 10.88716866 162.75870454 -0.0625 148.375 C-1.03779944 147.13832576 -2.01447107 145.902733 -2.9921875 144.66796875 C-15.34869616 128.94013496 -26.80803093 112.64702863 -35.0625 94.375 C-35.55234375 93.34375 -36.0421875 92.3125 -36.546875 91.25 C-44.3062062 74.08818511 -45.58674212 54.39366894 -40.0625 36.375 C-34.83453919 22.78621797 -26.16154428 8.61897579 -12.91796875 1.7421875 C-8.63115275 -0.02190635 -4.58392296 -0.06881619 0 0 Z " fill="#FDFEFD" transform="translate(169.0625,131.625)"/>
<path d="M0 0 C3.79337922 2.09939568 6.69944901 4.44251006 9.765625 7.5 C11.10173828 8.83224609 11.10173828 8.83224609 12.46484375 10.19140625 C13.38394531 11.11824219 14.30304688 12.04507813 15.25 13 C16.15363281 13.89589844 17.05726563 14.79179688 17.98828125 15.71484375 C24.08690926 21.83102176 29.66700795 28.20832083 35 35 C35.50772949 35.64308105 36.01545898 36.28616211 36.53857422 36.94873047 C70.24294484 80.2935698 87.78916211 133.98769164 87.4375 188.6875 C87.43479095 189.6848114 87.43208191 190.6821228 87.42929077 191.70965576 C87.36337848 207.77653885 86.41149035 223.25037899 83 239 C82.81276367 239.89138672 82.62552734 240.78277344 82.43261719 241.70117188 C81.17671642 247.53601309 79.68080606 253.27392293 78 259 C77.75942871 259.8259668 77.51885742 260.65193359 77.27099609 261.50292969 C67.18283793 295.4069262 49.54295427 326.64971023 26 353 C25.53706543 353.51933105 25.07413086 354.03866211 24.59716797 354.57373047 C15.37180216 364.87618561 5.88347522 374.4321578 -5 383 C-6.5159375 384.2065625 -6.5159375 384.2065625 -8.0625 385.4375 C-40.40506412 410.94712804 -77.63702271 427.1532314 -118 435 C-119.25683594 435.24991699 -119.25683594 435.24991699 -120.5390625 435.50488281 C-147.56834439 440.62053452 -179.05326356 440.50710938 -206 435 C-207.47098145 434.70198486 -207.47098145 434.70198486 -208.97167969 434.39794922 C-226.75177172 430.67634011 -245.31709686 426.26303017 -261.4296875 417.6796875 C-262.50734375 417.11330566 -263.585 416.54692383 -264.6953125 415.96337891 C-266.74080023 414.86116508 -268.76238185 413.71271802 -270.75 412.50927734 C-276.86391465 409.19097932 -281.22866985 408.77396574 -287.89624023 410.48876953 C-288.6713284 410.67477407 -289.44641657 410.86077862 -290.24499226 411.05241966 C-292.8353676 411.68174636 -295.41771684 412.33829173 -298 413 C-299.351684 413.34151344 -299.351684 413.34151344 -300.73067474 413.68992615 C-307.84655636 415.49102542 -314.94532862 417.35509909 -322.04296875 419.2265625 C-324.30968669 419.82167456 -326.57647786 420.41650776 -328.84333801 421.01107788 C-333.55600801 422.24786458 -338.2681068 423.48679462 -342.97973633 424.72753906 C-349.00877223 426.31519951 -355.0387539 427.89923015 -361.06910229 429.48189735 C-366.85235471 430.9998226 -372.6351992 432.51929885 -378.41796875 434.0390625 C-379.51255087 434.32664051 -380.60713299 434.61421852 -381.73488426 434.91051102 C-384.83544114 435.72546955 -387.93571289 436.54150326 -391.03588867 437.35791016 C-392.40040916 437.71640297 -392.40040916 437.71640297 -393.79249573 438.08213806 C-397.52207338 439.06534377 -401.24065383 440.0626309 -404.93916321 441.15731812 C-407.79946239 441.9447898 -410.05540189 442.17846049 -413 442 C-412.31133463 436.02217979 -410.86219775 430.39708483 -409.25390625 424.60546875 C-408.9705542 423.57328217 -408.68720215 422.54109558 -408.39526367 421.47763062 C-407.77772206 419.22904506 -407.15852556 416.98091349 -406.53787231 414.73318481 C-405.54847302 411.13650896 -404.57248103 407.53641585 -403.59936523 403.93530273 C-400.22491345 391.48982541 -396.75864528 379.08474217 -393.05848694 366.73191833 C-391.50292547 361.53428265 -389.9869734 356.3253139 -388.47979641 351.11346531 C-387.42942037 347.49171992 -386.3578008 343.87928998 -385.23464966 340.27938843 C-379.17168927 323.5418324 -379.17168927 323.5418324 -381.15037537 306.66184998 C-382.88138244 303.57527759 -384.86831209 300.82722217 -387 298 C-388.31079102 295.40454102 -388.31079102 295.40454102 -389.25 293.125 C-389.54414795 292.44332764 -389.8382959 291.76165527 -390.14135742 291.05932617 C-397.99685855 272.21907822 -404.14454373 253.05435006 -408 233 C-408.16371094 232.21238281 -408.32742188 231.42476562 -408.49609375 230.61328125 C-420.50303353 171.37242961 -405.19278044 104.67551894 -372.62402344 54.43212891 C-365.18850188 43.29673117 -357.19625628 32.73502685 -348 23 C-346.86970833 21.69205429 -345.74456689 20.37963752 -344.625 19.0625 C-340.03099932 13.77342593 -334.99117421 8.90994353 -330 4 C-329.01 4.495 -329.01 4.495 -328 5 C-328.46784912 5.45737549 -328.93569824 5.91475098 -329.41772461 6.38598633 C-342.38554855 19.08475921 -342.38554855 19.08475921 -354 33 C-354.62865967 33.82201904 -354.62865967 33.82201904 -355.27001953 34.66064453 C-369.38325674 53.15542573 -381.62856454 73.23426781 -390 95 C-390.40605469 95.97324219 -390.81210937 96.94648438 -391.23046875 97.94921875 C-394.51692868 106.00862972 -396.74599563 114.193417 -398.87109375 122.61328125 C-399.70414299 125.90726493 -400.63805778 129.14229608 -401.6875 132.375 C-412.93191858 169.64582564 -409.59516429 216.36381315 -398 253 C-397.71769531 254.02351562 -397.43539063 255.04703125 -397.14453125 256.1015625 C-392.67789453 271.99691759 -386.49590302 288.44522884 -377.5168457 302.34667969 C-375.27276537 306.11133085 -374.77004294 308.48243339 -375.59375 312.828125 C-376.03728723 314.55874155 -376.50659956 316.28293422 -377 318 C-377.21301758 318.83152588 -377.42603516 319.66305176 -377.64550781 320.51977539 C-378.31639076 323.12661329 -379.02805768 325.71936251 -379.75 328.3125 C-380.01312988 329.26833984 -380.27625977 330.22417969 -380.54736328 331.20898438 C-382.51634399 338.33437257 -384.55792517 345.4380281 -386.60839844 352.5402832 C-389.02804813 360.98180882 -391.27238661 369.46892514 -393.51794434 377.95803833 C-395.85859762 386.80135189 -398.28848822 395.61027068 -400.83837891 404.39526367 C-403.76497732 414.54154439 -406.37925651 424.77123536 -409 435 C-395.19386545 431.95986128 -381.43391111 428.72839746 -367.7890625 425.02734375 C-363.44834552 423.8504277 -359.10003315 422.70439471 -354.75 421.5625 C-353.12499331 421.13544211 -351.49999335 420.70835864 -349.875 420.28125 C-348.66070312 419.96220703 -348.66070312 419.96220703 -347.421875 419.63671875 C-345.07268394 419.01910884 -342.72378492 418.40040249 -340.375 417.78125 C-330.78180909 415.2529302 -321.18641996 412.73316393 -311.58300781 410.24389648 C-306.90083609 409.02834786 -302.22572955 407.79427925 -297.5625 406.5078125 C-296.70720703 406.27449219 -295.85191406 406.04117187 -294.97070312 405.80078125 C-293.37884294 405.36537918 -291.78881693 404.92318594 -290.20117188 404.47265625 C-281.00968518 401.97416032 -275.45597452 403.31708983 -267.125 407.625 C-257.93401392 412.18992078 -248.75961567 415.86591899 -239 419 C-237.41445313 419.53173828 -237.41445313 419.53173828 -235.796875 420.07421875 C-225.70082209 423.34896412 -215.38244254 425.82523608 -205 428 C-204.1961084 428.16951172 -203.3922168 428.33902344 -202.56396484 428.51367188 C-175.63055573 433.87477169 -145.40648276 432.91523647 -118.58300781 427.51269531 C-116.1933293 427.03837349 -113.8040614 426.62602991 -111.3984375 426.2421875 C-102.2049451 424.74201655 -93.74932665 422.11593826 -85 419 C-83.54219644 418.52311704 -82.08383159 418.04794754 -80.625 417.57421875 C-55.05013555 409.07904307 -31.06655794 395.73655113 -10 379 C-9.11570312 378.30777344 -8.23140625 377.61554688 -7.3203125 376.90234375 C3.20557872 368.49688569 13.45017771 359.43873652 22 349 C22.71929687 348.16855469 23.43859375 347.33710938 24.1796875 346.48046875 C36.24589828 332.39037277 46.46216339 317.46635529 55 301 C55.36996094 300.29568848 55.73992187 299.59137695 56.12109375 298.86572266 C60.15759528 291.15722575 63.8079654 283.44385596 66.796875 275.2578125 C67.79342619 272.55935895 68.8592719 269.91551829 69.95703125 267.2578125 C86.96050074 224.832295 87.66065818 173.08978088 77 129 C76.83806152 128.30100586 76.67612305 127.60201172 76.50927734 126.88183594 C68.92880205 94.418083 54.13080706 64.48558137 34 38 C33.53964355 37.3901123 33.07928711 36.78022461 32.60498047 36.15185547 C18.37612748 16.64800351 18.37612748 16.64800351 0 2 C0 1.34 0 0.68 0 0 Z " fill="#E0E0E0" transform="translate(413,60)"/>
<path d="M0 0 C-3.95706104 1.17101244 -7.91584968 2.33607272 -11.875 3.5 C-13.00292969 3.83386719 -14.13085938 4.16773438 -15.29296875 4.51171875 C-16.90751953 4.98544922 -16.90751953 4.98544922 -18.5546875 5.46875 C-19.54968262 5.76201172 -20.54467773 6.05527344 -21.56982422 6.35742188 C-24 7 -24 7 -26 7 C-25.25 2.25 -25.25 2.25 -23 0 C-23 1.32 -23 2.64 -23 4 C-22.44538086 3.84329834 -21.89076172 3.68659668 -21.31933594 3.52514648 C-18.79893139 2.8191486 -16.27463692 2.12820255 -13.75 1.4375 C-12.87730469 1.19064453 -12.00460938 0.94378906 -11.10546875 0.68945312 C-9.83896484 0.34624023 -9.83896484 0.34624023 -8.546875 -0.00390625 C-7.77182617 -0.21861572 -6.99677734 -0.4333252 -6.19824219 -0.65454102 C-3.80975982 -1.0298967 -2.279036 -0.74681558 0 0 Z " fill="#23B239" transform="translate(88,431)"/>
<path d="M0 0 C-0.33 6.93 -0.66 13.86 -1 21 C-1.33 21 -1.66 21 -2 21 C-2.33 17.37 -2.66 13.74 -3 10 C-3.33 10 -3.66 10 -4 10 C-4.36814024 3.49618902 -4.36814024 3.49618902 -2.5625 1.0625 C-1 0 -1 0 0 0 Z " fill="#E7E7E7" transform="translate(7,215)"/>
<path d="M0 0 C0.99 0.33 1.98 0.66 3 1 C2.01 1.66 1.02 2.32 0 3 C0 2.01 0 1.02 0 0 Z " fill="#55CF62" transform="translate(116,92)"/>
<path d="M0 0 C0 0.33 0 0.66 0 1 C-4.40914783 2.10228696 -8.48382401 2.07654536 -13 2 C-13 1.67 -13 1.34 -13 1 C-8.20862412 -0.6290678 -4.94367454 -1.20577428 0 0 Z " fill="#6CCC7B" transform="translate(281,448)"/>
</svg>
