<?xml version="1.0" encoding="UTF-8"?>
<svg version="1.1" xmlns="http://www.w3.org/2000/svg" width="325" height="325">
<path d="M0 0 C1.15086594 -0.00855011 1.15086594 -0.00855011 2.32498169 -0.01727295 C3.94352875 -0.02666225 5.56209441 -0.03323256 7.18066406 -0.03710938 C9.59216186 -0.04671311 12.00276761 -0.07775146 14.4140625 -0.109375 C55.39337649 -0.38942542 94.3773077 17.04477098 123.7578125 45.203125 C125.05912109 46.4096875 125.05912109 46.4096875 126.38671875 47.640625 C138.68698132 59.39848624 148.01580526 73.11418842 155.7578125 88.203125 C156.07588867 88.81478516 156.39396484 89.42644531 156.72167969 90.05664062 C166.51045677 109.10230722 172.83269052 130.97245288 172.9609375 152.4453125 C172.96663757 153.21255646 172.97233765 153.97980042 172.97821045 154.77029419 C172.98759975 156.38884125 172.99417006 158.00740691 172.99804688 159.62597656 C173.00765061 162.03747436 173.03868896 164.44808011 173.0703125 166.859375 C173.17003515 181.35456261 171.38829671 195.46764589 167.0078125 209.328125 C166.75177246 210.15594482 166.49573242 210.98376465 166.23193359 211.83666992 C163.66081275 219.90571193 160.45302492 227.59023932 156.7578125 235.203125 C156.46181152 235.82493652 156.16581055 236.44674805 155.86083984 237.08740234 C148.81494056 251.72353566 138.97406441 264.5000566 127.7578125 276.203125 C126.55125 277.50443359 126.55125 277.50443359 125.3203125 278.83203125 C113.56245126 291.13229382 99.84674908 300.46111776 84.7578125 308.203125 C84.14615234 308.52120117 83.53449219 308.83927734 82.90429688 309.16699219 C63.85863028 318.95576927 41.98848462 325.27800302 20.515625 325.40625 C19.74838104 325.41195007 18.98113708 325.41765015 18.19064331 325.42352295 C16.57209625 325.43291225 14.95353059 325.43948256 13.33496094 325.44335938 C10.92346314 325.45296311 8.51285739 325.48400146 6.1015625 325.515625 C-8.39362511 325.61534765 -22.50670839 323.83360921 -36.3671875 319.453125 C-37.19500732 319.19708496 -38.02282715 318.94104492 -38.87573242 318.67724609 C-46.94477443 316.10612525 -54.62930182 312.89833742 -62.2421875 309.203125 C-62.86399902 308.90712402 -63.48581055 308.61112305 -64.12646484 308.30615234 C-78.76259816 301.26025306 -91.5391191 291.41937691 -103.2421875 280.203125 C-104.10972656 279.39875 -104.97726563 278.594375 -105.87109375 277.765625 C-118.1606897 266.01796003 -127.53289368 252.29782439 -135.2421875 237.203125 C-135.72727783 236.25373047 -135.72727783 236.25373047 -136.22216797 235.28515625 C-145.89363121 216.07098453 -152.31615451 194.5863314 -152.4453125 172.9609375 C-152.45101257 172.19369354 -152.45671265 171.42644958 -152.46258545 170.63595581 C-152.47197475 169.01740875 -152.47854506 167.39884309 -152.48242188 165.78027344 C-152.49202561 163.36877564 -152.52306396 160.95816989 -152.5546875 158.546875 C-152.83473792 117.56756101 -135.40054152 78.5836298 -107.2421875 49.203125 C-106.4378125 48.33558594 -105.6334375 47.46804687 -104.8046875 46.57421875 C-93.05702253 34.2846228 -79.33688689 24.91241882 -64.2421875 17.203125 C-63.60925781 16.87973145 -62.97632812 16.55633789 -62.32421875 16.22314453 C-43.11004703 6.55168129 -21.6253939 0.12915799 0 0 Z " fill="#1877F2" transform="translate(152.2421875,-0.203125)"/>
<path d="M0 0 C0 13.53 0 27.06 0 41 C-13.875 41.1875 -13.875 41.1875 -18.18701172 41.20776367 C-27.36559532 41.43167851 -34.55669207 42.89848498 -41.4375 49.25 C-46.87092649 58.81283062 -46.53532702 68.39413959 -46.6875 79.0625 C-46.790625 84.651875 -46.89375 90.24125 -47 96 C-32.15 96 -17.3 96 -2 96 C-2.61326183 102.13261835 -3.25126043 108.18874426 -4.15625 114.2734375 C-4.2634436 115.00446686 -4.37063721 115.73549622 -4.4810791 116.48867798 C-4.70517679 118.01296242 -4.9304021 119.53708149 -5.15673828 121.06103516 C-5.5022965 123.39048093 -5.84317237 125.72057984 -6.18359375 128.05078125 C-6.4033694 129.54170744 -6.62341183 131.03259434 -6.84375 132.5234375 C-6.99535583 133.56097672 -6.99535583 133.56097672 -7.15002441 134.61947632 C-7.62670585 137.81108963 -8.21581329 140.86325316 -9 144 C-21.54 144 -34.08 144 -47 144 C-47 181.62 -47 219.24 -47 258 C-54.87702006 259.12528858 -54.87702006 259.12528858 -58.08007812 259.12939453 C-58.79772339 259.13254669 -59.51536865 259.13569885 -60.25476074 259.13894653 C-61.38162292 259.13591019 -61.38162292 259.13591019 -62.53125 259.1328125 C-63.32599731 259.13376923 -64.12074463 259.13472595 -64.9395752 259.13571167 C-66.61027099 259.13638841 -68.2809695 259.13456962 -69.95166016 259.13037109 C-72.49257374 259.12501565 -75.03331059 259.13033332 -77.57421875 259.13671875 C-79.20572955 259.13605788 -80.83724025 259.13477653 -82.46875 259.1328125 C-83.21999146 259.13483673 -83.97123291 259.13686096 -84.74523926 259.13894653 C-85.46288452 259.13579437 -86.18052979 259.13264221 -86.91992188 259.12939453 C-87.54056519 259.12859894 -88.1612085 259.12780334 -88.80065918 259.12698364 C-91.8848945 258.94890872 -94.94167794 258.43690315 -98 258 C-98 220.05 -98 182.1 -98 143 C-111.53 143 -125.06 143 -139 143 C-139 127.49 -139 111.98 -139 96 C-125.47 96 -111.94 96 -98 96 C-98.04640625 92.7928125 -98.0928125 89.585625 -98.140625 86.28125 C-98.17196094 83.12029599 -98.1961685 79.95936032 -98.21972656 76.79833984 C-98.23964667 74.62801161 -98.26679283 72.45773564 -98.30175781 70.28759766 C-98.63463921 49.07130403 -96.89287799 29.35609311 -81.40625 13.25 C-58.70002497 -7.98179483 -28.28484408 -3.53560551 0 0 Z " fill="#FEFEFE" transform="translate(235,66)"/>
</svg>
