<?xml version="1.0" standalone="no"?>
<!DOCTYPE svg PUBLIC "-//W3C//DTD SVG 20010904//EN"
 "http://www.w3.org/TR/2001/REC-SVG-20010904/DTD/svg10.dtd">
<svg version="1.0" xmlns="http://www.w3.org/2000/svg"
 width="672.000000pt" height="548.000000pt" viewBox="0 0 672.000000 548.000000"
 preserveAspectRatio="xMidYMid meet">

<g transform="translate(0.000000,548.000000) scale(0.100000,-0.100000)"
fill="#000000" stroke="none">
<path d="M1747 3724 c-4 -4 -7 -114 -7 -244 0 -267 -1 -263 72 -258 l43 3 5
118 c5 124 10 137 56 137 36 0 43 -22 46 -141 l3 -114 50 0 50 0 3 120 c4 143
-6 185 -53 221 -35 26 -71 29 -132 9 -21 -7 -22 -5 -25 71 l-3 79 -50 3 c-28
2 -54 0 -58 -4z"/>
<path d="M1418 3576 c-45 -20 -87 -66 -103 -116 -12 -36 -15 -84 -13 -216 l3
-169 55 0 55 0 3 181 c2 167 4 183 23 200 25 22 82 22 105 -1 24 -23 22 -92
-2 -110 -11 -8 -38 -15 -61 -15 l-43 0 0 -50 c0 -38 4 -52 19 -60 57 -30 153
11 196 84 55 94 19 218 -77 265 -49 23 -117 27 -160 7z"/>
<path d="M2236 3567 c-22 -12 -53 -39 -70 -60 -27 -34 -30 -45 -30 -105 0 -57
4 -74 28 -109 32 -48 94 -83 147 -83 52 1 69 19 69 74 l0 46 -49 0 c-40 0 -53
4 -65 22 -39 55 -5 123 59 121 60 -2 74 -28 77 -148 l3 -100 50 0 50 0 3 109
c2 94 0 114 -19 153 -45 94 -164 131 -253 80z"/>
<path d="M2750 3577 c-14 -6 -28 -16 -31 -21 -4 -5 -17 -1 -30 8 -27 19 -80
21 -97 4 -17 -17 -17 -319 0 -336 7 -7 26 -12 44 -12 62 0 64 3 64 109 1 107
10 129 63 147 30 10 32 14 32 59 0 53 -7 59 -45 42z"/>
<path d="M2912 3570 c-63 -38 -73 -69 -70 -215 l3 -130 50 0 50 0 5 118 c6
118 12 136 47 137 40 0 43 -9 43 -130 0 -128 1 -130 60 -130 59 0 60 2 60 130
0 110 1 119 20 125 11 3 29 3 40 0 18 -6 20 -15 20 -119 0 -130 5 -139 72
-134 l43 3 3 130 c2 115 0 134 -18 163 -43 70 -140 94 -202 51 l-30 -22 -38
22 c-48 27 -114 27 -158 1z"/>
<path d="M3521 3568 c-111 -55 -136 -204 -51 -301 43 -49 124 -71 171 -47 15
8 19 22 19 60 l0 50 -43 0 c-53 0 -77 22 -77 72 0 65 76 96 122 50 19 -18 21
-31 19 -115 -2 -109 5 -120 71 -115 l43 3 3 101 c3 109 -12 164 -57 212 -52
53 -146 67 -220 30z"/>
<path d="M1933 2544 c-108 -64 -126 -222 -36 -305 44 -42 74 -53 139 -52 70 1
119 27 159 85 63 92 26 231 -76 284 -46 23 -137 18 -186 -12z m157 -54 c77
-39 92 -121 36 -186 l-33 -39 -89 -1 -89 -1 1 71 c1 97 1 98 27 126 45 51 88
60 147 30z"/>
<path d="M1994 2471 c-59 -25 -73 -138 -20 -173 24 -16 101 -8 126 13 33 28
36 108 5 138 -23 23 -81 34 -111 22z m25 -71 c4 -29 19 -42 42 -35 9 3 22 -2
29 -11 12 -13 11 -17 -1 -24 -42 -27 -129 42 -111 88 8 21 37 9 41 -18z"/>
<path d="M2385 2475 c-22 -21 -25 -33 -25 -98 0 -67 3 -77 26 -101 35 -34 77
-34 109 0 22 23 25 36 25 99 0 63 -3 76 -25 99 -32 34 -77 35 -110 1z m83 -46
c22 -41 1 -139 -30 -139 -18 0 -39 70 -32 108 12 65 37 78 62 31z"/>
<path d="M2582 2484 c-24 -17 -30 -62 -10 -82 10 -10 8 -19 -6 -42 -34 -58 0
-110 73 -110 36 0 81 35 81 64 0 12 -9 32 -20 44 -19 20 -20 24 -5 44 20 30
19 54 -5 78 -24 24 -77 26 -108 4z m78 -45 c0 -26 -28 -36 -46 -17 -14 13 -14
17 1 31 19 20 45 12 45 -14z m4 -104 c9 -25 -5 -45 -30 -45 -14 0 -27 7 -30
15 -10 25 4 45 30 45 13 0 26 -7 30 -15z"/>
<path d="M2780 2493 c-46 -18 -25 -57 21 -41 24 8 34 7 46 -5 20 -19 7 -44
-59 -115 -41 -43 -48 -55 -38 -67 18 -22 148 -21 157 0 8 22 -1 28 -50 34
l-42 6 43 46 c48 52 57 103 24 132 -18 16 -71 21 -102 10z"/>
<path d="M2986 2468 c-26 -24 -34 -37 -27 -47 8 -12 12 -13 26 -1 25 21 34 2
37 -85 2 -63 6 -80 18 -80 12 0 15 20 15 120 0 139 -8 150 -69 93z"/>
<path d="M3268 2480 c-22 -17 -28 -30 -28 -58 1 -56 22 -77 75 -76 25 0 45 -3
45 -7 0 -18 -46 -49 -72 -49 -21 0 -28 -5 -28 -20 0 -42 104 -16 127 32 28 55
27 132 -2 171 -21 30 -85 33 -117 7z m80 -32 c17 -17 15 -43 -4 -59 -31 -26
-70 25 -44 56 15 18 32 19 48 3z"/>
<path d="M3488 2474 c-41 -29 -42 -32 -28 -54 7 -12 12 -12 22 -2 23 23 27 12
30 -75 3 -80 5 -88 23 -88 19 0 20 7 20 120 0 137 -5 143 -67 99z"/>
<path d="M3668 2471 c-28 -25 -32 -35 -36 -93 -4 -58 -2 -67 23 -96 41 -49
103 -42 133 15 17 32 15 57 -9 87 -17 22 -28 27 -57 24 -63 -5 -46 38 21 51
19 4 33 14 35 24 3 14 -4 17 -37 17 -31 0 -49 -7 -73 -29z m77 -121 c7 -23
-10 -60 -28 -60 -29 0 -50 53 -30 73 14 15 52 6 58 -13z"/>
<path d="M3858 2493 c-19 -5 -32 -33 -20 -45 4 -4 22 -2 40 4 24 9 35 9 43 1
19 -19 2 -58 -52 -117 -68 -74 -63 -86 36 -86 60 0 77 3 82 16 7 20 -15 36
-44 31 -47 -8 -48 10 -5 57 32 35 42 53 42 80 0 54 -51 78 -122 59z"/>
<path d="M4145 2474 c-57 -62 -9 -148 70 -128 19 5 25 2 25 -9 0 -22 -39 -47
-72 -47 -21 0 -28 -5 -28 -20 0 -16 7 -20 34 -20 47 0 98 37 109 80 14 56 3
131 -23 152 -34 27 -86 23 -115 -8z m83 -26 c17 -17 15 -55 -4 -62 -25 -10
-33 -7 -44 14 -20 38 19 77 48 48z"/>
<path d="M4371 2474 c-17 -14 -31 -34 -31 -45 0 -22 11 -24 28 -7 21 21 31 -4
34 -87 2 -63 6 -80 18 -80 12 0 15 22 18 123 2 115 2 122 -17 122 -11 0 -33
-12 -50 -26z"/>
<path d="M4541 2483 c-12 -10 -24 -35 -27 -55 -5 -31 -2 -41 20 -63 23 -23 33
-26 62 -21 21 4 34 3 34 -4 0 -21 -41 -50 -70 -50 -23 0 -30 -4 -30 -20 0 -45
107 -14 135 40 19 37 19 113 0 149 -22 43 -86 55 -124 24z m79 -43 c11 -21 -2
-60 -20 -60 -25 0 -40 15 -40 40 0 41 41 55 60 20z"/>
<path d="M4757 2473 c-20 -15 -36 -33 -37 -40 0 -18 20 -27 33 -14 22 22 26
10 29 -76 3 -80 5 -88 23 -88 19 0 20 7 20 120 0 137 -6 145 -68 98z"/>
<path d="M3137 2364 c-4 -4 -7 -14 -7 -21 0 -10 11 -13 43 -11 29 2 42 8 42
18 0 16 -64 27 -78 14z"/>
<path d="M4017 2357 c-8 -21 1 -27 45 -27 32 0 39 3 36 18 -4 22 -73 30 -81 9z"/>
</g>
</svg>
