<?xml version="1.0" standalone="no"?>
<!DOCTYPE svg PUBLIC "-//W3C//DTD SVG 20010904//EN"
 "http://www.w3.org/TR/2001/REC-SVG-20010904/DTD/svg10.dtd">
<svg version="1.0" xmlns="http://www.w3.org/2000/svg"
 width="500.000000pt" height="500.000000pt" viewBox="0 0 500.000000 500.000000"
 preserveAspectRatio="xMidYMid meet">

<g transform="translate(0.000000,500.000000) scale(0.100000,-0.100000)"
fill="#000000" stroke="none">
<path d="M2361 4979 c-149 -18 -291 -71 -410 -151 -65 -45 -200 -182 -248
-253 -154 -230 -257 -544 -278 -850 -4 -55 -10 -103 -14 -107 -4 -4 -274 -8
-600 -8 -378 0 -611 -4 -642 -11 -111 -24 -160 -111 -148 -259 1 -14 10 -137
20 -275 10 -137 23 -297 28 -355 5 -58 15 -177 21 -265 6 -88 14 -171 17 -185
3 -14 5 -37 4 -51 -1 -15 2 -71 8 -125 6 -55 20 -227 31 -384 12 -157 23 -292
25 -300 3 -8 14 -136 25 -285 50 -653 51 -665 109 -790 68 -147 187 -245 352
-292 61 -17 153 -18 1824 -18 1651 0 1764 1 1825 18 192 52 319 167 391 352
34 90 45 152 58 325 6 74 17 207 25 295 14 153 25 308 32 425 1 30 5 82 9 115
6 57 12 131 50 575 8 102 22 273 30 380 8 107 22 269 30 360 49 548 50 583 12
657 -9 17 -30 41 -46 52 -27 20 -114 44 -143 40 -7 -1 -277 -1 -599 0 l-586 1
-7 95 c-3 52 -11 119 -17 148 -26 125 -53 233 -63 252 -6 11 -11 30 -13 42 -3
30 -48 144 -95 238 -154 306 -376 502 -643 570 -107 27 -267 38 -374 24z m283
-249 c337 -86 568 -444 642 -994 8 -60 11 -113 6 -118 -6 -6 -966 -11 -1591
-8 -33 0 18 332 80 520 73 220 189 392 335 496 154 110 352 149 528 104z m191
-1764 c59 -15 150 -50 220 -85 100 -49 124 -65 140 -94 16 -30 17 -39 6 -65
-27 -65 -84 -86 -141 -52 -192 114 -433 173 -606 149 -147 -20 -248 -57 -333
-122 -106 -81 -165 -216 -141 -321 36 -163 226 -284 645 -411 243 -75 468
-198 587 -323 278 -292 179 -701 -208 -862 -329 -137 -713 -115 -1079 60 -203
98 -270 159 -244 221 14 34 55 59 97 59 17 0 58 -17 94 -39 160 -97 358 -171
527 -196 339 -52 646 54 739 255 37 78 38 203 3 273 -80 162 -270 279 -658
406 -308 100 -475 190 -594 318 -69 75 -99 136 -111 227 -38 269 193 539 527
617 66 15 111 18 255 15 150 -3 189 -7 275 -30z"/>
</g>
</svg>
