<?xml version="1.0" standalone="no"?>
<!DOCTYPE svg PUBLIC "-//W3C//DTD SVG 20010904//EN"
 "http://www.w3.org/TR/2001/REC-SVG-20010904/DTD/svg10.dtd">
<svg version="1.0" xmlns="http://www.w3.org/2000/svg"
 width="500.000000pt" height="500.000000pt" viewBox="0 0 500.000000 500.000000"
 preserveAspectRatio="xMidYMid meet">

<g transform="translate(0.000000,500.000000) scale(0.100000,-0.100000)"
fill="#000000" stroke="none">
<path d="M2510 2764 c0 -1375 3 -1308 -58 -1434 -40 -81 -141 -179 -232 -223
-200 -98 -418 -62 -586 95 -100 94 -148 191 -160 322 -28 313 241 587 551 562
44 -3 89 -7 100 -9 20 -2 20 4 22 300 1 193 -1 305 -8 309 -5 3 -61 8 -123 11
-304 15 -594 -101 -825 -329 -346 -343 -430 -870 -210 -1312 64 -127 115 -193
236 -306 80 -75 96 -87 183 -140 202 -125 393 -176 630 -167 151 5 200 13 315
52 165 55 275 120 409 240 152 136 267 320 326 522 45 154 52 297 48 971 -3
539 -2 582 14 582 9 0 23 -6 30 -12 23 -22 69 -47 183 -102 183 -88 333 -128
533 -142 l92 -7 0 307 0 306 -59 0 c-69 0 -205 42 -321 98 -82 40 -192 123
-257 194 -23 26 -45 43 -49 40 -4 -4 -4 -2 -1 4 3 6 -3 21 -14 33 -33 35 -106
191 -125 267 -9 37 -19 102 -23 144 l-6 75 -307 3 -308 2 0 -1256z"/>
</g>
</svg>
