<?xml version="1.0" encoding="UTF-8"?>
<svg version="1.1" xmlns="http://www.w3.org/2000/svg" width="500" height="489">
<path d="M0 0 C1.71678955 0.00845947 1.71678955 0.00845947 3.46826172 0.01708984 C26.29431554 0.34377702 48.821737 8.32044581 66.25 23.3125 C67.07242187 24.01375 67.89484375 24.715 68.7421875 25.4375 C78.55146042 34.02434073 85.80316232 42.96016836 92.25 54.3125 C92.79785156 55.27027344 93.34570312 56.22804687 93.91015625 57.21484375 C97.02318648 63.01893337 99.23673006 68.89912198 101.125 75.1875 C101.34051514 75.90131836 101.55603027 76.61513672 101.77807617 77.35058594 C102.93609043 81.43746924 103.47611239 85.06956747 103.25 89.3125 C103.91 88.9825 104.57 88.6525 105.25 88.3125 C106.66681883 88.16282063 108.08988196 88.07026227 109.51318359 88.00708008 C110.4155777 87.96669113 111.3179718 87.92630219 112.24771118 87.88468933 C113.74544571 87.82768608 113.74544571 87.82768608 115.2734375 87.76953125 C116.3277597 87.72810501 117.38208191 87.68667877 118.46835327 87.64399719 C131.80969072 87.16488044 145.15337355 87.05375331 158.50195312 87.01733398 C161.4497451 87.00832893 164.39708766 86.98706328 167.34472656 86.95581055 C170.97103029 86.91737459 174.59693071 86.89857721 178.22343063 86.89405251 C180.2408892 86.88688978 182.25825057 86.86051145 184.27554321 86.83366394 C195.60965555 86.86076699 195.60965555 86.86076699 200.25 91.3125 C206.6343844 100.8890766 203.40573345 120.83083237 203.41113281 132.01074219 C203.41577087 134.2678129 203.42079683 136.52488284 203.42617798 138.7819519 C203.4392051 144.87305393 203.44572732 150.96414499 203.45018864 157.05525875 C203.45313386 160.87085806 203.4572412 164.68645447 203.46169281 168.50205231 C203.47378136 179.1037572 203.48417127 189.70545955 203.4875679 200.30717087 C203.48778747 200.98285019 203.48800703 201.6585295 203.48823325 202.35468395 C203.48845153 203.03179666 203.48866981 203.70890936 203.4888947 204.40654063 C203.48933814 205.77818855 203.4897847 207.14983646 203.49023438 208.52148438 C203.4904558 209.20184058 203.49067723 209.88219679 203.49090537 210.58316985 C203.4948515 221.6013052 203.51230874 232.61937436 203.5355939 243.63748416 C203.55940579 254.99807042 203.57151697 266.3586124 203.57293582 277.71922803 C203.57397873 284.07840899 203.57977705 290.43749619 203.59775543 296.79665375 C203.61435112 302.78205852 203.61633632 308.76730016 203.60761642 314.75271988 C203.60685229 316.93460912 203.61110517 319.11650758 203.62107468 321.29837418 C203.69361297 338.17902433 202.80093747 354.86596874 197.125 370.9375 C196.67821899 372.23469971 196.67821899 372.23469971 196.22241211 373.55810547 C191.51477921 386.70281041 184.78274796 398.30382277 176.25 409.3125 C175.59 410.3025 174.93 411.2925 174.25 412.3125 C175.55839844 412.42464844 176.86679687 412.53679687 178.21484375 412.65234375 C182.97803914 413.18737742 187.28832916 414.32410149 191.8125 415.875 C192.58118408 416.13676025 193.34986816 416.39852051 194.1418457 416.66821289 C218.36666561 425.20836211 218.36666561 425.20836211 224.25 434.3125 C225.35699649 437.56837204 225.41250514 439.40711421 224.8125 442.75 C215.18051032 458.54646307 190.62094294 463.16627897 173.9375 467.3125 C129.01030283 477.92006995 82.40448455 481.39289392 36.38867188 483.14941406 C32.73162688 483.28981135 29.07694066 483.46294017 25.421875 483.6484375 C-53.39095916 487.53819395 -150.46864171 487.76101069 -239.25 448.8125 C-242.00485476 446.05764524 -243.53837364 444.02310571 -244.75 440.3125 C-243.73898659 434.80809364 -240.81793277 430.96043954 -236.48046875 427.50390625 C-227.68229246 421.86820807 -218.27312082 417.44978014 -208.01416016 415.23364258 C-207.21289703 415.05940262 -206.41163391 414.88516266 -205.58609009 414.7056427 C-204.67722549 414.51103706 -204.67722549 414.51103706 -203.75 414.3125 C-203.75075944 413.65285954 -203.75151888 412.99321908 -203.75230134 412.31358951 C-203.79704992 373.22470095 -203.8313693 334.13581569 -203.85213066 295.04690671 C-203.8546321 290.35426914 -203.85722074 285.66163163 -203.85986328 280.96899414 C-203.8603879 280.03476789 -203.86091252 279.10054164 -203.86145304 278.1380055 C-203.8701575 263.00782123 -203.8859277 247.87765213 -203.90430559 232.74747687 C-203.9230035 217.22446367 -203.9341165 201.70145843 -203.93817699 186.17843443 C-203.94092227 176.59861834 -203.94959553 167.01884516 -203.96583293 157.43904228 C-203.97639846 150.87131174 -203.9796016 144.30360341 -203.97700275 137.73586499 C-203.97572079 133.94569463 -203.97769685 130.15559932 -203.98841095 126.36544228 C-203.99994304 122.25590302 -203.99597779 118.14652378 -203.99050903 114.03697205 C-203.99633472 112.83949512 -204.0021604 111.64201819 -204.00816262 110.40825409 C-203.95977623 96.99065272 -203.95977623 96.99065272 -200.3125 92.5703125 C-195.3601014 88.97982352 -193.03838618 88.17258085 -186.91796875 87.99609375 C-186.22282166 87.97522202 -185.52767456 87.95435028 -184.8114624 87.93284607 C-182.52025959 87.86623913 -180.22894873 87.80748826 -177.9375 87.75 C-177.15190704 87.72915344 -176.36631409 87.70830688 -175.55691528 87.68682861 C-151.58973648 87.05589723 -127.70320064 87.17114866 -103.75 88.3125 C-103.63914063 87.17167969 -103.52828125 86.03085938 -103.4140625 84.85546875 C-102.83268219 80.24797916 -101.61216939 76.01441745 -100.125 71.625 C-99.85921143 70.84044434 -99.59342285 70.05588867 -99.31958008 69.24755859 C-91.01910628 45.58504994 -73.57414784 25.49401613 -51.75 13.3125 C-50.27466797 12.47138672 -50.27466797 12.47138672 -48.76953125 11.61328125 C-33.63368281 3.5040615 -17.08424921 -0.08846704 0 0 Z M-53.75 55.3125 C-54.63945312 56.15361328 -54.63945312 56.15361328 -55.546875 57.01171875 C-63.27425548 64.92605199 -70.75 80.2309728 -70.75 91.3125 C-66.4082372 92.43738813 -62.07313968 93.47136565 -57.67578125 94.35546875 C-39.97717175 97.93492737 -23.03304173 102.62998967 -6.9765625 111.02734375 C-1.89200669 113.05254818 1.65946777 112.90983321 6.765625 110.9921875 C8.01469588 110.39956141 9.25931044 109.797478 10.5 109.1875 C26.737549 101.70319798 43.78553419 97.81878078 61.25 94.3125 C62.20890137 94.11978516 63.16780273 93.92707031 64.15576172 93.72851562 C66.52015652 93.25472233 68.88487695 92.78264227 71.25 92.3125 C67.39358912 73.0050745 59.38855495 57.28679056 43.25 45.375 C12.50148567 25.41032482 -28.3029533 29.2800151 -53.75 55.3125 Z M-203.75 444.3125 C-202.75 446.3125 -202.75 446.3125 -202.75 446.3125 Z M-192.75 459.3125 C-192.75 459.6425 -192.75 459.9725 -192.75 460.3125 C-189.12 460.3125 -185.49 460.3125 -181.75 460.3125 C-181.75 459.9825 -181.75 459.6525 -181.75 459.3125 C-185.38 459.3125 -189.01 459.3125 -192.75 459.3125 Z " fill="#4B9749" transform="translate(259.75,-0.3125)"/>
<path d="M0 0 C1.71678955 0.00845947 1.71678955 0.00845947 3.46826172 0.01708984 C26.29431554 0.34377702 48.821737 8.32044581 66.25 23.3125 C67.07242187 24.01375 67.89484375 24.715 68.7421875 25.4375 C78.55146042 34.02434073 85.80316232 42.96016836 92.25 54.3125 C92.79785156 55.27027344 93.34570312 56.22804687 93.91015625 57.21484375 C97.01167757 62.99747558 99.23309397 68.86241875 101.125 75.125 C101.34051514 75.83043945 101.55603027 76.53587891 101.77807617 77.26269531 C102.06968628 78.2870166 102.06968628 78.2870166 102.3671875 79.33203125 C102.53847168 79.93120361 102.70975586 80.53037598 102.88623047 81.14770508 C103.3928784 84.16277031 103.25 87.25516285 103.25 90.3125 C87.41 91.3025 87.41 91.3025 71.25 92.3125 C69.25 86.3125 69.25 86.3125 68.42578125 83.55859375 C63.01355574 65.95049357 53.6685594 52.1661162 37.578125 42.99609375 C17.94329832 33.06345255 -4.71216744 30.8838927 -25.80957031 37.63671875 C-42.29614129 43.37839319 -55.78620578 55.03961488 -63.56884766 70.73120117 C-66.74560196 77.40538371 -69.16872671 84.06876237 -70.75 91.3125 C-69.63367188 91.45945312 -68.51734375 91.60640625 -67.3671875 91.7578125 C-46.27768012 94.70728212 -25.4702624 100.28591896 -6.4296875 110.0078125 C-3.21507184 111.57294607 -0.28800188 111.95869981 3.25 112.3125 C2.59 112.9725 1.93 113.6325 1.25 114.3125 C0.93972593 116.27248617 0.93972593 116.27248617 0.97825623 118.55026245 C0.96367874 119.88356598 0.96367874 119.88356598 0.94880676 121.24380493 C0.94821762 122.22150848 0.94762848 123.19921204 0.94702148 124.20654297 C0.93436249 125.74816101 0.93436249 125.74816101 0.92144775 127.32092285 C0.89557239 130.7321822 0.88350576 134.14335487 0.87109375 137.5546875 C0.85492746 139.91879977 0.8377484 142.28290532 0.81959534 144.64700317 C0.77381141 150.88271985 0.73906038 157.11844541 0.70739746 163.35424805 C0.65561876 173.32943085 0.5904029 183.30451444 0.51918221 193.27957535 C0.49632452 196.76945376 0.48006651 200.25931962 0.46446228 203.74923706 C0.45105473 205.88604875 0.43743985 208.02285914 0.42358398 210.15966797 C0.42097061 211.13332306 0.41835724 212.10697815 0.41566467 213.11013794 C0.40876617 214.00464661 0.40186768 214.89915527 0.39476013 215.82077026 C0.39090522 216.5961659 0.3870503 217.37156155 0.38307858 218.17045403 C0.2486601 220.3340672 -0.18979033 222.22400322 -0.75 224.3125 C-0.81456879 225.72784778 -0.83611039 227.14587689 -0.8125 228.5625 C-0.791875 229.8 -0.77125 231.0375 -0.75 232.3125 C-0.64042969 231.76537354 -0.53085937 231.21824707 -0.41796875 230.65454102 C3.39226631 212.11255871 9.10262642 196.98579248 21.25 182.3125 C21.71535156 181.68472656 22.18070312 181.05695313 22.66015625 180.41015625 C34.15225961 165.47393628 55.05700327 154.01029136 73.44091797 150.67138672 C99.93408422 147.2866349 126.79911692 151.87825328 148.25 168.3125 C167.50429882 183.77550024 181.02087733 205.60595677 184.25 230.3125 C186.2312386 256.14899991 179.58509299 281.74249954 162.6015625 301.6796875 C146.72639878 319.4535419 124.65325936 332.58816513 100.48022461 334.53564453 C83.1195038 335.25081645 66.91246883 333.40523433 51.25 325.3125 C48.98555803 323.04805803 48.83343837 322.12555146 48.25 319.0625 C47.49778468 315.367093 46.52648434 311.86842066 45.25 308.3125 C47.64028931 309.49879173 50.01599718 310.7083765 52.38671875 311.93359375 C71.73333926 321.83037982 91.96376613 325.78847062 113.25 319.3125 C114.28640625 319.05726563 115.3228125 318.80203125 116.390625 318.5390625 C134.54508957 313.75926386 149.11918166 300.79067927 159.25 285.3125 C170.4584096 265.84132074 174.84865936 243.83528758 169.35546875 221.78515625 C165.94187761 211.06189645 161.38408067 201.08831471 154.25 192.3125 C153.57195312 191.47203125 152.89390625 190.6315625 152.1953125 189.765625 C140.08201493 175.54004422 122.76897645 166.0296576 104.25 163.3125 C79.24201122 161.74828709 58.57172015 165.43908 39.25 182.3125 C37.78046875 183.46685547 37.78046875 183.46685547 36.28125 184.64453125 C33.03509679 187.34965892 30.65427133 190.41931067 28.25 193.875 C27.82066162 194.48633789 27.39132324 195.09767578 26.94897461 195.72753906 C13.43690154 215.37868807 10.37411007 237.85762406 14.25 261.1875 C15.88371022 268.29058792 18.9642235 274.48116405 22.41015625 280.8515625 C23.89532726 283.64532368 25.15506454 286.35106833 26.25 289.3125 C25.60933594 289.11914062 24.96867187 288.92578125 24.30859375 288.7265625 C23.44363281 288.46617187 22.57867187 288.20578125 21.6875 287.9375 C20.84058594 287.68226563 19.99367188 287.42703125 19.12109375 287.1640625 C17.69990234 286.74253906 17.69990234 286.74253906 16.25 286.3125 C15.17105469 285.95800781 14.09210938 285.60351562 12.98046875 285.23828125 C0.44881879 282.12833252 -11.22498142 283.93307124 -22.75 289.3125 C-24.74173647 290.00346329 -26.73985081 290.67709095 -28.75 291.3125 C-28.20730469 290.37148438 -27.66460937 289.43046875 -27.10546875 288.4609375 C-26.38272484 287.20317537 -25.66007352 285.94536003 -24.9375 284.6875 C-24.58107422 284.07003906 -24.22464844 283.45257813 -23.85742188 282.81640625 C-23.50615234 282.20410156 -23.15488281 281.59179688 -22.79296875 280.9609375 C-22.47352295 280.40583496 -22.15407715 279.85073242 -21.82495117 279.27880859 C-15.33646002 267.41001283 -13.02782874 255.90629182 -13.1875 242.4375 C-13.19845703 241.12193115 -13.20941406 239.8063623 -13.22070312 238.45092773 C-13.44250798 228.49004151 -14.54555036 220.37770362 -18.75 211.3125 C-19.02875977 210.68923828 -19.30751953 210.06597656 -19.59472656 209.42382812 C-29.38920795 187.88247703 -45.67789798 174.79823124 -67.45703125 166.25 C-75.86113554 163.27205504 -84.09303019 163.10474224 -92.9375 163.0625 C-93.99775391 163.041875 -95.05800781 163.02125 -96.15039062 163 C-116.54831839 162.90055855 -135.0335802 171.97632126 -149.6875 185.8125 C-165.9503379 203.41702203 -172.82606486 225.17776183 -171.92041016 248.77832031 C-170.49971101 269.90562284 -160.10400376 288.61525212 -145 303.125 C-126.05416363 319.37711556 -104.18810522 322.51558587 -80.01904297 321.58203125 C-72.69360245 320.97805169 -66.28240554 318.56389993 -59.75 315.3125 C-59.12367676 315.0026416 -58.49735352 314.6927832 -57.85205078 314.37353516 C-54.08004085 312.47136023 -50.41143537 310.41714729 -46.75 308.3125 C-45.42243996 307.63440963 -44.09151526 306.9625454 -42.75 306.3125 C-43.27400391 307.43785156 -43.27400391 307.43785156 -43.80859375 308.5859375 C-46.76731703 315.24096947 -48.57240702 321.01504312 -48.75 328.3125 C-47.76 328.6425 -46.77 328.9725 -45.75 329.3125 C-45.42 330.3025 -45.09 331.2925 -44.75 332.3125 C-45.76578125 332.61542969 -46.7815625 332.91835938 -47.828125 333.23046875 C-75.55752353 341.61023204 -98.90163514 355.46413514 -119.36328125 375.92578125 C-120.75280184 377.31530184 -122.15831638 378.68980501 -123.6015625 380.0234375 C-138.0244924 393.55684749 -153.31705423 415.63499641 -156.75 435.3125 C-157.41 435.3125 -158.07 435.3125 -158.75 435.3125 C-159.74 441.2525 -159.74 441.2525 -160.75 447.3125 C-161.41 447.3125 -162.07 447.3125 -162.75 447.3125 C-163.08 450.2825 -163.41 453.2525 -163.75 456.3125 C-162.98075195 456.31157821 -162.21150391 456.31065641 -161.41894531 456.30970669 C-137.48725305 456.28151281 -113.55555969 456.26294059 -89.62385368 456.25141001 C-86.76230235 456.25000604 -83.9007511 456.24848821 -81.03919983 456.24695969 C-32.80760606 456.22215542 15.41765898 456.22921501 63.64450455 457.00319672 C66.14415143 457.04317236 68.64381788 457.08160026 71.14349365 457.11972046 C74.07354666 457.16440518 77.00333346 457.21614849 79.9331665 457.27334595 C81.16855164 457.29343719 82.40393677 457.31352844 83.67675781 457.33422852 C84.74017395 457.35421402 85.80359009 457.37419952 86.89923096 457.39479065 C89.2083475 457.58146458 89.2083475 457.58146458 90.25 456.3125 C93.37713563 455.76605486 96.51594878 455.34674982 99.66015625 454.91015625 C120.54811024 451.43261875 139.87836388 441.48386476 156.25 428.3125 C160.00333333 425.3125 160.00333333 425.3125 162.25 425.3125 C162.48589844 424.75175781 162.72179687 424.19101562 162.96484375 423.61328125 C164.56227541 420.75344159 166.45983519 418.77902898 168.8125 416.5 C169.61816406 415.68917969 170.42382812 414.87835938 171.25390625 414.04296875 C176.09439679 411.24722258 180.17486026 412.55130606 185.40112305 413.8449707 C187.56445803 414.45858122 189.68540259 415.14582501 191.8125 415.875 C192.58118408 416.13676025 193.34986816 416.39852051 194.1418457 416.66821289 C218.36666561 425.20836211 218.36666561 425.20836211 224.25 434.3125 C225.35699649 437.56837204 225.41250514 439.40711421 224.8125 442.75 C215.18051032 458.54646307 190.62094294 463.16627897 173.9375 467.3125 C129.01030283 477.92006995 82.40448455 481.39289392 36.38867188 483.14941406 C32.73162688 483.28981135 29.07694066 483.46294017 25.421875 483.6484375 C-53.39095916 487.53819395 -150.46864171 487.76101069 -239.25 448.8125 C-242.00485476 446.05764524 -243.53837364 444.02310571 -244.75 440.3125 C-243.73898659 434.80809364 -240.81793277 430.96043954 -236.48046875 427.50390625 C-227.68229246 421.86820807 -218.27312082 417.44978014 -208.01416016 415.23364258 C-207.21289703 415.05940262 -206.41163391 414.88516266 -205.58609009 414.7056427 C-204.67722549 414.51103706 -204.67722549 414.51103706 -203.75 414.3125 C-203.75075944 413.65285954 -203.75151888 412.99321908 -203.75230134 412.31358951 C-203.79704992 373.22470095 -203.8313693 334.13581569 -203.85213066 295.04690671 C-203.8546321 290.35426914 -203.85722074 285.66163163 -203.85986328 280.96899414 C-203.8603879 280.03476789 -203.86091252 279.10054164 -203.86145304 278.1380055 C-203.8701575 263.00782123 -203.8859277 247.87765213 -203.90430559 232.74747687 C-203.9230035 217.22446367 -203.9341165 201.70145843 -203.93817699 186.17843443 C-203.94092227 176.59861834 -203.94959553 167.01884516 -203.96583293 157.43904228 C-203.97639846 150.87131174 -203.9796016 144.30360341 -203.97700275 137.73586499 C-203.97572079 133.94569463 -203.97769685 130.15559932 -203.98841095 126.36544228 C-203.99994304 122.25590302 -203.99597779 118.14652378 -203.99050903 114.03697205 C-203.99633472 112.83949512 -204.0021604 111.64201819 -204.00816262 110.40825409 C-203.95977623 96.99065272 -203.95977623 96.99065272 -200.3125 92.5703125 C-195.3601014 88.97982352 -193.03838618 88.17258085 -186.91796875 87.99609375 C-186.22282166 87.97522202 -185.52767456 87.95435028 -184.8114624 87.93284607 C-182.52025959 87.86623913 -180.22894873 87.80748826 -177.9375 87.75 C-177.15190704 87.72915344 -176.36631409 87.70830688 -175.55691528 87.68682861 C-151.58973648 87.05589723 -127.70320064 87.17114866 -103.75 88.3125 C-103.63914063 87.17167969 -103.52828125 86.03085938 -103.4140625 84.85546875 C-102.83268219 80.24797916 -101.61216939 76.01441745 -100.125 71.625 C-99.85921143 70.84044434 -99.59342285 70.05588867 -99.31958008 69.24755859 C-91.01910628 45.58504994 -73.57414784 25.49401613 -51.75 13.3125 C-50.27466797 12.47138672 -50.27466797 12.47138672 -48.76953125 11.61328125 C-33.63368281 3.5040615 -17.08424921 -0.08846704 0 0 Z M-203.75 444.3125 C-202.75 446.3125 -202.75 446.3125 -202.75 446.3125 Z M-192.75 459.3125 C-192.75 459.6425 -192.75 459.9725 -192.75 460.3125 C-189.12 460.3125 -185.49 460.3125 -181.75 460.3125 C-181.75 459.9825 -181.75 459.6525 -181.75 459.3125 C-185.38 459.3125 -189.01 459.3125 -192.75 459.3125 Z " fill="#4BA343" transform="translate(259.75,-0.3125)"/>
<path d="M0 0 C1.07314453 -0.01224609 2.14628906 -0.02449219 3.25195312 -0.03710938 C13.36679956 -0.05546663 22.58408874 1.11072322 31.8125 5.375 C32.49256104 5.68252197 33.17262207 5.99004395 33.87329102 6.30688477 C50.9846462 14.23939472 63.53889665 25.91097892 72.5625 42.4375 C73.10970703 43.41867798 73.10970703 43.41867798 73.66796875 44.41967773 C79.66082517 55.84699026 81.47060051 67.40770838 81.3125 80.1875 C81.33570313 82.06308594 81.33570313 82.06308594 81.359375 83.9765625 C81.28386509 102.21220644 74.62656099 118.91802276 61.98046875 132.04296875 C60.90732422 133.10451172 60.90732422 133.10451172 59.8125 134.1875 C59.16925781 134.84363281 58.52601563 135.49976563 57.86328125 136.17578125 C56.70223695 137.35193675 55.53101217 138.51817036 54.34765625 139.671875 C53.01770116 140.98490954 51.7521062 142.36253097 50.5 143.75 C43.43413809 150.15857243 34.66458548 153.88579277 25.8125 157.1875 C25.18480713 157.45151611 24.55711426 157.71553223 23.91040039 157.98754883 C17.10103458 160.62587552 10.60830218 160.59985232 3.375 160.5 C1.62993164 160.50483398 1.62993164 160.50483398 -0.15039062 160.50976562 C-7.06577993 160.46695793 -13.47717149 159.85681818 -20.1875 158.1875 C-21.0220874 157.98592285 -21.8566748 157.7843457 -22.71655273 157.57666016 C-41.64037949 152.79765034 -57.20921626 138.89089157 -67.5 122.75 C-78.83174435 103.3535263 -82.62995871 81.33474079 -77.1640625 59.39453125 C-70.48970099 37.47592804 -56.30201121 19.0768304 -36.03369141 8.10742188 C-24.24455838 2.23312232 -13.12150544 0.0077413 0 0 Z " fill="#F6F6F5" transform="translate(166.1875,161.8125)"/>
<path d="M0 0 C1.62083496 -0.0153479 1.62083496 -0.0153479 3.27441406 -0.03100586 C24.98635108 0.20542477 44.30122473 9.72150136 59.41650391 24.96826172 C70.2418677 36.36158794 76.79884915 50.09106261 79.8125 65.4375 C80.08707031 66.56671875 80.08707031 66.56671875 80.3671875 67.71875 C83.75004775 88.37200203 78.40798837 109.4632712 66.84765625 126.71484375 C59.99975031 135.87605381 52.43514744 143.19687091 42.8125 149.4375 C42.22726562 149.83952637 41.64203125 150.24155273 41.0390625 150.65576172 C35.98418861 154.01684927 30.99042927 155.97425421 25.1875 157.6875 C24.36765625 157.94273437 23.5478125 158.19796875 22.703125 158.4609375 C2.0701873 164.76360336 -19.32895787 161.41553657 -38.36328125 151.83984375 C-44.31858775 148.35561879 -48.12439843 144.39867051 -52.203125 138.87890625 C-55.69840142 134.57861538 -60.2158789 130.92331055 -65.1875 128.4375 C-67.41477941 124.89736675 -69.27658951 121.15577411 -71.1875 117.4375 C-71.64898437 116.56351562 -72.11046875 115.68953125 -72.5859375 114.7890625 C-81.41587204 96.96864915 -82.05187119 73.09469476 -76.1875 54.21875 C-73.48084222 46.5973715 -69.89985707 39.99465406 -65.1875 33.4375 C-64.54167969 32.53257812 -63.89585937 31.62765625 -63.23046875 30.6953125 C-51.81147491 15.73833726 -34.32870714 3.96499608 -15.61279297 0.73046875 C-10.4231146 0.10356981 -5.22219084 0.03806154 0 0 Z " fill="#F6F6F5" transform="translate(351.1875,161.5625)"/>
<path d="M0 0 C1.38671875 2.21484375 1.38671875 2.21484375 2.6875 4.9375 C6.02315423 11.35737724 10.25843156 16.56760702 15 22 C15.75796875 22.89203125 16.5159375 23.7840625 17.296875 24.703125 C23.74804711 32.13309564 31.20344446 39.55086112 41 42 C41 69.06 41 96.12 41 124 C-13.12 124 -67.24 124 -123 124 C-124.27351308 121.45297384 -123.80191925 120.5717055 -123.0625 117.875 C-122.77052734 116.78832031 -122.77052734 116.78832031 -122.47265625 115.6796875 C-122.31667969 115.12539063 -122.16070312 114.57109375 -122 114 C-121.34 114 -120.68 114 -120 114 C-120.33 113.01 -120.66 112.02 -121 111 C-120.44140625 108.73828125 -120.44140625 108.73828125 -119.5625 106.3125 C-119.27503906 105.50425781 -118.98757812 104.69601562 -118.69140625 103.86328125 C-118.46324219 103.24839844 -118.23507813 102.63351562 -118 102 C-117.34 102 -116.68 102 -116 102 C-115.85884766 100.25203125 -115.85884766 100.25203125 -115.71484375 98.46875 C-115.14486144 93.97211313 -113.66439238 90.48069583 -111.5625 86.5 C-111.03233276 85.47459106 -111.03233276 85.47459106 -110.49145508 84.4284668 C-103.64778246 71.42920417 -95.77367969 59.95014114 -86 49 C-85.3503125 48.22914063 -84.700625 47.45828125 -84.03125 46.6640625 C-80.05320736 41.94465737 -75.72124181 37.96290763 -71 34 C-70.16082031 33.24976563 -69.32164062 32.49953125 -68.45703125 31.7265625 C-51.04886364 16.50342007 -29.92749916 5.97912694 -8 -1 C-7.26265625 -1.25910156 -6.5253125 -1.51820313 -5.765625 -1.78515625 C-3.20204177 -2.09709669 -2.08876972 -1.49319383 0 0 Z " fill="#73B65B" transform="translate(219,333)"/>
<path d="M0 0 C27.42293338 0.97939048 60.49487829 23.73363578 78.86328125 42.94921875 C79.34152344 43.52285156 79.81976563 44.09648437 80.3125 44.6875 C82.2364467 46.96630798 84.17075424 49.17700135 86.2421875 51.32421875 C96.05664951 61.56198823 110.22519364 77.95082957 112.51953125 92.234375 C112.67808594 93.14703125 112.83664062 94.0596875 113 95 C113.66 95.33 114.32 95.66 115 96 C97.20017772 111.42104419 73.60319716 122.96673355 49.96875 124.75390625 C47.9999429 124.79541023 47.9999429 124.79541023 47 126 C44.26564586 126.07046532 41.55784438 126.075625 38.82421875 126.03759766 C37.96736481 126.02959641 37.11051086 126.02159515 36.22769165 126.01335144 C33.38088227 125.98535488 30.53422042 125.94992315 27.6875 125.9140625 C25.71834639 125.89230875 23.7491894 125.87085858 21.7800293 125.84970093 C17.64725258 125.80412872 13.51453952 125.75489557 9.38183594 125.703125 C4.07183329 125.63689494 -1.23822103 125.5796335 -6.5483551 125.52509499 C-10.61629664 125.48234458 -14.68417279 125.43489498 -18.75204468 125.38599777 C-20.7105444 125.36302298 -22.66906196 125.34152309 -24.62759399 125.32149124 C-27.35988584 125.2928333 -30.09202457 125.25787949 -32.82421875 125.22119141 C-33.64191742 125.2138649 -34.45961609 125.20653839 -35.30209351 125.19898987 C-40.88573271 125.11426729 -40.88573271 125.11426729 -42 124 C-42.09504251 121.47458998 -42.12557158 118.97662874 -42.11352539 116.45092773 C-42.11367142 115.66074249 -42.11381744 114.87055725 -42.1139679 114.056427 C-42.11326857 111.43212178 -42.10547527 108.80788664 -42.09765625 106.18359375 C-42.09579214 104.36898335 -42.0943682 102.55437244 -42.09336853 100.73976135 C-42.08954279 95.9540977 -42.07971204 91.1684642 -42.06866455 86.3828125 C-42.05845163 81.50325936 -42.05387117 76.62370136 -42.04882812 71.74414062 C-42.03808982 62.16274714 -42.02101273 52.58137607 -42 43 C-41.45499344 42.80437469 -40.90998688 42.60874939 -40.34846497 42.40719604 C-39.27262398 42.01396652 -39.27262398 42.01396652 -38.17504883 41.61279297 C-37.46504227 41.35529266 -36.75503571 41.09779236 -36.02351379 40.83248901 C-23.41954974 35.64712204 -13.34445181 20.71508575 -6.50390625 9.45703125 C-4.49628045 6.17704001 -2.27329587 3.09994892 0 0 Z " fill="#56B04C" transform="translate(302,332)"/>
<path d="M0 0 C2.16333498 0.61361051 4.28427954 1.30085431 6.41137695 2.0300293 C7.18006104 2.29178955 7.94874512 2.5535498 8.74072266 2.82324219 C32.96554256 11.36339141 32.96554256 11.36339141 38.84887695 20.4675293 C39.95587345 23.72340133 40.01138209 25.56214351 39.41137695 28.9050293 C29.77938728 44.70149237 5.2198199 49.32130827 -11.46362305 53.4675293 C-56.39082022 64.07509924 -102.9966385 67.54792322 -149.01245117 69.30444336 C-152.66949617 69.44484065 -156.32418239 69.61796947 -159.97924805 69.8034668 C-238.79208221 73.69322325 -335.86976475 73.91603999 -424.65112305 34.9675293 C-427.40597781 32.21267453 -428.93949669 30.17813501 -430.15112305 26.4675293 C-429.14010963 20.96312294 -426.21905581 17.11546883 -421.8815918 13.65893555 C-411.75039687 7.16936829 -401.00061021 2.67675572 -389.15112305 0.4675293 C-388.49112305 0.1375293 -387.83112305 -0.1924707 -387.15112305 -0.5324707 C-387.14701416 0.65830078 -387.14290527 1.84907227 -387.13867188 3.07592773 C-387.11688834 7.49694006 -387.0626071 11.91706138 -386.99853516 16.33764648 C-386.97534829 18.25031999 -386.96095781 20.16312129 -386.95556641 22.07592773 C-386.94628168 24.82706404 -386.90530377 27.57618842 -386.8581543 30.3269043 C-386.86208694 31.18121033 -386.86601959 32.03551636 -386.87007141 32.91571045 C-386.76683427 37.92914832 -386.76683427 37.92914832 -383.85693359 41.91381836 C-382.96401611 42.42654297 -382.07109863 42.93926758 -381.15112305 43.4675293 C-380.57996513 43.82662132 -380.00880722 44.18571335 -379.42034149 44.55568695 C-376.24612309 45.83118635 -373.55492213 45.66658238 -370.13781738 45.61071777 C-369.42990004 45.60204949 -368.7219827 45.5933812 -367.99261332 45.58445024 C-365.61487064 45.55304561 -363.23761897 45.50716825 -360.86010742 45.46166992 C-359.15083219 45.43674704 -357.44154169 45.41285309 -355.73223877 45.38990784 C-352.02920705 45.33857668 -348.32633164 45.28132345 -344.62345886 45.21958923 C-335.54529816 45.0691558 -326.46666939 44.95244946 -317.38805103 44.83350849 C-315.25833073 44.80549145 -313.12861513 44.77711519 -310.99890423 44.74839306 C-287.55438379 44.43258176 -264.11018446 44.29662303 -240.66387177 44.19959259 C-236.43908954 44.18184384 -232.21431418 44.16268961 -227.98953819 44.14352036 C-210.89450753 44.06602565 -193.79944916 43.99549515 -176.70437479 43.92838907 C-165.89619119 43.88592121 -155.08802756 43.84066535 -144.27987909 43.78998041 C-138.2345803 43.76185753 -132.18928656 43.73820738 -126.14395618 43.71805573 C-122.4510194 43.70474339 -118.75811057 43.68734588 -115.06519699 43.66874504 C-113.35301279 43.66096276 -111.6408198 43.65490475 -109.9286232 43.65065193 C-107.6062169 43.64465058 -105.28392009 43.63263055 -102.96154785 43.61901855 C-101.66219048 43.61386482 -100.3628331 43.60871109 -99.02410126 43.60340118 C-96.2546461 43.79535683 -96.2546461 43.79535683 -95.15112305 42.4675293 C-92.02398742 41.92108416 -88.88517427 41.50177912 -85.7409668 41.06518555 C-64.85301281 37.58764805 -45.52275917 27.63889406 -29.15112305 14.4675293 C-25.39778971 11.4675293 -25.39778971 11.4675293 -23.15112305 11.4675293 C-22.91522461 10.90678711 -22.67932617 10.34604492 -22.4362793 9.76831055 C-20.83884763 6.90847088 -18.94128786 4.93405827 -16.58862305 2.6550293 C-15.78295898 1.84420898 -14.97729492 1.03338867 -14.1472168 0.19799805 C-9.30672625 -2.59774812 -5.22626278 -1.29366464 0 0 Z M-389.15112305 30.4675293 C-388.15112305 32.4675293 -388.15112305 32.4675293 -388.15112305 32.4675293 Z " fill="#505251" transform="translate(445.151123046875,413.532470703125)"/>
<path d="M0 0 C1.4650925 1.20012896 2.92350574 2.40845984 4.375 3.625 C5.09171875 4.18445313 5.8084375 4.74390625 6.546875 5.3203125 C21.3498871 17.44618411 33.09280088 37.8430129 35.8359375 56.8125 C36.08199431 59.41937212 36.24696645 62.01054317 36.375 64.625 C36.48457031 64.07787354 36.59414063 63.53074707 36.70703125 62.96704102 C40.51726631 44.42505871 46.22762642 29.29829248 58.375 14.625 C58.84035156 13.99722656 59.30570313 13.36945313 59.78515625 12.72265625 C71.27725961 -2.21356372 92.18200327 -13.67720864 110.56591797 -17.01611328 C137.05908422 -20.4008651 163.92411692 -15.80924672 185.375 0.625 C204.62929882 16.08800024 218.14587733 37.91845677 221.375 62.625 C223.3562386 88.46149991 216.71009299 114.05499954 199.7265625 133.9921875 C183.85139878 151.7660419 161.77825936 164.90066513 137.60522461 166.84814453 C120.2445038 167.56331645 104.03746883 165.71773433 88.375 157.625 C86.11055803 155.36055803 85.95843837 154.43805146 85.375 151.375 C84.62278468 147.679593 83.65148434 144.18092066 82.375 140.625 C84.76528931 141.81129173 87.14099718 143.0208765 89.51171875 144.24609375 C108.85833926 154.14287982 129.08876613 158.10097062 150.375 151.625 C151.41140625 151.36976563 152.4478125 151.11453125 153.515625 150.8515625 C171.67008957 146.07176386 186.24418166 133.10317927 196.375 117.625 C207.5834096 98.15382074 211.97365936 76.14778758 206.48046875 54.09765625 C203.06687761 43.37439645 198.50908067 33.40081471 191.375 24.625 C190.69695312 23.78453125 190.01890625 22.9440625 189.3203125 22.078125 C177.20701493 7.85254422 159.89397645 -1.6578424 141.375 -4.375 C116.36701122 -5.93921291 95.69672015 -2.24842 76.375 14.625 C75.3953125 15.39457031 74.415625 16.16414063 73.40625 16.95703125 C70.16009679 19.66215892 67.77927133 22.73181067 65.375 26.1875 C64.94566162 26.79883789 64.51632324 27.41017578 64.07397461 28.04003906 C50.56190154 47.69118807 47.49911007 70.17012406 51.375 93.5 C53.00871022 100.60308792 56.0892235 106.79366405 59.53515625 113.1640625 C61.02032726 115.95782368 62.28006454 118.66356833 63.375 121.625 C62.73433594 121.43164062 62.09367188 121.23828125 61.43359375 121.0390625 C60.56863281 120.77867187 59.70367187 120.51828125 58.8125 120.25 C57.96558594 119.99476563 57.11867188 119.73953125 56.24609375 119.4765625 C55.29863281 119.19554687 54.35117187 118.91453125 53.375 118.625 C51.75658203 118.09326172 51.75658203 118.09326172 50.10546875 117.55078125 C37.57381879 114.44083252 25.90001858 116.24557124 14.375 121.625 C12.38326353 122.31596329 10.38514919 122.98959095 8.375 123.625 C8.91769531 122.68398438 9.46039063 121.74296875 10.01953125 120.7734375 C10.74227516 119.51567537 11.46492648 118.25786003 12.1875 117 C12.54392578 116.38253906 12.90035156 115.76507813 13.26757812 115.12890625 C13.61884766 114.51660156 13.97011719 113.90429688 14.33203125 113.2734375 C14.65147705 112.71833496 14.97092285 112.16323242 15.30004883 111.59130859 C21.78853998 99.72251283 24.09717126 88.21879182 23.9375 74.75 C23.92654297 73.43443115 23.91558594 72.1188623 23.90429688 70.76342773 C23.68249202 60.80254151 22.57944964 52.69020362 18.375 43.625 C18.09624023 43.00173828 17.81748047 42.37847656 17.53027344 41.73632812 C7.73579205 20.19497703 -8.55289798 7.11073124 -30.33203125 -1.4375 C-38.73613554 -4.41544496 -46.96803019 -4.58275776 -55.8125 -4.625 C-57.40288086 -4.6559375 -57.40288086 -4.6559375 -59.02539062 -4.6875 C-79.42331839 -4.78694145 -97.9085802 4.28882126 -112.5625 18.125 C-128.8253379 35.72952203 -135.70106486 57.49026183 -134.79541016 81.09082031 C-133.37471101 102.21812284 -122.97900376 120.92775212 -107.875 135.4375 C-88.92916363 151.68961556 -67.06310522 154.82808587 -42.89404297 153.89453125 C-35.56860245 153.29055169 -29.15740554 150.87639993 -22.625 147.625 C-21.99867676 147.3151416 -21.37235352 147.0052832 -20.72705078 146.68603516 C-16.95504085 144.78386023 -13.28643537 142.72964729 -9.625 140.625 C-8.29743996 139.94690963 -6.96651526 139.2750454 -5.625 138.625 C-5.97433594 139.43324219 -6.32367188 140.24148438 -6.68359375 141.07421875 C-7.13863281 142.14285156 -7.59367188 143.21148437 -8.0625 144.3125 C-8.51496094 145.36824219 -8.96742188 146.42398438 -9.43359375 147.51171875 C-10.72831329 150.49499082 -10.72831329 150.49499082 -10.91015625 153.32421875 C-11.625 155.625 -11.625 155.625 -14.25 157.3203125 C-15.36375 157.79210937 -16.4775 158.26390625 -17.625 158.75 C-18.80707031 159.25273437 -19.98914063 159.75546875 -21.20703125 160.2734375 C-32.24827474 164.63946064 -42.69939952 167.02038913 -54.625 167 C-55.62031738 166.99838867 -56.61563477 166.99677734 -57.64111328 166.99511719 C-70.07955495 166.79228409 -82.58857855 164.61440519 -93.625 158.625 C-94.90697266 157.97917969 -94.90697266 157.97917969 -96.21484375 157.3203125 C-120.05488377 144.94890323 -136.36832381 125.21757268 -144.765625 99.8046875 C-146.86897385 92.02229674 -147.99016908 84.62926618 -147.9375 76.5625 C-147.93012817 75.2022168 -147.93012817 75.2022168 -147.92260742 73.81445312 C-147.48874348 48.41450061 -137.57982147 26.44901677 -120.375 7.9375 C-88.05502966 -22.56589121 -35.85708855 -27.21682625 0 0 Z " fill="#266E22" transform="translate(222.625,167.375)"/>
<path d="M0 0 C1.71678955 0.00845947 1.71678955 0.00845947 3.46826172 0.01708984 C26.29431554 0.34377702 48.821737 8.32044581 66.25 23.3125 C67.48363281 24.364375 67.48363281 24.364375 68.7421875 25.4375 C78.55146042 34.02434073 85.80316232 42.96016836 92.25 54.3125 C92.79785156 55.27027344 93.34570312 56.22804687 93.91015625 57.21484375 C97.01167757 62.99747558 99.23309397 68.86241875 101.125 75.125 C101.34051514 75.83043945 101.55603027 76.53587891 101.77807617 77.26269531 C101.97248291 77.94557617 102.16688965 78.62845703 102.3671875 79.33203125 C102.53847168 79.93120361 102.70975586 80.53037598 102.88623047 81.14770508 C103.3928784 84.16277031 103.25 87.25516285 103.25 90.3125 C87.41 91.3025 87.41 91.3025 71.25 92.3125 C69.25 86.3125 69.25 86.3125 68.42578125 83.55859375 C63.01355574 65.95049357 53.6685594 52.1661162 37.578125 42.99609375 C17.94329832 33.06345255 -4.71216744 30.8838927 -25.80957031 37.63671875 C-42.29614129 43.37839319 -55.78620578 55.03961488 -63.56884766 70.73120117 C-66.75298827 77.42090195 -69.09230537 84.0762365 -70.75 91.3125 C-78.18526601 91.46091673 -85.47483517 91.00920763 -92.875 90.3125 C-93.926875 90.21710938 -94.97875 90.12171875 -96.0625 90.0234375 C-98.62539348 89.79044718 -101.18784031 89.55340324 -103.75 89.3125 C-103.21790688 83.05112518 -102.15978205 77.50027492 -100.125 71.5625 C-99.85921143 70.78245605 -99.59342285 70.00241211 -99.31958008 69.19873047 C-90.98066442 45.56250225 -73.56667307 25.48984396 -51.75 13.3125 C-50.76644531 12.75175781 -49.78289062 12.19101563 -48.76953125 11.61328125 C-33.63368281 3.5040615 -17.08424921 -0.08846704 0 0 Z " fill="#404141" transform="translate(259.75,-0.3125)"/>
<path d="M0 0 C16.29945106 0.58736761 30.70280811 5.49233331 42.0859375 17.578125 C52.26148029 30.45330159 56.51819981 44.39161206 55.29736328 60.70117188 C53.56664151 74.08087317 45.73629606 86.89241529 35.3984375 95.37109375 C21.34718898 104.91404266 7.6889324 107.41043164 -9 106 C-13.03064006 105.18366784 -16.37481407 103.91991755 -20 102 C-20.845625 101.56429687 -21.69125 101.12859375 -22.5625 100.6796875 C-36.1347459 93.10736738 -45.4475312 81.95461524 -50 67 C-52.98352162 52.5429355 -50.45665192 40.44499368 -45 27 C-44.34 27 -43.68 27 -43 27 C-42.09432058 28.36297329 -41.25065108 29.76738145 -40.4375 31.1875 C-37.06369265 36.29249728 -33.946102 39.26812563 -28 41 C-19.19050694 42.18187213 -11.43004617 42.06882487 -3.921875 36.71484375 C0.8868435 32.42413761 3.67991787 27.11521797 4.3359375 20.73046875 C4.41855549 13.23701713 3.93784775 8.39900259 0 2 C0 1.34 0 0.68 0 0 Z " fill="#2F2F2F" transform="translate(174,189)"/>
<path d="M0 0 C18.00071474 -0.72730161 31.60595238 1.76135503 45.50390625 14.25 C56.0503077 25.09976663 60.8088642 38.00276139 61.3125 52.9375 C60.9971455 67.31395514 55.41198732 80.38204673 45.48046875 90.74609375 C32.46855637 102.5695165 17.33565953 105.87714802 0.25341797 105.17480469 C-12.18099576 104.21022828 -23.64041008 97.37525989 -32.0859375 88.42578125 C-43.18745737 74.35630403 -46.81221303 59.70163732 -45 42 C-44.05583156 38.08844504 -42.83767475 34.57690264 -41 31 C-40.0409375 32.051875 -40.0409375 32.051875 -39.0625 33.125 C-33.22814349 38.97607386 -26.77972207 43.09221281 -18.4375 43.375 C-11.13065389 43.29548172 -5.66984987 41.19657114 -0.15234375 36.390625 C5.41050208 30.43140932 7.6552021 23.7036533 7.4296875 15.59765625 C6.46488063 9.76496019 3.23191505 4.84787257 0 0 Z " fill="#2F2F2F" transform="translate(340,190)"/>
<path d="M0 0 C9.8594368 5.51535412 17.47803919 13.71927381 21.09765625 24.578125 C21.60970502 27.68533005 21.766818 30.48670834 21.09765625 33.578125 C18.03515625 35.890625 18.03515625 35.890625 16.078125 37.03515625 C13.49528859 39.04742525 12.40018227 41.20238068 10.84765625 44.078125 C6.82289019 51.4221925 1.69421922 57.4065294 -3.90234375 63.578125 C-4.59457031 64.35414063 -5.28679687 65.13015625 -6 65.9296875 C-11.37188001 71.6435147 -18.70008719 78.48752496 -26.77734375 79.578125 C-38.71101862 78.28996865 -51.294607 63.53150065 -58.41015625 54.70849609 C-66.09597924 44.7133299 -66.09597924 44.7133299 -67.9453125 39.81640625 C-69.07836271 37.16645616 -69.987851 36.53537137 -72.52734375 35.265625 C-73.64109375 34.70875 -74.75484375 34.151875 -75.90234375 33.578125 C-75.47349003 22.42792828 -69.78283521 13.47966061 -62.08105469 5.75170898 C-44.98873426 -9.86758505 -19.74526533 -9.67331976 0 0 Z " fill="#F1A111" transform="translate(286.90234375,289.421875)"/>
<path d="M0 0 C14.60769897 0 27.84861284 4.15436754 38.75 14.25 C44.67012002 20.53486675 49.87956288 28.67741331 49.62011719 37.5559082 C48.37786127 42.45205938 43.09388376 44.52650995 39 47 C35.05863681 49.22578744 31.0723976 51.34444676 27.03955078 53.3996582 C25.23389004 54.32071762 23.43507309 55.25422117 21.63671875 56.18945312 C8.40015099 63 8.40015099 63 1 63 C0.67 42.21 0.34 21.42 0 0 Z " fill="#F7D52C" transform="translate(259,283)"/>
<path d="M0 0 C7.45607937 3.66758499 14.80937296 7.47876282 22.08984375 11.484375 C28.9558488 15.0602273 35.2142659 16.7980652 42.87597656 14.41699219 C51.31500383 11.2674788 59.14196397 6.99200098 66.7421875 2.1875 C67.48726563 1.795625 68.23234375 1.40375 69 1 C69.99 1.495 69.99 1.495 71 2 C52.21238141 27.50319289 52.21238141 27.50319289 37.984375 32.7421875 C32.60527319 33.48802935 28.34266362 30.12261706 24.14477539 27.11938477 C14.95780129 20.14927034 6.36295576 11.63533301 0 2 C0 1.34 0 0.68 0 0 Z " fill="#F5A321" transform="translate(224,336)"/>
<path d="M0 0 C7.44134078 2.81564246 7.44134078 2.81564246 9.5625 7.3125 C16.59010411 22.00658133 30.66359547 36.65006866 45 44 C49.1358314 45.41370237 51.66364114 44.63128609 55.546875 42.796875 C69.37899383 34.74767591 80.47898992 21.1020163 88.15234375 7.16796875 C90.1180076 3.79766561 91.47945167 2.57498215 95 1 C95.66 1 96.32 1 97 1 C97.4375 3.1875 97.4375 3.1875 97 6 C95.36142742 7.09238172 93.7189311 8.17927332 92.05859375 9.23828125 C88.90185421 11.93977942 87.12812938 15.36191876 85.05053711 18.92114258 C81.83542574 24.39414773 78.12327058 29.18951766 74 34 C73.278125 34.8559375 72.55625 35.711875 71.8125 36.59375 C59.08512181 51.26558875 59.08512181 51.26558875 49.375 52.4375 C43.74379022 52.31463724 40.25136238 49.44414168 36 46 C35.0821875 45.2575 34.164375 44.515 33.21875 43.75 C22.62084789 34.60233713 13.4729676 23.45479906 7.27124023 10.86962891 C5.75719172 8.64289883 4.43230053 8.06880638 2 7 C0 5 0 5 -0.125 2.375 C-0.08375 1.59125 -0.0425 0.8075 0 0 Z " fill="#539941" transform="translate(211,323)"/>
<path d="M0 0 C0.99 0.33 1.98 0.66 3 1 C2.33613281 1.59425781 1.67226562 2.18851562 0.98828125 2.80078125 C-5.60283375 8.9877695 -11.24922427 15.37777307 -12.3046875 24.6875 C-12.20414063 25.450625 -12.10359375 26.21375 -12 27 C-9.05763218 29.21168225 -9.05763218 29.21168225 -6 31 C-6 31.66 -6 32.32 -6 33 C-4.35 33.33 -2.7 33.66 -1 34 C-1 34.66 -1 35.32 -1 36 C1.31 36.66 3.62 37.32 6 38 C6 38.66 6 39.32 6 40 C6.83015625 40.24621094 7.6603125 40.49242187 8.515625 40.74609375 C11.79038346 41.92456625 14.65581502 43.32943425 17.70727539 44.97241211 C27.32213738 50.38664258 27.32213738 50.38664258 38 51 C43.25083025 49.12022784 48.09209199 46.63242339 53 44 C55.57617975 42.62533277 58.15240883 41.25080686 60.73071289 39.88012695 C62.43603884 38.9685234 64.13591683 38.04664559 65.82983398 37.11401367 C66.60399658 36.69482666 67.37815918 36.27563965 68.17578125 35.84375 C68.86583252 35.46412109 69.55588379 35.08449219 70.2668457 34.69335938 C70.83878662 34.46455078 71.41072754 34.23574219 72 34 C72.66 34.33 73.32 34.66 74 35 C70.8722848 42.44694094 66.10915921 44.6440229 59 48 C57.53499144 48.70538697 56.07015835 49.41113846 54.60546875 50.1171875 C35.05287151 59.46770899 35.05287151 59.46770899 24.5390625 55.7890625 C20.58179867 54.06900028 16.79370698 52.05029181 13 50 C11.87827393 49.41387939 11.87827393 49.41387939 10.73388672 48.81591797 C8.40970758 47.59371612 6.10920555 46.33548595 3.8125 45.0625 C3.09368652 44.6804541 2.37487305 44.2984082 1.63427734 43.90478516 C-3.06232692 41.19946064 -5.01302281 38.72258444 -7.14770508 33.76342773 C-8.25250628 31.47755576 -9.46192977 30.55603242 -11.75 29.5 C-12.8225 29.005 -13.895 28.51 -15 28 C-14.62906623 18.35572186 -10.41301062 10.05006748 -3.625 3.25 C-2.43148779 2.15035953 -1.22863979 1.06024753 0 0 Z " fill="#EB6B03" transform="translate(226,295)"/>
<path d="M0 0 C1.69853005 1.69853005 3.38940591 3.40120609 5.0625 5.125 C8.28062719 8.23931663 10.49725056 8.1673823 14.8828125 8.31640625 C16.04941406 8.35830078 17.21601562 8.40019531 18.41796875 8.44335938 C19.64128906 8.48267578 20.86460938 8.52199219 22.125 8.5625 C23.35605469 8.60568359 24.58710937 8.64886719 25.85546875 8.69335938 C28.90352853 8.79968704 31.9516719 8.90171781 35 9 C35.33 8.01 35.66 7.02 36 6 C36.66 6.66 37.32 7.32 38 8 C40.73498847 8.29684443 40.73498847 8.29684443 43.99313354 8.23377991 C45.27438614 8.23508408 46.55563873 8.23638824 47.87571716 8.23773193 C49.30630599 8.22905444 50.73689374 8.22019817 52.16748047 8.21118164 C53.67005818 8.20898002 55.17263743 8.20767486 56.67521667 8.2071991 C59.93212982 8.20425285 63.18894353 8.19495482 66.44582748 8.18089485 C71.684027 8.15841752 76.92219037 8.15049444 82.16043091 8.14439392 C91.50536232 8.13165851 100.8502318 8.10666766 110.19512939 8.07904053 C125.74165558 8.03316339 141.28821008 7.99977808 156.83478642 7.97675657 C158.6478913 7.97402327 160.46099594 7.97112699 162.2741003 7.96806765 C201.18891798 7.9029764 240.09111084 8.35036555 279 9 C279 9.33 279 9.66 279 10 C257.06802765 10.1336651 235.13603783 10.26408483 213.20402622 10.39115143 C203.00881132 10.45028618 192.81360344 10.5103132 182.6184082 10.57275391 C157.80891476 10.7242247 132.99941775 10.853336 108.18968475 10.95860481 C100.86199889 10.9903126 93.5343667 11.02909426 86.20672607 11.06982422 C76.76462514 11.12195084 67.32254916 11.16232109 57.88034171 11.18922186 C52.92662334 11.20359474 47.9730489 11.22289765 43.01941109 11.25502014 C38.42776904 11.28459515 33.83630033 11.30002163 29.24456716 11.30438423 C27.56601365 11.30844163 25.88746342 11.31764438 24.20896983 11.33239555 C21.91728864 11.35173742 19.62632208 11.35243407 17.33457947 11.34851074 C16.05506377 11.35366447 14.77554808 11.35881821 13.45725918 11.36412811 C8.9713058 10.89165508 5.75897645 9.33439593 2.1875 6.625 C0.63551717 4.50123403 0.34848234 2.57876935 0 0 Z " fill="#4AA038" transform="translate(58,448)"/>
<path d="M0 0 C0.4375 2.1875 0.4375 2.1875 0 5 C-1.63857258 6.09238172 -3.2810689 7.17927332 -4.94140625 8.23828125 C-8.09814579 10.93977942 -9.87187062 14.36191876 -11.94946289 17.92114258 C-15.16457426 23.39414773 -18.87672942 28.18951766 -23 33 C-23.721875 33.8559375 -24.44375 34.711875 -25.1875 35.59375 C-37.52407406 49.81507843 -37.52407406 49.81507843 -45.0625 50.9375 C-46.031875 50.958125 -47.00125 50.97875 -48 51 C-48 49.02 -48 47.04 -48 45 C-47.34515625 44.69449219 -46.6903125 44.38898438 -46.015625 44.07421875 C-29.68395896 35.88531841 -17.68390862 21.45818788 -8.88671875 5.71484375 C-6.61701291 2.44891092 -4.16094978 0 0 0 Z " fill="#3D9236" transform="translate(308,324)"/>
<path d="M0 0 C7.71484375 -0.09765625 7.71484375 -0.09765625 10 0 C11.60770123 1.60770123 11.2096774 3.26881612 11.25 5.5 C11.18456399 12.72600523 9.81201334 19.68638557 8.43652344 26.75097656 C7.99065613 29.04814081 7.55966932 31.34766956 7.1328125 33.6484375 C6.43021451 37.43390538 5.71783006 41.21739196 5 45 C2.08544637 39.94810704 1.8728247 34.67200894 1.90234375 28.9453125 C1.90556641 27.83671875 1.90878906 26.728125 1.91210938 25.5859375 C1.92048828 24.44382812 1.92886719 23.30171875 1.9375 22.125 C1.94201172 20.9596875 1.94652344 19.794375 1.95117188 18.59375 C1.96291219 15.72911355 1.9793343 12.86458367 2 10 C1.34 10 0.68 10 0 10 C0 6.7 0 3.4 0 0 Z " fill="#FBF19F" transform="translate(259,283)"/>
<path d="M0 0 C2.11941807 3.65740287 2.9398782 7.54836414 3.875 11.625 C5.24038866 17.36981406 6.87722531 22.75985743 9.265625 28.1796875 C10 30 10 30 10 32 C3.73 32 -2.54 32 -9 32 C-6 23 -6 23 -4.5 18.8125 C-2.43904754 12.68416518 -1.26953573 6.32967105 0 0 Z " fill="#4FA647" transform="translate(259,251)"/>
<path d="M0 0 C0.73207169 -0.00671722 1.46414337 -0.01343445 2.21839905 -0.02035522 C4.64070408 -0.03936612 7.0627324 -0.04326121 9.48510742 -0.04541016 C11.17038588 -0.05183693 12.85566322 -0.0585652 14.54093933 -0.06558228 C18.07582179 -0.07756346 21.61060648 -0.08126234 25.14550781 -0.08007812 C29.66833671 -0.07987511 34.19053601 -0.10715483 38.71321583 -0.14162254 C42.19543824 -0.16389736 45.67750941 -0.16791546 49.15979576 -0.16685867 C50.8267197 -0.16921462 52.49364781 -0.17803786 54.16050148 -0.19352341 C56.49676731 -0.21319198 58.8316796 -0.20734264 61.16796875 -0.1953125 C61.85234009 -0.20655151 62.53671143 -0.21779053 63.24182129 -0.22937012 C68.18493314 -0.16491813 70.94250497 1.25358271 74.77807617 4.29052734 C76.71557617 6.29052734 76.71557617 6.29052734 77.77807617 8.29052734 C77.46557617 10.54052734 77.46557617 10.54052734 76.77807617 12.29052734 C76.40682617 11.36240234 76.03557617 10.43427734 75.65307617 9.47802734 C73.37388434 5.60340123 71.92031832 4.92120046 67.77807617 3.29052734 C65.08648021 2.99910785 62.62417119 2.85270538 59.93676758 2.8581543 C58.79428558 2.84286682 58.79428558 2.84286682 57.62872314 2.82727051 C55.12895246 2.79724706 52.62956564 2.78789112 50.12963867 2.77880859 C48.38942197 2.76195397 46.64921738 2.74380267 44.9090271 2.72441101 C40.34214057 2.67698986 35.77530317 2.64712959 31.20825195 2.62097168 C26.54262592 2.59112629 21.87716904 2.54460964 17.21166992 2.49951172 C8.0672273 2.41356837 -1.07725021 2.34618326 -10.22192383 2.29052734 C-6.65527014 -0.08724178 -4.11758182 -0.00540531 0 0 Z " fill="#83BA81" transform="translate(377.221923828125,93.70947265625)"/>
<path d="M0 0 C1.18851563 0.00902344 2.37703125 0.01804687 3.6015625 0.02734375 C4.51679687 0.03894531 5.43203125 0.05054687 6.375 0.0625 C5.76914063 0.36414063 5.16328125 0.66578125 4.5390625 0.9765625 C0.11504854 3.19655506 -2.50318357 4.5157505 -4.625 9.0625 C-5.615 9.3925 -6.605 9.7225 -7.625 10.0625 C-7.955 12.7025 -8.285 15.3425 -8.625 18.0625 C-7.965 18.3925 -7.305 18.7225 -6.625 19.0625 C-7.945 19.0625 -9.265 19.0625 -10.625 19.0625 C-10.955 17.7425 -11.285 16.4225 -11.625 15.0625 C-13.5701 17.98015 -14.07776317 19.68787285 -14.625 23.0625 C-14.955 23.0625 -15.285 23.0625 -15.625 23.0625 C-16.52831427 16.99564606 -17.22118801 11.81926471 -14.625 6.0625 C-10.0452991 1.1511216 -6.58069854 -0.06451665 0 0 Z " fill="#5EB954" transform="translate(72.625,87.9375)"/>
<path d="M0 0 C0.4375 2.1875 0.4375 2.1875 0 5 C-1.63347982 6.08898655 -3.27134238 7.17192341 -4.9296875 8.22265625 C-7.65985078 10.56647567 -9.32740491 13.36809032 -11.125 16.4375 C-16.34811644 25.34811644 -16.34811644 25.34811644 -20 29 C-20.99 29 -21.98 29 -23 29 C-25.35666976 30.99157649 -25.35666976 30.99157649 -27.6875 33.5 C-28.49574219 34.3353125 -29.30398438 35.170625 -30.13671875 36.03125 C-31.05904297 37.00578125 -31.05904297 37.00578125 -32 38 C-32.66 37.67 -33.32 37.34 -34 37 C-33.26136719 36.30777344 -32.52273438 35.61554688 -31.76171875 34.90234375 C-25.97031191 29.35993664 -20.72520479 23.67417648 -16 17.1875 C-15.55615967 16.5783374 -15.11231934 15.9691748 -14.6550293 15.34155273 C-12.53753543 12.36623759 -10.61386123 9.37136016 -8.8515625 6.171875 C-6.720707 2.52154871 -4.44407526 0 0 0 Z " fill="#379036" transform="translate(308,324)"/>
<path d="M0 0 C1.69853005 1.69853005 3.38940591 3.40120609 5.0625 5.125 C8.28062719 8.23931663 10.49725056 8.1673823 14.8828125 8.31640625 C16.04941406 8.35830078 17.21601562 8.40019531 18.41796875 8.44335938 C19.64128906 8.48267578 20.86460938 8.52199219 22.125 8.5625 C23.35605469 8.60568359 24.58710937 8.64886719 25.85546875 8.69335938 C28.90352853 8.79968704 31.9516719 8.90171781 35 9 C35.33 8.01 35.66 7.02 36 6 C36.495 7.98 36.495 7.98 37 10 C57.46 10 77.92 10 99 10 C99 10.33 99 10.66 99 11 C87.49950444 11.06954355 75.99905901 11.1228335 64.49839592 11.15543652 C59.15803469 11.17108518 53.81781744 11.19230905 48.47753906 11.22631836 C43.32283235 11.25894003 38.16826405 11.27685903 33.01346207 11.28463173 C31.04789171 11.29017017 29.08232883 11.30098541 27.11681747 11.31719017 C24.36140385 11.33900163 21.60656044 11.34196536 18.85107422 11.34057617 C17.63510811 11.35675491 17.63510811 11.35675491 16.39457703 11.3732605 C10.72641833 11.34238583 6.79425588 10.11978032 2.1875 6.625 C0.63551717 4.50123403 0.34848234 2.57876935 0 0 Z " fill="#3F8237" transform="translate(58,448)"/>
<path d="M0 0 C7.44134078 2.81564246 7.44134078 2.81564246 9.5625 7.3125 C14.9125174 18.49890003 24.11463184 27.57072489 33 36 C30 36 30 36 27.625 33.8125 C25.875 31.9375 24.125 30.0625 22.375 28.1875 C20.17037709 25.66126212 20.17037709 25.66126212 17 26 C15.31640625 24.05859375 15.31640625 24.05859375 13.5625 21.4375 C12.94890625 20.52871094 12.3353125 19.61992187 11.703125 18.68359375 C10.30973734 16.48804943 9.03398136 14.29270112 7.8125 12 C5.98265857 8.97129695 5.21197494 8.17772414 2 7 C0 5 0 5 -0.125 2.375 C-0.08375 1.59125 -0.0425 0.8075 0 0 Z " fill="#4D9641" transform="translate(211,323)"/>
<path d="M0 0 C0.33 0 0.66 0 1 0 C1.04629987 13.75158639 1.08185728 27.5031543 1.10362434 41.2548027 C1.11407037 47.63994852 1.12824461 54.02504108 1.15087891 60.41015625 C1.17257794 66.56984227 1.18456245 72.72947701 1.18975449 78.8891983 C1.19345552 81.24157773 1.20068252 83.5939543 1.21146011 85.94631195 C1.22593581 89.23608002 1.22797957 92.525635 1.22705078 95.81542969 C1.23424133 96.79222687 1.24143188 97.76902405 1.24884033 98.77542114 C1.246091 99.67282013 1.24334167 100.57021912 1.24050903 101.49481201 C1.24235262 102.27280529 1.24419621 103.05079857 1.24609566 103.8523674 C0.96901583 106.27039328 0.20301541 107.90115794 -1 110 C-1.38218767 108.34385343 -1.71395102 106.67542976 -2 105 C-1.505 104.505 -1.505 104.505 -1 104 C-0.89262854 102.64706324 -0.85321362 101.28864581 -0.84178162 99.9315033 C-0.8319928 99.05505661 -0.82220398 98.17860992 -0.81211853 97.27560425 C-0.80636307 96.30672272 -0.8006076 95.33784119 -0.79467773 94.33959961 C-0.78477814 93.32508224 -0.77487854 92.31056488 -0.76467896 91.26530457 C-0.73295872 87.89434179 -0.7082651 84.5233649 -0.68359375 81.15234375 C-0.6630333 78.82206342 -0.64203708 76.4917869 -0.62062073 74.16151428 C-0.56530614 68.01466953 -0.5159384 61.86779061 -0.46777344 55.72088623 C-0.41762677 49.45386701 -0.36190512 43.18689769 -0.30664062 36.91992188 C-0.19894431 24.61332383 -0.097525 12.30668255 0 0 Z " fill="#56AB4F" transform="translate(259,114)"/>
<path d="M0 0 C1.82569168 3.34166781 2.91288092 6.73145247 4 10.375 C5.26887371 14.60788338 6.58358012 18.8139734 8 23 C4.7 22.67 1.4 22.34 -2 22 C-1.85929562 18.89552247 -1.71265848 15.79152225 -1.5625 12.6875 C-1.50352539 11.36588867 -1.50352539 11.36588867 -1.44335938 10.01757812 C-1.40146484 9.17001953 -1.35957031 8.32246094 -1.31640625 7.44921875 C-1.27974854 6.66893311 -1.24309082 5.88864746 -1.20532227 5.0847168 C-1 3 -1 3 0 0 Z " fill="#4B9949" transform="translate(261,260)"/>
<path d="M0 0 C0.33 0 0.66 0 1 0 C1.01981934 0.68924561 1.03963867 1.37849121 1.06005859 2.08862305 C1.41108149 18.86473924 1.41108149 18.86473924 3.6953125 35.44921875 C4.05735696 38.48018072 3.61857318 41.02475011 3 44 C1.515 44.495 1.515 44.495 0 45 C0 30.15 0 15.3 0 0 Z " fill="#F9D352" transform="translate(260,293)"/>
<path d="M0 0 C0.99 0.33 1.98 0.66 3 1 C2.33613281 1.59425781 1.67226562 2.18851562 0.98828125 2.80078125 C-5.60026137 8.98535483 -11.24658802 15.37383824 -12.3046875 24.6796875 C-12.22672153 27.38780991 -12.22672153 27.38780991 -9 29.3125 C-8.01 29.869375 -7.02 30.42625 -6 31 C-6.66 31.33 -7.32 31.66 -8 32 C-10.4750171 30.88568235 -12.67883419 29.41849022 -15 28 C-14.62906623 18.35572186 -10.41301062 10.05006748 -3.625 3.25 C-2.43148779 2.15035953 -1.22863979 1.06024753 0 0 Z " fill="#E88609" transform="translate(226,295)"/>
<path d="M0 0 C6.9064141 3.34961084 13.57269512 6.79753142 20 11 C19.01 11.495 19.01 11.495 18 12 C15.3984375 10.78515625 15.3984375 10.78515625 12.375 9.0625 C11.37210938 8.49660156 10.36921875 7.93070312 9.3359375 7.34765625 C8.56507813 6.90292969 7.79421875 6.45820313 7 6 C7.66 7.98 8.32 9.96 9 12 C5.74483572 8.83525695 2.67991207 5.67247209 0 2 C0 1.34 0 0.68 0 0 Z " fill="#F2BA26" transform="translate(224,336)"/>
<path d="M0 0 C0.66 0.33 1.32 0.66 2 1 C0.71632558 2.83893824 -0.57716761 4.67102625 -1.875 6.5 C-2.59429687 7.5209375 -3.31359375 8.541875 -4.0546875 9.59375 C-4.69664062 10.3878125 -5.33859375 11.181875 -6 12 C-6.66 12 -7.32 12 -8 12 C-7 10 -6 8 -5 6 C-6.11375 6.66 -7.2275 7.32 -8.375 8 C-11.75 10 -11.75 10 -14 10 C-14 9.34 -14 8.68 -14 8 C-11.7136988 6.63597957 -9.42178251 5.28365726 -7.125 3.9375 C-6.47402344 3.54755859 -5.82304687 3.15761719 -5.15234375 2.75585938 C-3.46934275 1.77555467 -1.73703801 0.88101568 0 0 Z " fill="#F3B624" transform="translate(293,337)"/>
<path d="M0 0 C0 3.63 0 7.26 0 11 C-0.33 11 -0.66 11 -1 11 C-1 8.03 -1 5.06 -1 2 C-1.95261719 2.2165625 -2.90523438 2.433125 -3.88671875 2.65625 C-5.76810547 3.07390625 -5.76810547 3.07390625 -7.6875 3.5 C-9.54955078 3.91765625 -9.54955078 3.91765625 -11.44921875 4.34375 C-14.42398218 4.89354126 -16.99368602 5.13795705 -20 5 C-14.73768063 -0.26231937 -7.00757749 -0.33369417 0 0 Z " fill="#E6CD1D" transform="translate(259,283)"/>
<path d="M0 0 C0.66 0.33 1.32 0.66 2 1 C-4.6 7.6 -11.2 14.2 -18 21 C-18 15.77683535 -13.50936218 12.58668711 -10 9 C-7.92761701 7.08286521 -5.82274819 5.22912846 -3.6640625 3.41015625 C-1.8974177 1.95229227 -1.8974177 1.95229227 0 0 Z " fill="#89C76B" transform="translate(150,365)"/>
<path d="M0 0 C0.1875 2.375 0.1875 2.375 0 5 C-3.22791555 7.1519437 -4.28400809 7.20086443 -8 7 C-7.8125 5.1875 -7.8125 5.1875 -7 3 C-2.82142857 0 -2.82142857 0 0 0 Z " fill="#256C28" transform="translate(308,324)"/>
<path d="M0 0 C2.9719385 1.12451727 5.33440687 2.22293791 8 4 C8 4.99 8 5.98 8 7 C4.28400809 7.20086443 3.22791555 7.1519437 0 5 C-0.1875 2.375 -0.1875 2.375 0 0 Z " fill="#2A7725" transform="translate(211,323)"/>
<path d="M0 0 C0.66 0.33 1.32 0.66 2 1 C0.68 3.31 -0.64 5.62 -2 8 C-2.33 6.68 -2.66 5.36 -3 4 C-3.763125 4.515625 -4.52625 5.03125 -5.3125 5.5625 C-6.199375 6.036875 -7.08625 6.51125 -8 7 C-8.99 6.67 -9.98 6.34 -11 6 C-9.21385682 4.96953278 -7.42089982 3.95086764 -5.625 2.9375 C-4.62726563 2.36902344 -3.62953125 1.80054688 -2.6015625 1.21484375 C-1.74304688 0.81394531 -0.88453125 0.41304688 0 0 Z " fill="#EB8D05" transform="translate(298,329)"/>
<path d="M0 0 C0.33 1.32 0.66 2.64 1 4 C0.34 4 -0.32 4 -1 4 C-1 4.66 -1 5.32 -1 6 C-0.01 6.33 0.98 6.66 2 7 C0.03533587 8.06775224 -1.96855359 9.06553465 -4 10 C-4.66 9.67 -5.32 9.34 -6 9 C-4.02 6.03 -2.04 3.06 0 0 Z " fill="#367E30" transform="translate(237,281)"/>
<path d="M0 0 C2 3 2 3 1.7578125 5.69921875 C1.44457031 7.17841797 1.44457031 7.17841797 1.125 8.6875 C0.81949219 10.17830078 0.81949219 10.17830078 0.5078125 11.69921875 C0.34023438 12.45847656 0.17265625 13.21773438 0 14 C-0.66 14 -1.32 14 -2 14 C-1.34 9.38 -0.68 4.76 0 0 Z " fill="#306F2E" transform="translate(431,251)"/>
<path d="M0 0 C2.64752004 2.57784846 4.94432065 4.91648098 7 8 C6.401875 7.67 5.80375 7.34 5.1875 7 C2.94613529 5.79212012 2.94613529 5.79212012 0 6 C-1.125 2.25 -1.125 2.25 0 0 Z " fill="#222222" transform="translate(299,221)"/>
<path d="M0 0 C1.98 0.99 1.98 0.99 4 2 C4 3.65 4 5.3 4 7 C4.66 7.33 5.32 7.66 6 8 C5.01 8 4.02 8 3 8 C0.89229241 5.11165997 0 3.61537605 0 0 Z " fill="#EB5904" transform="translate(219,327)"/>
<path d="M0 0 C0.66 1.32 1.32 2.64 2 4 C-1.3 3.67 -4.6 3.34 -8 3 C-8 2.67 -8 2.34 -8 2 C-5.36 2 -2.72 2 0 2 C0 1.34 0 0.68 0 0 Z " fill="#419340" transform="translate(267,279)"/>
</svg>
