<?xml version="1.0" standalone="no"?>
<!DOCTYPE svg PUBLIC "-//W3C//DTD SVG 20010904//EN"
 "http://www.w3.org/TR/2001/REC-SVG-20010904/DTD/svg10.dtd">
<svg version="1.0" xmlns="http://www.w3.org/2000/svg"
 width="500.000000pt" height="489.000000pt" viewBox="0 0 500.000000 489.000000"
 preserveAspectRatio="xMidYMid meet">

<g transform="translate(0.000000,489.000000) scale(0.100000,-0.100000)"
fill="#000000" stroke="none">
<path d="M2485 4879 c-44 -5 -120 -20 -170 -34 -295 -84 -527 -279 -659 -556
-40 -81 -102 -276 -92 -286 2 -2 57 -8 122 -13 66 -5 135 -12 155 -15 l37 -5
16 68 c10 37 35 105 58 152 33 68 57 101 127 171 70 70 103 94 171 127 129 62
194 76 345 76 150 0 217 -14 340 -73 185 -88 311 -245 364 -452 10 -41 23 -74
27 -74 5 0 75 7 156 14 l147 13 -5 32 c-68 389 -357 711 -737 820 -73 21 -273
50 -312 45 -5 -1 -46 -5 -90 -10z"/>
<path d="M3728 3953 c7 -3 16 -2 19 1 4 3 -2 6 -13 5 -11 0 -14 -3 -6 -6z"/>
<path d="M4368 3953 c12 -2 30 -2 40 0 9 3 -1 5 -23 4 -22 0 -30 -2 -17 -4z"/>
<path d="M1555 3389 c-84 -11 -221 -52 -290 -86 -253 -128 -444 -374 -499
-645 -18 -88 -21 -257 -5 -344 40 -227 167 -435 347 -570 95 -71 107 -82 63
-58 -117 66 -271 238 -342 383 l-43 87 -96 51 -95 50 -6 79 c-3 44 -6 -373 -7
-926 -2 -980 -1 -1006 18 -1037 36 -59 52 -64 205 -61 l138 3 26 95 c108 387
351 718 696 949 218 146 520 261 541 206 8 -19 178 -116 286 -162 67 -30 88
-34 125 -29 24 3 52 10 61 16 13 7 8 8 -17 3 -42 -8 -35 10 12 32 18 9 23 12
12 9 -11 -4 -42 -9 -70 -11 -44 -4 -61 1 -140 40 -109 53 -264 140 -323 179
-48 33 -48 41 -6 137 l24 53 -22 -16 c-176 -127 -397 -178 -607 -142 -310 54
-555 276 -643 583 -30 102 -32 313 -5 413 83 307 336 541 642 595 107 18 176
19 275 1 405 -73 695 -442 666 -846 -9 -136 -58 -286 -126 -386 -16 -25 -30
-47 -30 -50 0 -2 21 6 48 20 26 13 66 29 89 36 41 13 44 16 74 94 30 78 57
185 60 236 1 14 6 -4 11 -40 8 -55 47 -185 71 -240 6 -12 -2 -15 -45 -13 l-53
2 57 -9 c49 -8 157 -41 210 -64 13 -6 6 12 -22 61 -260 453 -28 1029 475 1179
116 34 299 39 410 10 290 -76 514 -298 592 -586 25 -90 25 -310 0 -400 -108
-400 -501 -662 -897 -600 -93 15 -206 54 -281 99 l-66 38 19 -49 c26 -70 24
-84 -24 -118 -24 -18 -52 -51 -66 -77 -30 -60 -69 -110 -162 -207 -84 -88
-149 -136 -193 -145 -26 -6 -30 -11 -31 -39 -1 -37 10 -40 62 -15 83 39 267
244 328 364 13 26 32 50 42 53 45 15 338 -111 490 -210 271 -176 500 -431 618
-688 14 -31 29 -56 34 -56 4 0 46 40 93 89 135 142 229 297 287 469 59 179 62
206 67 610 4 265 2 372 -6 372 -6 0 -11 -13 -11 -29 0 -34 -3 -35 -140 -51
-52 -7 -96 -15 -98 -19 -13 -35 -118 -177 -170 -230 l-64 -66 57 65 c170 194
243 368 252 606 6 150 -9 248 -58 376 -58 148 -190 317 -325 414 -80 57 -210
119 -309 145 -106 29 -335 32 -438 6 -277 -69 -514 -264 -633 -521 -36 -80
-74 -211 -75 -265 0 -24 -7 -6 -19 54 -65 306 -245 535 -525 666 -145 68 -343
99 -500 78z m2565 -1622 c0 -2 -10 -12 -22 -23 l-23 -19 19 23 c18 21 26 27
26 19z m-85 -67 c-3 -5 -16 -15 -28 -21 -19 -9 -19 -8 3 10 28 23 34 26 25 11z
m-2739 -78 c-5 -4 -86 36 -86 43 0 3 20 -5 45 -17 24 -12 43 -23 41 -26z m830
-18 c12 -10 -4 -18 -82 -44 -94 -31 -98 -31 -133 -16 -28 13 -44 14 -71 6 -19
-5 -91 -9 -160 -8 l-125 1 135 7 c167 9 268 33 376 88 l39 20 3 -21 c2 -12 10
-27 18 -33z m1829 46 c-3 -5 -12 -10 -18 -10 -7 0 -6 4 3 10 19 12 23 12 15 0z
m-840 -18 c-3 -3 -11 0 -18 7 -9 10 -8 11 6 5 10 -3 15 -9 12 -12z m65 -22 c8
-5 11 -10 5 -10 -5 0 -17 5 -25 10 -8 5 -10 10 -5 10 6 0 17 -5 25 -10z
m-1770 -27 c30 -11 31 -12 6 -8 -16 4 -43 13 -60 20 -23 11 -25 13 -6 8 14 -3
41 -12 60 -20z m73 -20 c-7 -2 -19 -2 -25 0 -7 3 -2 5 12 5 14 0 19 -2 13 -5z
m50 -10 c-7 -2 -19 -2 -25 0 -7 3 -2 5 12 5 14 0 19 -2 13 -5z"/>
<path d="M1740 2994 c0 -2 11 -24 25 -50 49 -92 29 -218 -46 -293 -112 -113
-298 -97 -387 34 l-32 47 -25 -55 c-67 -151 -54 -338 32 -486 14 -25 52 -71
82 -101 205 -201 537 -201 742 0 166 163 205 416 97 624 -65 124 -215 240
-344 265 -52 11 -144 20 -144 15z"/>
<path d="M3436 2990 c-36 -5 -38 -6 -22 -19 27 -23 57 -88 63 -140 11 -96 -49
-205 -141 -254 -32 -17 -59 -22 -116 -22 -89 0 -125 16 -187 82 l-42 44 -16
-53 c-9 -29 -19 -89 -22 -133 -20 -302 221 -555 527 -555 174 0 328 78 427
217 150 210 128 498 -51 677 -113 113 -282 176 -420 156z"/>
<path d="M2190 1567 c0 -18 41 -87 51 -84 7 1 14 -4 17 -12 3 -9 0 -11 -9 -6
-27 17 59 -91 131 -165 41 -42 50 -49 19 -16 -68 75 -129 150 -129 161 0 5 30
-23 68 -61 37 -39 48 -50 26 -25 -23 25 -63 73 -89 106 -26 33 -51 62 -55 65
-4 3 -12 14 -18 25 -6 11 -12 16 -12 12z"/>
<path d="M2430 1296 c0 -2 8 -10 18 -17 15 -13 16 -12 3 4 -13 16 -21 21 -21
13z"/>
<path d="M2470 1216 c0 -2 8 -10 18 -17 15 -13 16 -12 3 4 -13 16 -21 21 -21
13z"/>
<path d="M2606 442 c-3 -3 -6 -34 -6 -70 l0 -64 418 6 c229 4 437 9 462 12 25
3 56 6 70 7 14 1 30 5 35 8 6 4 34 12 63 20 28 7 52 16 52 19 0 3 -109 11
-242 18 -496 24 -813 42 -830 46 -9 2 -19 1 -22 -2z"/>
</g>
</svg>
